<svg id="eqjBVUluRYH1" xmlns="http://www.w3.org/2000/svg" xmlns:xlink="http://www.w3.org/1999/xlink" viewBox="0 0 162.04 96" shape-rendering="geometricPrecision" text-rendering="geometricPrecision">
<style><![CDATA[
#eqjBVUluRYH2_tr {animation: eqjBVUluRYH2_tr__tr 3000ms linear 1 normal forwards}@keyframes eqjBVUluRYH2_tr__tr { 0% {transform: translate(50.9px,48px) rotate(0deg)} 1% {transform: translate(50.9px,48px) rotate(-3.976798deg)} 2% {transform: translate(50.9px,48px) rotate(1.88819deg)} 3% {transform: translate(50.9px,48px) rotate(0deg)} 4% {transform: translate(50.9px,48px) rotate(-3.976798deg)} 5% {transform: translate(50.9px,48px) rotate(1.88819deg)} 6% {transform: translate(50.9px,48px) rotate(0deg)} 7% {transform: translate(50.9px,48px) rotate(-3.976798deg)} 8% {transform: translate(50.9px,48px) rotate(1.88819deg)} 8.333333% {transform: translate(50.9px,48px) rotate(0deg)} 40% {transform: translate(50.9px,48px) rotate(0deg)} 41% {transform: translate(50.9px,48px) rotate(-3.976798deg)} 42% {transform: translate(50.9px,48px) rotate(1.88819deg)} 43% {transform: translate(50.9px,48px) rotate(0deg)} 44% {transform: translate(50.9px,48px) rotate(-3.976798deg)} 45% {transform: translate(50.9px,48px) rotate(1.88819deg)} 46% {transform: translate(50.9px,48px) rotate(0deg)} 47% {transform: translate(50.9px,48px) rotate(-3.976798deg)} 48% {transform: translate(50.9px,48px) rotate(1.88819deg)} 48.666667% {transform: translate(50.9px,48px) rotate(0deg)} 83.333333% {transform: translate(50.9px,48px) rotate(0deg)} 84.333333% {transform: translate(50.9px,48px) rotate(-3.976798deg)} 85.333333% {transform: translate(50.9px,48px) rotate(1.88819deg)} 86.333333% {transform: translate(50.9px,48px) rotate(0deg)} 87.333333% {transform: translate(50.9px,48px) rotate(-3.976798deg)} 88.333333% {transform: translate(50.9px,48px) rotate(1.88819deg)} 89.333333% {transform: translate(50.9px,48px) rotate(0deg)} 90.333333% {transform: translate(50.9px,48px) rotate(-3.976798deg)} 91.333333% {transform: translate(50.9px,48px) rotate(1.88819deg)} 100% {transform: translate(50.9px,48px) rotate(1.88819deg)}}
]]></style>
<g id="eqjBVUluRYH2_tr" transform="translate(50.9,48) rotate(0)"><g transform="translate(-50.9,-48)"><path d="M26.9,0h48c2.209139,0,4,1.790861,4,4v88c0,2.209139-1.790861,4-4,4h-48c-2.209139,0-4-1.790861-4-4v-88c0-2.209139,1.790861-4,4-4Zm0,12v72h48v-72Z" fill="#2d2d2d" fill-rule="evenodd"/><rect width="48" height="72" rx="0" ry="0" transform="translate(26.9 12)" fill="#2a6f97"/><path d="M44.9,4h12c1.104569,0,2,.895431,2,2v0c0,1.104569-.895431,2-2,2h-12c-1.104569,0-2-.895431-2-2v0c0-1.104569.895431-2,2-2Z" fill="#fff" fill-rule="evenodd"/><path d="M34.9,8c1.104569,0,2-.895431,2-2s-.895431-2-2-2-2,.895431-2,2s.895431,2,2,2Z" fill="#fff" fill-rule="evenodd"/><path d="M46.9,88h8c1.104569,0,2,.895431,2,2v0c0,1.104569-.895431,2-2,2h-8c-1.104569,0-2-.895431-2-2v0c0-1.104569.895431-2,2-2Z" fill="#fff" fill-rule="evenodd"/><path d="M63.9,42.73c-.56-2.17-4-5.45-4-5.45-.88-.7-1.86-.9-2.51-.27-.641937.527456-1.339378.983474-2.08,1.36-1.68.67-3.15.36-4.06-1.37l-2.52-3.86-2.52-3.86c-1.16-1.79-.91-3,.39-4.28l2.07-1.35c1.09-.29,1-1.32.77-2.41c0,0-1.39-4.39-3.39-5.83-.80499-.664447-1.958386-.697401-2.8-.08L41.5,16.49c-5.35,3.49-4.22,9.11-.79,14.7L44,36.24l3.29,5c3.49,5.35,8.12,8.89,13.76,5.21l1.79-1.17c.889186-.512619,1.323782-1.558109,1.06-2.55Z" fill="#fff" fill-rule="evenodd"/><circle r="5.44" transform="translate(37.81 72.17)" fill="#10ff12"/><circle r="5.44" transform="translate(63.99 72.17)" fill="#f10006"/><circle r="2.16" transform="translate(50.9 72.17)" fill="#919191"/></g></g><line x1="127.45" y1="45.87" x2="158.02" y2="45.87" fill="none" stroke="#000" stroke-width="5" stroke-linecap="round" stroke-linejoin="round"/><path d="M19.35,26.67c0,0-11.81,22.35,0,39" fill="none" stroke="#000" stroke-width="2" stroke-linecap="round" stroke-linejoin="round"/><path d="M14.73,21.83c0,0-14.73,27.91,0,48.65" fill="none" stroke="#000" stroke-width="2" stroke-linecap="round" stroke-linejoin="round"/><path d="M87.23,23.67c0,0,14.74,27.92,0,48.66" fill="none" stroke="#000" stroke-width="2" stroke-linecap="round" stroke-linejoin="round"/><path d="M83.25,4.18c-2,.52-5.52,2.16-7.09,7.3-1.1,3.57-.56,6.12.47,7.82-7.58.91-15.29,4.74-15.69,4.95-3.43048,2.035286-5.217869,6.00193-4.47,9.92c1.11,5.5,6.92,5.9,9.82,5.35h.16c3.08-.92,11.74-3.31,14.77-3.14c1.548084.21419,3.059082.641577,4.49,1.27-5.079388-.042264-10.104408,1.047458-14.71,3.19l-.9.46c-1.7989.898095-3.685522,1.608511-5.63,2.12-3.86,1-6.54,2.57-8,4.68-.621161.947048-.967337,2.047889-1,3.18-.050062,1.506757.439293,2.981911,1.38,4.16c1.72,2.16,5.62,5.55,12.43,4c3.44-.77,12.76-3.74,13.16-3.86.11,0,7.4-2.56,8.85.89.479385.877241.597772,1.906849.33,2.87-.57,1.32-2.8,2.25-5.89,3.43-3.589026,1.19958-7.291798,2.027258-11.05,2.47-2.435435.324408-4.697494,1.437875-6.44,3.17-1.313997,1.210554-2.115385,2.877726-2.24,4.66v0c-.15,4.47,4.6,7.15,9.36,7.8c2.52.35,12.56-.25,17-3.27l.47-.32c1.922007-1.390037,3.947968-2.630354,6.06-3.71.690724-.216116,1.406856-.340515,2.13-.37c1.26-.07,3.4-.24,6.44-.66c2.068056-.154543,3.946098-1.263623,5.08-3c1.069324-1.372422,2.313157-2.599446,3.7-3.65.57-.45,1.25-.93,2-1.44c11.5-7.59,9.62-19.67,8.27-24.51-1.023009-3.767652-3.889141-6.758071-7.61-7.94-.102995-.044112-.210215-.077618-.32-.1-4.06-5.84-10.89-8.39-14.66-9.4-.8758-.238195-1.644555-.767156-2.18-1.5-1.252807-1.651123-2.92855-2.93298-4.85-3.71-.785259-.328424-1.52205-.762424-2.19-1.29-.329016-.300154-.624114-.635492-.88-1-.687116-.896393-1.199367-1.914111-1.51-3-.647964-2.596339-2.066883-4.935639-4.07-6.71-1.391267-1.14434-3.244825-1.556654-4.99-1.11Zm36.82,55.18c2.1-7.81.44-19.06-.48-24c2.070749,1.15064,3.591577,3.085912,4.22,5.37c1.28,4.55,2.19,12.47-3.74,18.63ZM86.45,7.44c1.56895,1.407353,2.671329,3.259769,3.16,5.31.41013,1.446877,1.088576,2.80377,2,4c.373853.506229.79949.972083,1.27,1.39.854528.695031,1.804162,1.264138,2.82,1.69c1.489214.565726,2.791268,1.53534,3.76,2.8.914219,1.282645,2.247639,2.205782,3.77,2.61c3.43.92,9.69,3.23,13.2,8.49c1.55,7,4.09,25.31-1.91,30v.05c-1.53029,1.151185-2.905056,2.495699-4.09,4-.686334,1.191176-1.936287,1.946435-3.31,2-2.92.41-5,.57-6.17.62-.961586.052465-1.912573.227205-2.83.52-1.46.45-4.27,2.34-6.8,4.07l-.47.31c-3.57,2.42-12.79,3.12-15,2.81-2.45-.35-7-1.81-6.94-4.91v0c.099965-1.072084.604063-2.065981,1.41-2.78C71.581381,69.134039,73.221513,68.285936,75,68c3.964282-.468822,7.868782-1.350267,11.65-2.63c3.28-1.24,6.39-2.43,7.47-5c.238448-.550254.370769-1.140611.39-1.74.006886-1.14184-.235414-2.271437-.71-3.31-2-4.77-8.7-3.8-12.34-2.47c0,0-9.55,3-12.87,3.79-5,1.15-8-1-9.61-3-.937561-1.142775-1.02658-2.761298-.22-4c1-1.51,3.21-2.73,6.33-3.53c2.138307-.565075,4.212619-1.349225,6.19-2.34l.9-.46c5.612414-2.622963,11.881987-3.504186,18-2.53c1,.2,2,.33,2.66-.46.353043-.457691.426034-1.072356.19-1.6-.78-1.74-8.64-5-11.7-5.23-4-.22-14.16,2.79-15.68,3.24-.65.11-5.68.8-6.48-3.15-.498873-2.716309.714938-5.461269,3.06-6.92s9.9-4.91,17.68-4.79h.11c.47,0,.93.05,1.36.1c3.849683.329384,7.667884.95795,11.42,1.88.351309.128094.739263.110325,1.077392-.049347s.59833-.447976.722608-.800653c.222787-.739218-.185867-1.52099-.92-1.76-3.917289-.982208-7.906559-1.650988-11.93-2-.45-.05-.91-.08-1.39-.1-.73-.37-3-2-1.52-6.81C80,8.66,82.25,7.35,84,6.89c.857763-.207256,1.763133-.00401,2.45.55Z"/><path d="M84,6.89c-1.72.46-4,1.77-5.13,5.41-1.47,4.82.79,6.44,1.52,6.81.48,0,.94.05,1.39.1c4.023441.349012,8.012711,1.017792,11.93,2c.737543.251412,1.134708,1.050206.89,1.79-.108435.355596-.35385.653461-.682134.827921s-.712476.211185-1.067866.102079c-3.750775-.938902-7.568992-1.584187-11.42-1.93-.43-.05-.89-.08-1.36-.1h-.07c-7.78-.12-17.65,4.79-17.68,4.79-2.345062,1.458731-3.558873,4.203691-3.06,6.92.8,4,5.83,3.26,6.48,3.15c1.52-.45,11.69-3.46,15.68-3.24c3.06.18,10.92,3.49,11.7,5.23.236034.527644.163043,1.142309-.19,1.6-.63.79-1.65.66-2.66.46-6.118013-.974186-12.387586-.092963-18,2.53l-.9.46c-1.977381.990775-4.051693,1.774925-6.19,2.34-3.12.8-5.31,2-6.33,3.53-.80658,1.238702-.717561,2.857225.22,4c1.6,2,4.57,4.17,9.61,3c3.32-.75,12.82-3.78,12.87-3.79c3.64-1.33,10.36-2.3,12.34,2.47.474586,1.038563.716886,2.16816.71,3.31-.019231.599389-.151552,1.189746-.39,1.74-1.08,2.52-4.19,3.71-7.47,5C82.928585,66.675656,78.993629,67.547111,75,68c-1.822097.243337-3.514713,1.075598-4.82,2.37-.805937.714019-1.310035,1.707916-1.41,2.78v0c-.11,3.1,4.49,4.56,6.94,4.91c2.25.31,11.47-.39,15-2.81l.47-.31c2.53-1.73,5.34-3.62,6.8-4.07.917427-.292795,1.868414-.467535,2.83-.52c1.21,0,3.25-.21,6.17-.62c1.373713-.053565,2.623666-.808824,3.31-2c1.184944-1.504301,2.55971-2.848815,4.09-4v-.05c6-4.67,3.46-22.95,1.91-30-3.51-5.26-9.77-7.57-13.2-8.49-1.522361-.404218-2.855781-1.327355-3.77-2.61-.968732-1.26466-2.270786-2.234274-3.76-2.8-1.015838-.425862-1.965472-.994969-2.82-1.69-.47051-.417917-.896147-.883771-1.27-1.39-.911424-1.19623-1.58987-2.553123-2-4-.488671-2.050231-1.59105-3.902647-3.16-5.31-.660783-.494372-1.503927-.67687-2.31-.5Z" fill="#fff"/><path d="M119.59,35.35c.92,4.95,2.58,16.2.48,24c6-6.16,5-14.08,3.74-18.64-.630806-2.280363-2.15135-4.21167-4.22-5.36Z" fill="#fff"/></svg>
