<svg width="35" height="20" viewBox="0 0 35 20" fill="none" xmlns="http://www.w3.org/2000/svg">
<path d="M9 20C13.4183 20 17 16.4183 17 12C17 7.58172 13.4183 4 9 4C4.58172 4 1 7.58172 1 12C1 16.4183 4.58172 20 9 20Z" fill="white"/>
<path d="M26 20C30.4183 20 34 16.4183 34 12C34 7.58172 30.4183 4 26 4C21.5817 4 18 7.58172 18 12C18 16.4183 21.5817 20 26 20Z" fill="white"/>
<path d="M29 15C29 16.6569 27.6569 18 26 18C24.3431 18 23 16.6569 23 15C23 13.3432 24.3431 12 26 12C27.6569 12 29 13.3432 29 15Z" fill="#030000"/>
<path d="M9 18C10.6569 18 12 16.6569 12 15C12 13.3431 10.6569 12 9 12C7.34315 12 6 13.3431 6 15C6 16.6569 7.34315 18 9 18Z" fill="#030000"/>
<path d="M0 5.0275C2.33333 2.69417 8.2 -1.4725 13 0.5275C19 3.0275 6.5 -0.472526 0 5.0275Z" fill="black"/>
<path d="M34.5856 5.0275C32.2523 2.69417 26.3856 -1.4725 21.5856 0.5275C15.5856 3.0275 28.0856 -0.472526 34.5856 5.0275Z" fill="black"/>
</svg>
