<svg width="30" height="16" viewBox="0 0 30 16" fill="none" xmlns="http://www.w3.org/2000/svg">
<path d="M11.5 9.50006C13.5 11.3334 18.8 14.8001 24 14.0001C30.5 13.0001 27.5 5 21.5 2.5" stroke="black" stroke-width="3" stroke-linecap="round"/>
<path d="M8.54044 2.19414L12.4703 5.07895C14.3039 6.42496 14.8222 8.84584 13.6257 10.4757L13.1607 11.1092C12.5021 12.0063 11.4893 12.5622 10.3107 12.6714L6.77955 13.0022C6.53473 13.026 6.29197 12.9487 6.09926 12.8073C5.69683 12.5118 5.55495 11.9645 5.83666 11.5807C5.96277 11.4089 6.16281 11.2911 6.40673 11.2683L8.27053 11.0931L2.99172 7.21803C2.65788 6.97296 2.5638 6.53355 2.78164 6.2368C2.99948 5.94005 3.44688 5.89814 3.78073 6.14321L7.10686 8.58298C7.27346 8.70457 7.49702 8.68519 7.60551 8.5374C7.714 8.38962 7.66827 8.16816 7.50133 8.04561L3.57065 5.16198C3.2368 4.91691 3.14272 4.4775 3.36056 4.18075C3.5784 3.884 4.02581 3.84209 4.35965 4.08716L8.29007 6.97115C8.45701 7.0937 8.68003 7.07364 8.789 6.9252C8.89797 6.77675 8.85024 6.55661 8.68398 6.43456L5.35875 3.99356C5.0249 3.74849 4.93082 3.30909 5.14866 3.01233C5.3665 2.71558 5.81391 2.67367 6.14775 2.91874L9.47389 5.35851C9.64083 5.48106 9.8636 5.46133 9.97257 5.31289C10.0815 5.16444 10.0338 4.94437 9.86749 4.82232L7.75143 3.26896C7.41759 3.02389 7.32351 2.58449 7.54135 2.28773C7.75919 1.99098 8.20603 1.94865 8.54044 2.19414Z" fill="black"/>
</svg>
