<svg width="17" height="20" viewBox="0 0 17 20" fill="none" xmlns="http://www.w3.org/2000/svg">
<path d="M8 20C12.4183 20 16 16.4183 16 12C16 7.58172 12.4183 4 8 4C3.58172 4 0 7.58172 0 12C0 16.4183 3.58172 20 8 20Z" fill="white"/>
<path d="M16.5856 5.0275C14.2523 2.69417 8.38563 -1.4725 3.58563 0.5275C-2.41437 3.0275 10.0856 -0.472526 16.5856 5.0275Z" fill="black"/>
<path d="M8 12C8 13.6569 6.6569 15 5 15C3.3431 15 2 13.6569 2 12C2 10.3432 3.3431 9 5 9C6.6569 9 8 10.3432 8 12Z" fill="#030000"/>
</svg>
