<svg id="ecEYLf3OHgF1" xmlns="http://www.w3.org/2000/svg" xmlns:xlink="http://www.w3.org/1999/xlink" viewBox="0 0 1910 1080" shape-rendering="geometricPrecision" text-rendering="geometricPrecision">
<style><![CDATA[
#ecEYLf3OHgF37_ts {animation: ecEYLf3OHgF37_ts__ts 4000ms linear infinite normal forwards}@keyframes ecEYLf3OHgF37_ts__ts { 0% {transform: translate(637.041429px,403.419245px) scale(1.003934,0.985544)} 50% {transform: translate(637.041429px,403.419245px) scale(1.121982,1.175067)} 100% {transform: translate(637.041429px,403.419245px) scale(0.972881,0.903221)}} #ecEYLf3OHgF38_to {animation: ecEYLf3OHgF38_to__to 4000ms linear infinite normal forwards}@keyframes ecEYLf3OHgF38_to__to { 0% {transform: translate(517.51301px,395.68988px)} 47.5% {transform: translate(544.265901px,395.68988px)} 100% {transform: translate(518.87387px,395.68988px)}} #ecEYLf3OHgF39_tr {animation: ecEYLf3OHgF39_tr__tr 4000ms linear infinite normal forwards}@keyframes ecEYLf3OHgF39_tr__tr { 0% {transform: translate(681.711809px,526.517469px) rotate(0deg)} 50% {transform: translate(681.711809px,526.517469px) rotate(12.567249deg)} 100% {transform: translate(681.711809px,526.517469px) rotate(0deg)}} #ecEYLf3OHgF41_to {animation: ecEYLf3OHgF41_to__to 4000ms linear infinite normal forwards}@keyframes ecEYLf3OHgF41_to__to { 0% {transform: translate(914.790894px,340.461609px)} 50% {transform: translate(901.908717px,340.461609px)} 100% {transform: translate(914.790894px,340.461609px)}} #ecEYLf3OHgF42_to {animation: ecEYLf3OHgF42_to__to 4000ms linear infinite normal forwards}@keyframes ecEYLf3OHgF42_to__to { 0% {transform: translate(1177.988647px,228.228543px)} 17.5% {transform: translate(1177.988647px,228.228543px)} 20% {transform: translate(1177.988647px,228.228543px)} 21.25% {transform: translate(1186.59228px,228.228543px)} 22.5% {transform: translate(1177.988647px,228.228543px)} 23.75% {transform: translate(1186.59228px,228.228543px)} 25% {transform: translate(1177.988647px,228.228543px)} 26.25% {transform: translate(1186.59228px,228.228543px)} 27.5% {transform: translate(1177.988647px,228.228543px)} 28.75% {transform: translate(1186.59228px,228.228543px)} 30% {transform: translate(1177.988647px,228.228543px)} 46% {transform: translate(1177.988647px,228.228543px)} 47.25% {transform: translate(1186.59228px,228.228543px)} 48.5% {transform: translate(1177.988647px,228.228543px)} 49.75% {transform: translate(1186.59228px,228.228543px)} 51% {transform: translate(1177.988647px,228.228543px)} 52.25% {transform: translate(1186.59228px,228.228543px)} 53.5% {transform: translate(1177.988647px,228.228543px)} 54.75% {transform: translate(1186.59228px,228.228543px)} 56% {transform: translate(1177.988647px,228.228543px)} 88.75% {transform: translate(1177.988647px,228.228543px)} 90% {transform: translate(1186.59228px,228.228543px)} 91.25% {transform: translate(1177.988647px,228.228543px)} 92.5% {transform: translate(1186.59228px,228.228543px)} 93.75% {transform: translate(1177.988647px,228.228543px)} 95% {transform: translate(1186.59228px,228.228543px)} 96.25% {transform: translate(1177.988647px,228.228543px)} 97.5% {transform: translate(1186.59228px,228.228543px)} 98.75% {transform: translate(1177.988647px,228.228543px)} 100% {transform: translate(1177.988647px,228.228543px)}} #ecEYLf3OHgF44_ts {animation: ecEYLf3OHgF44_ts__ts 4000ms linear infinite normal forwards}@keyframes ecEYLf3OHgF44_ts__ts { 0% {transform: translate(1316.336465px,403.65741px) scale(1.035716,1)} 50% {transform: translate(1316.336465px,403.65741px) scale(1.232141,1.218132)} 100% {transform: translate(1316.336465px,403.65741px) scale(1.035716,1)}} #ecEYLf3OHgF45_to {animation: ecEYLf3OHgF45_to__to 4000ms linear infinite normal forwards}@keyframes ecEYLf3OHgF45_to__to { 0% {transform: translate(1563.938107px,310.189871px)} 2.5% {transform: translate(1686.074282px,310.823234px)} 17.5% {transform: translate(1686.074282px,310.823234px)} 20% {transform: translate(1563.938107px,310.823234px)} 27.5% {transform: translate(1563.938107px,310.823234px)} 30% {transform: translate(1608.5234px,345.809586px)} 65% {transform: translate(1608.5234px,345.809586px)} 67.5% {transform: translate(1628.071717px,306.790222px)} 85% {transform: translate(1628.071717px,306.790222px)} 87.5% {transform: translate(1563.938107px,310.189871px)} 100% {transform: translate(1563.938107px,310.189871px)}} #ecEYLf3OHgF46_to {animation: ecEYLf3OHgF46_to__to 4000ms linear infinite normal forwards}@keyframes ecEYLf3OHgF46_to__to { 0% {transform: translate(1409.513059px,310.189871px)} 2.5% {transform: translate(1516.191595px,308.301216px)} 17.5% {transform: translate(1516.191595px,308.301216px)} 20% {transform: translate(1409.497926px,310.823234px)} 27.5% {transform: translate(1409.497926px,310.823234px)} 30% {transform: translate(1487.178405px,353.766623px)} 65% {transform: translate(1487.178405px,353.766623px)} 67.5% {transform: translate(1467.819021px,306.790222px)} 85% {transform: translate(1467.819021px,306.790222px)} 87.5% {transform: translate(1409.513059px,310.189871px)} 100% {transform: translate(1409.513059px,310.189871px)}} #ecEYLf3OHgF47_to {animation: ecEYLf3OHgF47_to__to 4000ms linear infinite normal forwards}@keyframes ecEYLf3OHgF47_to__to { 0% {transform: translate(409.248318px,283.167497px)} 2.5% {transform: translate(417.335096px,256.672503px)} 22.5% {transform: translate(417.335096px,256.672503px)} 25% {transform: translate(436.218984px,274.574699px)} 50% {transform: translate(436.218984px,274.574699px)} 52.5% {transform: translate(444.088135px,263.072503px)} 70% {transform: translate(444.088135px,263.072503px)} 72.5% {transform: translate(417.335096px,256.672503px)} 85% {transform: translate(417.335096px,256.672503px)} 87.5% {transform: translate(409.248318px,283.167497px)} 100% {transform: translate(409.248318px,283.167497px)}} #ecEYLf3OHgF48_to {animation: ecEYLf3OHgF48_to__to 4000ms linear infinite normal forwards}@keyframes ecEYLf3OHgF48_to__to { 0% {transform: translate(262.81755px,289.453013px)} 2.5% {transform: translate(254.999531px,263.530302px)} 22.5% {transform: translate(254.999531px,263.530302px)} 25% {transform: translate(280.764962px,275.032498px)} 50% {transform: translate(280.764962px,275.032498px)} 52.5% {transform: translate(280.764962px,263.530302px)} 70% {transform: translate(280.764962px,263.530302px)} 72.5% {transform: translate(254.999531px,263.530302px)} 85% {transform: translate(254.999531px,263.530302px)} 87.5% {transform: translate(262.81755px,289.453013px)} 100% {transform: translate(262.81755px,289.453013px)}}
]]></style>
<path d="M1040,284.43c-2.73-19.81-11.85-35.27-31.71-41.48-9.36-2.94-19.54-3.88-29.43-4.46-37.14-2.18-71.14,6.1-99.36,31.88-8.43,7.71-16.54,15.77-25,23.89l17,11.65l4.43-3.73c8.2156-6.923224,18.382626-11.117253,29.09-12c18.25-1.76,33.83,9.29,39.56,27.66.85,2.72,1.45,5.36,5,6c15.63,2.9,24.16,13.22,27.91,27.88c7.37,28.83,2.7,56.23-11.36,82-17.63,32.35-35.86,64.28-53.63,96.52-1.933901,3.646911-3.245266,7.591147-3.88,11.67-1.69,10.29-5.35,19.55-12.39,27.32-8.233882,9.235822-18.305452,16.650704-29.57,21.77-7.06,3.17-14.35,5.26-22.26,3.94-14.25-2.37-24-11.21-31.45-22.68-14.64-22.44-15.44-45.84-3.35-69.6c2.52-4.95,2.77-9.33,1.39-14.75-1.43-5.6-2.09-12-.9-17.56c3.48-16.24,12.54-30,21.87-43.4c5.58-8,11.48-15.85,17.07-23.53-5.93-.68-11.86-.6-17.34-2.13-16.34-4.57-30.11-13-34.27-30.71-4.953856-20.283075-2.448037-41.671266,7.06-60.26c5.13-10.24,13.38-16.84,25-18.66c2.43-.38,4.88-.69,7.75-1.09-.65-8.17-4.4-14.7-9.32-20.62-18.31-22-42.3-31.37-70.44-31.51-11.41-.05-19.89,5-23.89,15.46-3,7.82-5.57,16.28-5.84,24.53-1,30-1,60-1.17,90-.1,16,.14,32,.3,48c.26,26.48.15,53,1,79.43.86,26.62,3.72,53.2,3.8,79.81.09,27.43-1.66,54.91-3.59,82.29-.651442,9.766963-2.95407,19.352793-6.81,28.35-4.79694,10.600942-8.337656,21.726509-10.55,33.15-2.3,12.46-.34,15,11.95,18c.32.07.63.25,1,.29c6.32.7,8.92,4.48,9.92,10.55c2.65,16,10.34,23.13,26.25,25.14c33.54,4.24,62.87-16.73,68.05-50c2.21-14.21,1.67-28.86,2.08-43.32.32-11.74,6.25-16.85,17.73-14.3c24.09,5.35,38.62,20.67,45.91,43.85c2.57,8.19,5.42,16.59,9.85,23.84c16.74,27.37,42.22,41.7,73.38,46.58c9.26,1.45,18.13.48,25.78-6.21c10.662789-9.198149,18.308137-21.394465,21.94-35c1.4-5.07.43-9.41-4-12.29-7.54-4.88-15.27-9.48-23-14.1-.996429-.603673-2.159572-.873438-3.32-.77-9.82,1.55-16-4.07-21.39-10.93-8.61-10.95-18.36-20.78-30-28.45-9.79-6.47-13.09-15.48-11-26.15c2.081621-10.72791,5.092984-21.254295,9-31.46c8.52-21.85,18.52-43.12,26.79-65.05c9.85-26.13,17.93-52.93,27.87-79c10.65-27.95,23-55.25,33.75-83.16c4.93-12.8,9.58-26.16,11.31-39.65c2.618149-21.078719,2.426475-42.411727-.57-63.44ZM576.38,411.66c-3.76-17.59.53-34,10.48-48.93c1.28-1.92,2.62-3.45.57-6.1-11.5-14.92-26.8-20.35-45.13-15.66-24.19,6.18-42,30.47-42.24,57.37.22,2.65.33,5.32.69,8c2.58,19.26,12.86,34.06,27.6,45.88c4.81,3.86,10.47,7.63,16.31,9c14.14,3.35,27.28-.39,39.27-8.58c4-2.73,4.63-5,2.69-9.8-4.11-10.15-7.97-20.54-10.24-31.18Zm18.07-76.15c-3.26,1.74-6,4.67-8.52,7.47-.84.93-.88,3.65-.12,4.71c1.79,2.47,4.29,4.44,7,7.07c10.230274-10.36881,23.427998-17.304866,37.77-19.85-12.39-5.77-24.45-5.64-36.13.6ZM655,525c-23-9.45-45.31-7.11-66.81,4.46-17.37,9.35-33.41,21.3-53.23,26.11c2.34,8.17,6.75,12.76,12.57,12.65c8.13-.16,16.46.07,24.35-1.56c23.1-4.78,46.06-10.28,69-15.75c9.16-2.19,15.71-7.36,18.2-17.14c1.57-6.07,1.92-6.33-4.08-8.77Zm12.19,39.6c-3.215784-2.900725-6.270355-5.975326-9.15-9.21-2.44-2.85-4.89-3.09-8.36-2.08-15.8,4.58-31.6,9.19-47.55,13.21-19.72,5-39.62,9-60.2,6.1-1.231927-.003468-2.386982.598356-3.09,1.61-1.49,3.28-2.58,6.73-4.15,11c2.47,0,3.79,0,5.11,0c20.61-.51,40.91,1.06,60.27,9c1.545497.615229,3.187193.953723,4.85,1c24.51.8,45.11-8.15,62.42-25.24c1.97-1.87,1.88-3.51-.13-5.4Zm13.43-193.07c-3.56-14.39-13.2-23.5-27-28.36-29-10.17-63.5,9.48-71.28,40.81-4.8,19.35-.9,37.87,7.66,55.2c2.91,5.9,8.62,11.22,14.32,14.79c16.89,10.57,34.65,9.85,51.7.26c18.83-10.6,29.9-26.51,30.58-53.16-1.42-7.07-3.21-18.45-5.96-29.55Zm0,0c-3.56-14.39-13.2-23.5-27-28.36-29-10.17-63.5,9.48-71.28,40.81-4.8,19.35-.9,37.87,7.66,55.2c2.91,5.9,8.62,11.22,14.32,14.79c16.89,10.57,34.65,9.85,51.7.26c18.83-10.6,29.9-26.51,30.58-53.16-1.42-7.07-3.21-18.45-5.96-29.55ZM667.21,564.59c-3.215784-2.900725-6.270355-5.975326-9.15-9.21-2.44-2.85-4.89-3.09-8.36-2.08-15.8,4.58-31.6,9.19-47.55,13.21-19.72,5-39.62,9-60.2,6.1-1.231927-.003468-2.386982.598356-3.09,1.61-1.49,3.28-2.58,6.73-4.15,11c2.47,0,3.79,0,5.11,0c20.61-.51,40.91,1.06,60.27,9c1.545497.615229,3.187193.953723,4.85,1c24.51.8,45.11-8.15,62.42-25.24c1.95-1.86,1.86-3.5-.15-5.39ZM655,525c-23-9.45-45.31-7.11-66.81,4.46-17.37,9.35-33.41,21.3-53.23,26.11c2.34,8.17,6.75,12.76,12.57,12.65c8.13-.16,16.46.07,24.35-1.56c23.1-4.78,46.06-10.28,69-15.75c9.16-2.19,15.71-7.36,18.2-17.14c1.57-6.07,1.92-6.33-4.08-8.77ZM594.45,335.51c-3.26,1.74-6,4.67-8.52,7.47-.84.93-.88,3.65-.12,4.71c1.79,2.47,4.29,4.44,7,7.07c10.230274-10.36881,23.427998-17.304866,37.77-19.85-12.39-5.77-24.45-5.64-36.13.6Zm-18.07,76.15c-3.76-17.59.53-34,10.48-48.93c1.28-1.92,2.62-3.45.57-6.1-11.5-14.92-26.8-20.35-45.13-15.66-24.19,6.18-42,30.47-42.24,57.37.22,2.65.33,5.32.69,8c2.58,19.26,12.86,34.06,27.6,45.88c4.81,3.86,10.47,7.63,16.31,9c14.14,3.35,27.28-.39,39.27-8.58c4-2.73,4.63-5,2.69-9.8-4.11-10.15-7.97-20.54-10.24-31.18Zm0,0c-3.76-17.59.53-34,10.48-48.93c1.28-1.92,2.62-3.45.57-6.1-11.5-14.92-26.8-20.35-45.13-15.66-24.19,6.18-42,30.47-42.24,57.37.22,2.65.33,5.32.69,8c2.58,19.26,12.86,34.06,27.6,45.88c4.81,3.86,10.47,7.63,16.31,9c14.14,3.35,27.28-.39,39.27-8.58c4-2.73,4.63-5,2.69-9.8-4.11-10.15-7.97-20.54-10.24-31.18Zm18.07-76.15c-3.26,1.74-6,4.67-8.52,7.47-.84.93-.88,3.65-.12,4.71c1.79,2.47,4.29,4.44,7,7.07c10.230274-10.36881,23.427998-17.304866,37.77-19.85-12.39-5.77-24.45-5.64-36.13.6ZM655,525c-23-9.45-45.31-7.11-66.81,4.46-17.37,9.35-33.41,21.3-53.23,26.11c2.34,8.17,6.75,12.76,12.57,12.65c8.13-.16,16.46.07,24.35-1.56c23.1-4.78,46.06-10.28,69-15.75c9.16-2.19,15.71-7.36,18.2-17.14c1.57-6.07,1.92-6.33-4.08-8.77Zm12.19,39.6c-3.215784-2.900725-6.270355-5.975326-9.15-9.21-2.44-2.85-4.89-3.09-8.36-2.08-15.8,4.58-31.6,9.19-47.55,13.21-19.72,5-39.62,9-60.2,6.1-1.231927-.003468-2.386982.598356-3.09,1.61-1.49,3.28-2.58,6.73-4.15,11c2.47,0,3.79,0,5.11,0c20.61-.51,40.91,1.06,60.27,9c1.545497.615229,3.187193.953723,4.85,1c24.51.8,45.11-8.15,62.42-25.24c1.97-1.87,1.88-3.51-.13-5.4Zm13.43-193.07c-3.56-14.39-13.2-23.5-27-28.36-29-10.17-63.5,9.48-71.28,40.81-4.8,19.35-.9,37.87,7.66,55.2c2.91,5.9,8.62,11.22,14.32,14.79c16.89,10.57,34.65,9.85,51.7.26c18.83-10.6,29.9-26.51,30.58-53.16-1.42-7.07-3.21-18.45-5.96-29.55Zm0,0c-3.56-14.39-13.2-23.5-27-28.36-29-10.17-63.5,9.48-71.28,40.81-4.8,19.35-.9,37.87,7.66,55.2c2.91,5.9,8.62,11.22,14.32,14.79c16.89,10.57,34.65,9.85,51.7.26c18.83-10.6,29.9-26.51,30.58-53.16-1.42-7.07-3.21-18.45-5.96-29.55ZM667.21,564.59c-3.215784-2.900725-6.270355-5.975326-9.15-9.21-2.44-2.85-4.89-3.09-8.36-2.08-15.8,4.58-31.6,9.19-47.55,13.21-19.72,5-39.62,9-60.2,6.1-1.231927-.003468-2.386982.598356-3.09,1.61-1.49,3.28-2.58,6.73-4.15,11c2.47,0,3.79,0,5.11,0c20.61-.51,40.91,1.06,60.27,9c1.545497.615229,3.187193.953723,4.85,1c24.51.8,45.11-8.15,62.42-25.24c1.95-1.86,1.86-3.5-.15-5.39ZM655,525c-23-9.45-45.31-7.11-66.81,4.46-17.37,9.35-33.41,21.3-53.23,26.11c2.34,8.17,6.75,12.76,12.57,12.65c8.13-.16,16.46.07,24.35-1.56c23.1-4.78,46.06-10.28,69-15.75c9.16-2.19,15.71-7.36,18.2-17.14c1.57-6.07,1.92-6.33-4.08-8.77ZM594.45,335.51c-3.26,1.74-6,4.67-8.52,7.47-.84.93-.88,3.65-.12,4.71c1.79,2.47,4.29,4.44,7,7.07c10.230274-10.36881,23.427998-17.304866,37.77-19.85-12.39-5.77-24.45-5.64-36.13.6Zm-18.07,76.15c-3.76-17.59.53-34,10.48-48.93c1.28-1.92,2.62-3.45.57-6.1-11.5-14.92-26.8-20.35-45.13-15.66-24.19,6.18-42,30.47-42.24,57.37.22,2.65.33,5.32.69,8c2.58,19.26,12.86,34.06,27.6,45.88c4.81,3.86,10.47,7.63,16.31,9c14.14,3.35,27.28-.39,39.27-8.58c4-2.73,4.63-5,2.69-9.8-4.11-10.15-7.97-20.54-10.24-31.18Zm0,0c-3.76-17.59.53-34,10.48-48.93c1.28-1.92,2.62-3.45.57-6.1-11.5-14.92-26.8-20.35-45.13-15.66-24.19,6.18-42,30.47-42.24,57.37.22,2.65.33,5.32.69,8c2.58,19.26,12.86,34.06,27.6,45.88c4.81,3.86,10.47,7.63,16.31,9c14.14,3.35,27.28-.39,39.27-8.58c4-2.73,4.63-5,2.69-9.8-4.11-10.15-7.97-20.54-10.24-31.18Zm18.07-76.15c-3.26,1.74-6,4.67-8.52,7.47-.84.93-.88,3.65-.12,4.71c1.79,2.47,4.29,4.44,7,7.07c10.230274-10.36881,23.427998-17.304866,37.77-19.85-12.39-5.77-24.45-5.64-36.13.6ZM655,525c-23-9.45-45.31-7.11-66.81,4.46-17.37,9.35-33.41,21.3-53.23,26.11c2.34,8.17,6.75,12.76,12.57,12.65c8.13-.16,16.46.07,24.35-1.56c23.1-4.78,46.06-10.28,69-15.75c9.16-2.19,15.71-7.36,18.2-17.14c1.57-6.07,1.92-6.33-4.08-8.77Zm12.19,39.6c-3.215784-2.900725-6.270355-5.975326-9.15-9.21-2.44-2.85-4.89-3.09-8.36-2.08-15.8,4.58-31.6,9.19-47.55,13.21-19.72,5-39.62,9-60.2,6.1-1.231927-.003468-2.386982.598356-3.09,1.61-1.49,3.28-2.58,6.73-4.15,11c2.47,0,3.79,0,5.11,0c20.61-.51,40.91,1.06,60.27,9c1.545497.615229,3.187193.953723,4.85,1c24.51.8,45.11-8.15,62.42-25.24c1.97-1.87,1.88-3.51-.13-5.4Zm13.43-193.07c-3.56-14.39-13.2-23.5-27-28.36-29-10.17-63.5,9.48-71.28,40.81-4.8,19.35-.9,37.87,7.66,55.2c2.91,5.9,8.62,11.22,14.32,14.79c16.89,10.57,34.65,9.85,51.7.26c18.83-10.6,29.9-26.51,30.58-53.16-1.42-7.07-3.21-18.45-5.96-29.55Zm0,0c-3.56-14.39-13.2-23.5-27-28.36-29-10.17-63.5,9.48-71.28,40.81-4.8,19.35-.9,37.87,7.66,55.2c2.91,5.9,8.62,11.22,14.32,14.79c16.89,10.57,34.65,9.85,51.7.26c18.83-10.6,29.9-26.51,30.58-53.16-1.42-7.07-3.21-18.45-5.96-29.55ZM658.06,555.38c-2.44-2.85-4.89-3.09-8.36-2.08-15.8,4.58-31.6,9.19-47.55,13.21-19.72,5-39.62,9-60.2,6.1-1.231927-.003468-2.386982.598356-3.09,1.61-1.49,3.28-2.58,6.73-4.15,11c2.47,0,3.79,0,5.11,0c20.61-.51,40.91,1.06,60.27,9c1.545497.615229,3.187193.953723,4.85,1c24.51.8,45.11-8.15,62.42-25.24c1.95-1.92,1.86-3.56-.15-5.45-3.214157-2.881302-6.268698-5.935843-9.15-9.15ZM547.55,568.21c8.13-.16,16.46.07,24.35-1.56c23.1-4.78,46.06-10.28,69-15.75c9.16-2.19,15.71-7.36,18.2-17.14c1.54-6.06,1.87-6.32-4.09-8.77-23-9.45-45.31-7.11-66.81,4.46-17.37,9.35-33.41,21.3-53.23,26.11c2.35,8.17,6.76,12.76,12.58,12.65Zm45.22-213.45c10.230274-10.36881,23.427998-17.304866,37.77-19.85-12.35-5.77-24.41-5.64-36.09.6-3.26,1.74-6,4.67-8.52,7.47-.84.93-.88,3.65-.12,4.71c1.79,2.47,4.29,4.44,6.96,7.07Zm-8.84,97.84c4-2.73,4.63-5,2.69-9.8-4.11-10.11-8-20.5-10.24-31.14-3.76-17.59.53-34,10.48-48.93c1.28-1.92,2.62-3.45.57-6.1-11.5-14.92-26.8-20.35-45.13-15.66-24.19,6.18-42,30.47-42.24,57.37.22,2.65.33,5.32.69,8c2.58,19.26,12.86,34.06,27.6,45.88c4.81,3.86,10.47,7.63,16.31,9c14.14,3.31,27.28-.43,39.27-8.62ZM725.47,567.43c-.75-26.78-3.15-53.52-4.25-80.3-.72-17.3-.46-34.65-.48-52q-.06-40.48.1-81c.06-21.47,1.1-43-2.87-64.27-3.69-19.72-13.41-35.24-32.7-42.82-21.13-8.3-43.33-8.62-65.45-5.91-14,1.73-23.44,10.73-30.05,23.1-8.79,16.43-18.07,32.6-27.19,48.85-1.011329,1.597486-2.116607,3.133521-3.31,4.6l-1.24-.38c0-1.9.1-3.81,0-5.71-.5-7.77.12-15.86-1.86-23.24-4.34-16.16-15.85-27.17-29.89-35.31-17.38-10.08-36.08-15.26-56.41-12.58-2.83.37-5.86.52-5.17,4.87c3.36,21.1-3.79,37.94-20.83,50.63-2.31,1.71-2.48,3.37-1.59,6c5.62,16.61,7.06,33.81,6.64,51.21-.32,13.47-4.26,25.53-14.27,35.12-1.037186,1.048568-1.778886,2.352581-2.15,3.78-1.93,7.4-3.89,14.79-5.45,22.27-1.78,8.59.59,13.37,8.34,17.77c6.53,3.7,11.9,8.52,15.43,15.23c4.4,8.37,3.44,13.21-3.82,19.23-1.8,1.48-3.74,2.79-5.58,4.22-3.76,2.89-5,6.45-3,11c2.802959,5.838811,2.386862,12.711971-1.1,18.17-2.59,4.25-2.38,7.74.1,12c6.29,10.85,9.87,22.41,8.21,35.27s-7.24,23.78-14.86,33.85c-2.451713,2.910754-3.29851,6.848732-2.26,10.51.76,3.38.43,8.11-1.48,10.77-5.13,7.17-3.95,11.91,1.64,18.13s10.95,13.25,11.65,22.17c.416367,6.732465,3.64667,12.978927,8.9,17.21c4.46,3.76,9.1,7.3,13.72,10.85c9.51,7.29,19.26,14.29,28.53,21.88c6.412515,5.172224,10.994194,12.267342,13.07,20.24c4.86,18.3.56,34.31-12.09,48.06-4.56,5-9.93,9.15-14.92,13.69.09.45.19.91.28,1.36c8.41-.82,16.95-.94,25.18-2.61c15.69-3.19,27-12.93,35.84-26c7.48-11.06,17.54-10.79,24.44.64c2.343882,4.022809,4.392601,8.210484,6.13,12.53c2.09,5,5.74,8.07,10.89,8.31c6.77.32,13.87.92,20.32-.66c44.32-10.85,80.1-35.08,108.1-70.91c6.11-7.82,10.43-16.74,11.67-26.72c1.67-13.36,3.54-26.75,4.12-40.18.91-20.95,1.56-41.97.97-62.92Zm-73.65-50.19c.74,5.9,7.93,4.91,11.61,8c6.73,5.65,13.91,10.84,20.17,17c5.83,5.7,5.69,10.41,0,16-8.75,8.65-17.71,17.13-27.11,25.06-3.368146,2.634353-5.545845,6.503819-6.05,10.75-4.94,32.63-16.33,62.66-36.58,89-8.86,11.49-20.13,18.73-34.86,19.88-12.19,1-17-3.29-17-15.53.118487-11.667829-1.873552-23.260956-5.88-34.22-7.2-19.23-8-39-3.7-58.95c1.08-5-.49-5.91-4.8-5.68-9.64.52-19.29.92-28.94,1.27-1.806986-.048243-3.608226-.225359-5.39-.53-.09-.61-.17-1.22-.26-1.83c1.34-.86,2.67-1.75,4-2.57c6-3.59,6.69-6,2.08-11.42-3.75-4.4-8.33-8.1-12.41-12.23-1.195404-1.407716-2.266105-2.916735-3.2-4.51c1.66-.5,3.33-1.45,5-1.43c20.38.19,39-5.94,56.49-15.85c2.27-1.29,4.8-3.64,5.47-6c6.26-22.11,5.2-44.32.24-67.09-2.36.41-4.42.72-6.47,1.12-19.68,3.79-35.59-4.1-48.37-17.75-23-24.52-31.17-64.37-6-94.64c15.12-18.22,40.41-26.89,59.81-18.88c7,2.89,10.88,3.33,16.94-2.7c11.81-11.75,36-12,51-2.72c3.338351,2.088927,6.987064,3.63482,10.81,4.58c21.4,5.06,34.85,17.89,39.24,39.63c1.58,7.8,3.13,15.65,4,23.55c2.06,19.24-3.9,35.83-17.86,49.29-3.481925,3.298315-5.960556,7.513721-7.15,12.16-3.86,13.93-8.29,27.7-12.5,41.54-.130442.30473-.23742.618977-.32.94-.77,4.95-2.6,10.01-2.01,14.76Zm34.76-116.18c-1.4-7.11-3.19-18.44-5.94-29.54-3.56-14.39-13.2-23.5-27-28.36-29-10.17-63.5,9.48-71.28,40.81-4.8,19.35-.9,37.87,7.66,55.2c2.91,5.9,8.62,11.22,14.32,14.79c16.89,10.57,34.65,9.85,51.7.26c18.79-10.6,29.86-26.51,30.54-53.16ZM649.7,553.3c-15.8,4.58-31.6,9.19-47.55,13.21-19.72,5-39.62,9-60.2,6.1-1.231927-.003468-2.386982.598356-3.09,1.61-1.49,3.28-2.58,6.73-4.15,11c2.47,0,3.79,0,5.11,0c20.61-.51,40.91,1.06,60.27,9c1.545497.615229,3.187193.953723,4.85,1c24.51.8,45.11-8.15,62.42-25.24c1.95-1.92,1.86-3.56-.15-5.45-3.215784-2.900725-6.270355-5.975326-9.15-9.21-2.44-2.79-4.89-3.03-8.36-2.02Zm-61.49-23.85c-17.37,9.35-33.41,21.3-53.23,26.11c2.34,8.17,6.75,12.76,12.57,12.65c8.13-.16,16.46.07,24.35-1.56c23.1-4.78,46.06-10.28,69-15.75c9.16-2.19,15.71-7.36,18.2-17.14c1.54-6.06,1.87-6.32-4.09-8.77-23.01-9.45-45.3-7.11-66.8,4.46Zm4.56-174.69c10.230274-10.36881,23.427998-17.304866,37.77-19.85-12.35-5.77-24.41-5.64-36.09.6-3.26,1.74-6,4.67-8.52,7.47-.84.93-.88,3.65-.12,4.71c1.79,2.47,4.29,4.44,6.96,7.07Zm-6.15,88c-4.11-10.11-8-20.5-10.24-31.14-3.76-17.59.53-34,10.48-48.93c1.28-1.92,2.62-3.45.57-6.1-11.5-14.92-26.8-20.35-45.13-15.66-24.19,6.18-42,30.47-42.24,57.37.22,2.65.33,5.32.69,8c2.58,19.26,12.86,34.06,27.6,45.88c4.81,3.86,10.47,7.63,16.31,9c14.14,3.35,27.28-.39,39.27-8.58c3.98-2.73,4.63-5.03,2.69-9.8Zm-10.24-31.14c-3.76-17.59.53-34,10.48-48.93c1.28-1.92,2.62-3.45.57-6.1-11.5-14.92-26.8-20.35-45.13-15.66-24.19,6.18-42,30.47-42.24,57.37.22,2.65.33,5.32.69,8c2.58,19.26,12.86,34.06,27.6,45.88c4.81,3.86,10.47,7.63,16.31,9c14.14,3.35,27.28-.39,39.27-8.58c4-2.73,4.63-5,2.69-9.8-4.11-10.11-7.97-20.5-10.24-31.14Zm18.07-76.15c-3.26,1.74-6,4.67-8.52,7.47-.84.93-.88,3.65-.12,4.71c1.79,2.47,4.29,4.44,7,7.07c10.230274-10.36881,23.427998-17.304866,37.77-19.85-12.39-5.73-24.45-5.6-36.13.64ZM655,525c-23-9.45-45.31-7.11-66.81,4.46-17.37,9.35-33.41,21.3-53.23,26.11c2.34,8.17,6.75,12.76,12.57,12.65c8.13-.16,16.46.07,24.35-1.56c23.1-4.78,46.06-10.28,69-15.75c9.16-2.19,15.71-7.36,18.2-17.14c1.57-6.07,1.92-6.33-4.08-8.77Zm12.19,39.6c-3.215784-2.900725-6.270355-5.975326-9.15-9.21-2.44-2.85-4.89-3.09-8.36-2.08-15.8,4.58-31.6,9.19-47.55,13.21-19.72,5-39.62,9-60.2,6.1-1.231927-.003468-2.386982.598356-3.09,1.61-1.49,3.28-2.58,6.73-4.15,11c2.47,0,3.79,0,5.11,0c20.61-.51,40.91,1.06,60.27,9c1.545497.615229,3.187193.953723,4.85,1c24.51.8,45.11-8.15,62.42-25.24c1.97-1.87,1.88-3.51-.13-5.4Zm13.43-193.07c-3.56-14.39-13.2-23.5-27-28.36-29-10.17-63.5,9.48-71.28,40.81-4.8,19.35-.9,37.87,7.66,55.2c2.91,5.9,8.62,11.22,14.32,14.79c16.89,10.57,34.65,9.85,51.7.26c18.83-10.6,29.9-26.51,30.58-53.16-1.42-7.07-3.21-18.45-5.96-29.55Zm0,0c-3.56-14.39-13.2-23.5-27-28.36-29-10.17-63.5,9.48-71.28,40.81-4.8,19.35-.9,37.87,7.66,55.2c2.91,5.9,8.62,11.22,14.32,14.79c16.89,10.57,34.65,9.85,51.7.26c18.83-10.6,29.9-26.51,30.58-53.16-1.42-7.07-3.21-18.45-5.96-29.55ZM667.21,564.59c-3.215784-2.900725-6.270355-5.975326-9.15-9.21-2.44-2.85-4.89-3.09-8.36-2.08-15.8,4.58-31.6,9.19-47.55,13.21-19.72,5-39.62,9-60.2,6.1-1.231927-.003468-2.386982.598356-3.09,1.61-1.49,3.28-2.58,6.73-4.15,11c2.47,0,3.79,0,5.11,0c20.61-.51,40.91,1.06,60.27,9c1.545497.615229,3.187193.953723,4.85,1c24.51.8,45.11-8.15,62.42-25.24c1.95-1.86,1.86-3.5-.15-5.39ZM655,525c-23-9.45-45.31-7.11-66.81,4.46-17.37,9.35-33.41,21.3-53.23,26.11c2.34,8.17,6.75,12.76,12.57,12.65c8.13-.16,16.46.07,24.35-1.56c23.1-4.78,46.06-10.28,69-15.75c9.16-2.19,15.71-7.36,18.2-17.14c1.57-6.07,1.92-6.33-4.08-8.77ZM594.45,335.51c-3.26,1.74-6,4.67-8.52,7.47-.84.93-.88,3.65-.12,4.71c1.79,2.47,4.29,4.44,7,7.07c10.230274-10.36881,23.427998-17.304866,37.77-19.85-12.39-5.77-24.45-5.64-36.13.6Zm-18.07,76.15c-3.76-17.59.53-34,10.48-48.93c1.28-1.92,2.62-3.45.57-6.1-11.5-14.92-26.8-20.35-45.13-15.66-24.19,6.18-42,30.47-42.24,57.37.22,2.65.33,5.32.69,8c2.58,19.26,12.86,34.06,27.6,45.88c4.81,3.86,10.47,7.63,16.31,9c14.14,3.35,27.28-.39,39.27-8.58c4-2.73,4.63-5,2.69-9.8-4.11-10.15-7.97-20.54-10.24-31.18Zm0,0c-3.76-17.59.53-34,10.48-48.93c1.28-1.92,2.62-3.45.57-6.1-11.5-14.92-26.8-20.35-45.13-15.66-24.19,6.18-42,30.47-42.24,57.37.22,2.65.33,5.32.69,8c2.58,19.26,12.86,34.06,27.6,45.88c4.81,3.86,10.47,7.63,16.31,9c14.14,3.35,27.28-.39,39.27-8.58c4-2.73,4.63-5,2.69-9.8-4.11-10.15-7.97-20.54-10.24-31.18Zm18.07-76.15c-3.26,1.74-6,4.67-8.52,7.47-.84.93-.88,3.65-.12,4.71c1.79,2.47,4.29,4.44,7,7.07c10.230274-10.36881,23.427998-17.304866,37.77-19.85-12.39-5.77-24.45-5.64-36.13.6ZM655,525c-23-9.45-45.31-7.11-66.81,4.46-17.37,9.35-33.41,21.3-53.23,26.11c2.34,8.17,6.75,12.76,12.57,12.65c8.13-.16,16.46.07,24.35-1.56c23.1-4.78,46.06-10.28,69-15.75c9.16-2.19,15.71-7.36,18.2-17.14c1.57-6.07,1.92-6.33-4.08-8.77Zm12.19,39.6c-3.215784-2.900725-6.270355-5.975326-9.15-9.21-2.44-2.85-4.89-3.09-8.36-2.08-15.8,4.58-31.6,9.19-47.55,13.21-19.72,5-39.62,9-60.2,6.1-1.231927-.003468-2.386982.598356-3.09,1.61-1.49,3.28-2.58,6.73-4.15,11c2.47,0,3.79,0,5.11,0c20.61-.51,40.91,1.06,60.27,9c1.545497.615229,3.187193.953723,4.85,1c24.51.8,45.11-8.15,62.42-25.24c1.97-1.87,1.88-3.51-.13-5.4Zm13.43-193.07c-3.56-14.39-13.2-23.5-27-28.36-29-10.17-63.5,9.48-71.28,40.81-4.8,19.35-.9,37.87,7.66,55.2c2.91,5.9,8.62,11.22,14.32,14.79c16.89,10.57,34.65,9.85,51.7.26c18.83-10.6,29.9-26.51,30.58-53.16-1.42-7.07-3.21-18.45-5.96-29.55Zm0,0c-3.56-14.39-13.2-23.5-27-28.36-29-10.17-63.5,9.48-71.28,40.81-4.8,19.35-.9,37.87,7.66,55.2c2.91,5.9,8.62,11.22,14.32,14.79c16.89,10.57,34.65,9.85,51.7.26c18.83-10.6,29.9-26.51,30.58-53.16-1.42-7.07-3.21-18.45-5.96-29.55ZM667.21,564.59c-3.215784-2.900725-6.270355-5.975326-9.15-9.21-2.44-2.85-4.89-3.09-8.36-2.08-15.8,4.58-31.6,9.19-47.55,13.21-19.72,5-39.62,9-60.2,6.1-1.231927-.003468-2.386982.598356-3.09,1.61-1.49,3.28-2.58,6.73-4.15,11c2.47,0,3.79,0,5.11,0c20.61-.51,40.91,1.06,60.27,9c1.545497.615229,3.187193.953723,4.85,1c24.51.8,45.11-8.15,62.42-25.24c1.95-1.86,1.86-3.5-.15-5.39ZM655,525c-23-9.45-45.31-7.11-66.81,4.46-17.37,9.35-33.41,21.3-53.23,26.11c2.34,8.17,6.75,12.76,12.57,12.65c8.13-.16,16.46.07,24.35-1.56c23.1-4.78,46.06-10.28,69-15.75c9.16-2.19,15.71-7.36,18.2-17.14c1.57-6.07,1.92-6.33-4.08-8.77ZM594.45,335.51c-3.26,1.74-6,4.67-8.52,7.47-.84.93-.88,3.65-.12,4.71c1.79,2.47,4.29,4.44,7,7.07c10.230274-10.36881,23.427998-17.304866,37.77-19.85-12.39-5.77-24.45-5.64-36.13.6Zm-18.07,76.15c-3.76-17.59.53-34,10.48-48.93c1.28-1.92,2.62-3.45.57-6.1-11.5-14.92-26.8-20.35-45.13-15.66-24.19,6.18-42,30.47-42.24,57.37.22,2.65.33,5.32.69,8c2.58,19.26,12.86,34.06,27.6,45.88c4.81,3.86,10.47,7.63,16.31,9c14.14,3.35,27.28-.39,39.27-8.58c4-2.73,4.63-5,2.69-9.8-4.11-10.15-7.97-20.54-10.24-31.18ZM326.28,530.29c12.57-3.11,25.38-4.27,38.17-2.24c18.79,3,36.38.45,51.71-11.07c6.325412-4.845637,11.823401-10.684717,16.28-17.29c6.78-9.95,3.52-19.24-7.23-24.68-6.55-3.31-13.39-2.9-20.47-2.64-9.06.34-18.19-.18-27.26-.74-6-.36-11.86-1.79-17.83-2.14-22-1.28-43,3.17-63.23,11.78-2.76,1.17-5.74,2.83-8.18-.26-2.64-3.36.42-5.61,2.23-7.74c19-22.17,41.95-35.66,73.58-32.89c14.63.78,25.78-.77,35.8-5.71c18.43-9.09,20.61-16.84,9.68-35.36-5-8.52-13.07-12.17-23.29-11.48-10.950858.86118-21.940853,1.118236-32.92.77-11.89-.52-24,0-35.43-4.73-1-.42-2.79.44-4,1.09-7.77,4.17-15.49,8.43-23.22,12.68-9.34,5.13-18.64,10.32-28,15.32-1,.54-2.6,0-3.92,0c.509513-1.188781,1.146578-2.318734,1.9-3.37.771795-.628265,1.644029-1.121855,2.58-1.46q22.82-12.37,45.64-24.75c9.48-5.13,10.91-7.63,9.56-18.25-.377743-3.116545-1.245084-6.153926-2.57-9-5.39-11.26-14.2-19.23-25.36-24.51-10.42-4.92-21.79.94-24.27,12.28-1.45,6.67-2.85,13.35-4.06,20.06-2.51,13.95-6.38,27.07-17.19,37.39-3.27,3.13-5.47,8.14-6.52,12.67-2,8.48-6.68,13.9-14,18.33-18.93,11.46-33.91,26.79-43,47.3-1.22867,2.527403-1.802902,5.322914-1.67,8.13c2,17.68,3.38,35.49,6.68,52.94c4.25,22.37,12,43.59,26.25,62c4.39,5.68,9.19,10.37,16.66,11.75c3.09199.694365,6.055079,1.872176,8.78,3.49c15.31,8.47,31.71,10.12,48.45,6.76c12.56-2.52,24.27-2.35,36.63,2c18,6.28,37,6.8,55.77,3.49c17.41-3.07,32.71-10.31,42.55-26c4.8-7.66,4.05-15-2.35-21.32-8.59-8.49-19-12.08-31-10.17-10.52,1.67-21,3.77-31.5,5.31-12.9,1.89-25.87,3-38.7-.49-16.12-4.37-21.73-21.8-11.19-34.75c4.919824-6.210684,11.765942-10.608242,19.46-12.5ZM486.06,694.18c-7.2-5.39-14.32-10.88-21.46-16.35-6.08-4.65-12.3-9.14-18.15-14.06-6.32-5.31-10.33-11.95-11.09-20.52-.402818-3.446763-1.545553-6.765812-3.35-9.73-2.89-4.85-6.58-9.21-9.72-13.91-2.39-3.6-4.43-4.06-7.83-.86-7.4,7-16.4,11.21-26.22,13.83-21.987341,6.032444-45.274946,5.3639-66.88-1.92-11-3.68-21.38-3.86-32.62-1.67-17.916214,3.672839-36.545629,1.265865-52.94-6.84-9.7-4.68-20.67-7.26-31.35-9.23-8.7-1.61-15.75-4.86-21.38-11.48-3-3.54-6-7.11-9.72-11.6-.86,2.76-1.49,4.44-1.91,6.16-4.26,17.22-1.95,34.33.39,51.54c2.89,21.23,5.26,42.54,7.61,63.84c1.58,14.38,2.3,28.87,4.26,43.19c1.51,11.09,6.5,21.09,18.27,23.94c20,4.86,39.27,2.83,55-12.2c12.4-11.87,17.93-27.56,21-43.91c3.27-17.64,5.34-35.5,8-53.24c1-6.43,2-7.11,8.51-6.9q21,.68,41.94,1.35c24.29.75,38.94,12.17,46.05,35.35c2.58,8.41,5.87,16.61,9.09,24.8c4.63,11.74,9.36,23.44,14.29,35.06c4.84,11.41,11.82,20.94,25.5,21.58c24.25,1.14,44.85-7.12,60.5-26c13.86-16.76,14.08-45.33-5.79-60.22ZM1546.33,268.59c.7818-2.106708.710037-4.435429-.2-6.49-15.19-29.18-53.11-47.44-85.36-41.32-42.49,8.06-72.1,44.12-72,87.69.046337,21.701856,7.78465,42.684589,21.84,59.22c36.68,43.24,105.17,37.81,134.29-10.79c1.42-2.36,2.26-6.31,1.29-8.66-11.05-26.64-10.99-53.08.14-79.65Zm165,22.24c-7.14-40.27-43.12-71.11-83.43-71.11-.09-.4.08.41,0,0-9.37,2.07-19.33,2-28.29,5.16-35.66,12.72-58,47.36-56.27,87.36c1.5,36,18.63,62.06,51.17,77.8c5.74,2.77,7.37,2.1,11.27-3.1c3.68-4.91,7.26-10,11.65-14.26c13-12.6,26.41-13.47,41.55-3.55c4.57946,3.000902,9.345819,5.706404,14.27,8.1c4.2,2,8.15.9,11.28-2.62c21.35-23.96,32.62-51.05,26.83-83.78ZM441.29,317.56c-1.21-5.74-2.85-11.38-4.38-17.41-16.26,6.86-31,5.54-44.78-3.43-16.11-10.54-23.2-26.08-22.91-45.05.07-4.44-1-6.31-5.77-6.32-6.14,0-12.27-1-18.41-1.22-12.656174-.653529-25.338572.603923-37.62,3.73-2.71.72-5.15,1.31-4.82,5.53.443089,5.429148.167373,10.893035-.82,16.25-3.66,19.41-22.13,41.22-51.24,38.78-4-.33-6,.89-7.42,4.67-3.07,8.08-6.65,16-10,23.92-8.68,20.42-14.42,41.52-13.47,63.9.36,8.68,2,17.31,3.1,26.69c5.93-2.37,9.1-5.74,10.2-10.75c1.90096-8.668736,6.217422-16.62212,12.45-22.94c5.153988-5.266738,8.609575-11.958455,9.92-19.21c1.92-10.29,4.11-20.52,6.4-30.73c3.84-17.08,20.68-24,35-14c7,4.91,13.24,11,20.27,17c1.09-1.4,2.43-3.29,4-5c6.33-7.16,14.09-9.63,23.4-7.07c7.05,1.94,12.38,6.27,16.78,11.92c7.53,9.64,11.58,20.95,14.89,32.46c1.25,4.33,2.91,5.09,7,4.31c9.23-1.76,17.73.43,24.47,7s5.74,5.14,13.09,1.45c13.27-6.68,21.33-17,22.79-32.24c1.457893-14.105558.742908-28.351301-2.12-42.24ZM1718.9,657.33c-.84-1.28-2.52-3.08-3.6-3-5.85.73-12.62.41-17.26,3.34-18.33,11.56-38,15.44-59.18,13.12-15-1.65-29.78-2.77-44.28,2.86-3.606045,1.268114-7.326902,2.18242-11.11,2.73-6,1-6.21,1.37-3.33,6.81c13.48,25.44,26.8,51,40.52,76.27c4.43,8.15,9,16.46,15.07,23.43c16.37,19,44.38,20.17,63,3.36c9.58-8.66,14.74-20,18.33-32.11c6.44-21.76,7.69-44.16,8-66.67c0-3.16-.07-6.33,0-9.5.145779-7.35356-2.007724-14.569193-6.16-20.64ZM1229.71,193.7c-10.174766-1.66683-19.288506-7.261473-25.38-15.58-7.189683-9.939693-13.627561-20.40208-19.26-31.3-6-11.57-5.77-12-18.76-9.46-.65.13-1.28.35-1.93.52-29.2,7.65-48.16,39.39-41.64,69.73c5.89,27.45,28.17,46.44,54.73,46.64c29.57.24,54.73-23.73,57-54.08.34-4.01-.89-5.77-4.76-6.47ZM942,345.25c-.3-5.49-.51-11-.91-16.46-1.62-22.54-19.49-36.63-40.78-32.23-23.37,4.84-39.33,25-39.09,49.38.24,25.9,15.25,44.37,39.73,48.91c20.77,3.86,35-5.51,39.1-26.27c1.5-7.63,1.74-15.51,2.55-23.28ZM255.61,212.4c-25.5-.08-44.39,19.32-44.57,45.77-.16,25,19.27,45.9,42.92,46.09c24.94.2,45-20.13,45-45.71s-19.09-46.08-43.35-46.15Zm162-4.17c-24.37-.1-44.19,20.52-44.21,46c0,24.41,19.83,45.6,43,45.86c24.58.28,44.85-20.49,44.89-46s-19.42-45.76-43.69-45.86ZM867,379.64c-3.21-5.79-6.63-11.65-8.58-17.91-5.16-16.58-1.87-32.24,6.94-46.91c1.27-2.11,2.27-3.71.06-6.1-18.59-20.17-49.16-14.83-59.19,10.43-4.71,11.88-5.12,24.3-5,36.86.15,24,17,41,41.29,41.26c9.117214.073292,17.824831-3.781376,23.9-10.58c2.1-2.38,2.15-4.23.58-7.05Zm863-62c-.5-9.88-5.29-18.1-12.63-26.43.17,3.08.37,4.73.34,6.37-.21,8.94.45,18-.91,26.79-3,19.62-13.11,36.06-25.61,51.13-7.77,9.37-14.32,10.65-24.9,4.8-3.37-1.86-6.67-3.85-11.1-6.42c7.71,18.57,4.88,38.66,15.85,55.45c7.85-8.2,9.92-9.7,21.23-13.39c14.39-4.69,23.77-14.28,28.49-28.46c7.425462-22.506508,10.559745-46.206977,9.24-69.87Zm-422.1,20.64c-4.25-19.6-23-33.43-42.21-31.23-20.241548,2.414933-35.42903,19.665604-35.26,40.05.18,18.47,11.16,34.32,27.43,39.59c6.11,2,6.93,1.61,9.23-4.33c6.59-17,18.22-28.74,35.67-34.51c6.01-2.01,6.56-3.12,5.15-9.6ZM430.45,510.48c-.566299.277432-1.10247.612539-1.6,1-9.89,10.32-21.46,17.74-35.49,21.2-1.22.3-2.69,2.81-2.71,4.31-.12,8.82.2,17.64.29,26.46c0,2.54.77,4.11,3.63,4.2c11.286548.124733,21.987306,5.044245,29.43,13.53c20.42-21.85,22.45-50.08,6.45-70.7ZM175.52,490.1c-8.65,5.89-13.81,13.15-15.14,22.74-4.29,31,3.67,58.48,23.27,82.92c7.44,9.28,16.68,13.1,29.07,13.14-27.94-34.84-33.72-76.18-37.2-118.8Zm267.5-45c-7.19-6.1-15.02-11.41-22.82-16.8-.89-.62-3.37-.27-4.19.55-9.81,9.73-21.9,14.21-35.31,15.61-3.35.35-4.07,1.58-2.72,4.51c1.6,3.47,3.17,7,4.61,10.5c4.23,10.38,2.27,10.43,16.18,9.3.165323-.022706.329-.05611.49-.1c9.82-1.77,19.5-2.22,28.69,2.76.8.43,2.22.78,2.79.37c5.65-4.06,11.23-8.23,16.69-12.54.75-.59.77-2.1,1.52-4.39-1.7-2.87-3.01-7.28-5.95-9.76Zm447.7,116.66c-.48-2.87-2.17-5.54-3.38-8.27-1.47-3.3-3.83-3.79-6.93-2.22-4,2-7.89,4.45-12.11,5.86-16.22,5.39-32.54,10.45-49.57,15.87c7.34,8.84,15.49,17.09,28.31,17.37c17.73.38,30.69-9.56,42.5-21.21c1.46-1.43,1.58-5,1.18-7.39Zm862.33-6.55c-.83-6.85-3.69-13.07-10.2-18.7-3.29,39.94-9.78,77.94-32.47,111.6c5.982495.329859,11.774263-2.160786,15.65-6.73c22.3-24.53,30.97-53.44,27.02-86.16ZM914.73,431.6c-.139477-2.15605-.420078-4.300644-.84-6.42-1.65-8.55-1.7-8.6-9.88-5.74-18.79,6.56-35,17.23-50.49,31.66c2.52,0,3.66.1,4.77,0c14.55-1.5,29.09-3,43.64-4.55c10-1.04,13.43-4.97,12.8-14.95Zm309.35-168l28.39,12.76c.51-8.26.94-15.29,1.43-23.27-10.33,3.42-20.6,4.21-29.82,10.47ZM308.34,460.38L293.22,477c13.56-2.54,16.17-5.2,15.12-16.62Zm1274.19,23.48c1.63,10.41,9.94,13.68,18.55,7.28ZM417.74,398.8c-1,.68-2.09,2.73-1.78,3.73c1.24,3.9,3,7.62,4.67,11.6c1.6-6.38,3.11-12.43,4.73-18.9-2.92,1.31-5.46,2.15-7.62,3.57ZM175.52,490.1c-8.65,5.89-13.81,13.15-15.14,22.74-4.29,31,3.67,58.48,23.27,82.92c7.44,9.28,16.68,13.1,29.07,13.14-27.94-34.84-33.72-76.18-37.2-118.8Zm80.09-277.7c-25.5-.08-44.39,19.32-44.57,45.77-.16,25,19.27,45.9,42.92,46.09c24.94.2,45-20.13,45-45.71s-19.09-46.08-43.35-46.15Zm52.73,248L293.22,477c13.56-2.54,16.17-5.2,15.12-16.62Zm122.11,50.1c-.566299.277432-1.10247.612539-1.6,1-9.89,10.32-21.46,17.74-35.49,21.2-1.22.3-2.69,2.81-2.71,4.31-.12,8.82.2,17.64.29,26.46c0,2.54.77,4.11,3.63,4.2c11.283417.119664,21.983672,5.031674,29.43,13.51c20.42-21.85,22.45-50.08,6.45-70.7ZM326.28,530.29c12.57-3.11,25.38-4.27,38.17-2.24c18.79,3,36.38.45,51.71-11.07c6.325412-4.845637,11.823401-10.684717,16.28-17.29c6.78-9.95,3.52-19.24-7.23-24.68-6.55-3.31-13.39-2.9-20.47-2.64-9.06.34-18.19-.18-27.26-.74-6-.36-11.86-1.79-17.83-2.14-22-1.28-43,3.17-63.23,11.78-2.76,1.17-5.74,2.83-8.18-.26-2.64-3.36.42-5.61,2.23-7.74c19-22.17,41.95-35.66,73.58-32.89c14.63.78,25.78-.77,35.8-5.71c18.43-9.09,20.61-16.84,9.68-35.36-5-8.52-13.07-12.17-23.29-11.48-10.950858.86118-21.940853,1.118236-32.92.77-11.89-.52-24,0-35.43-4.73-1-.42-2.79.44-4,1.09-7.77,4.17-15.49,8.43-23.22,12.68-9.34,5.13-18.64,10.32-28,15.32-1,.54-2.6,0-3.92,0c.509513-1.188781,1.146578-2.318734,1.9-3.37.771795-.628265,1.644029-1.121855,2.58-1.46q22.82-12.37,45.64-24.75c9.48-5.13,10.91-7.63,9.56-18.25-.377743-3.116545-1.245084-6.153926-2.57-9-5.39-11.26-14.2-19.23-25.36-24.51-10.42-4.92-21.79.94-24.27,12.28-1.45,6.67-2.85,13.35-4.06,20.06-2.51,13.95-6.38,27.07-17.19,37.39-3.27,3.13-5.47,8.14-6.52,12.67-2,8.48-6.68,13.9-14,18.33-18.93,11.46-33.91,26.79-43,47.3-1.22867,2.527403-1.802902,5.322914-1.67,8.13c2,17.68,3.38,35.49,6.68,52.94c4.25,22.37,12,43.59,26.25,62c4.39,5.68,9.19,10.37,16.66,11.75c3.09199.694365,6.055079,1.872176,8.78,3.49c15.31,8.47,31.71,10.12,48.45,6.76c12.56-2.52,24.27-2.35,36.63,2c18,6.28,37,6.8,55.77,3.49c17.41-3.07,32.71-10.31,42.55-26c4.8-7.66,4.05-15-2.35-21.32-8.59-8.49-19-12.08-31-10.17-10.52,1.67-21,3.77-31.5,5.31-12.9,1.89-25.87,3-38.7-.49-16.12-4.37-21.73-21.8-11.19-34.75c4.919824-6.210684,11.765942-10.608242,19.46-12.5Zm115-212.73c-1.21-5.74-2.85-11.38-4.38-17.41-16.26,6.86-31,5.54-44.78-3.43-16.11-10.54-23.2-26.08-22.91-45.05.07-4.44-1-6.31-5.77-6.32-6.14,0-12.27-1-18.41-1.22-12.656174-.653529-25.338572.603923-37.62,3.73-2.71.72-5.15,1.31-4.82,5.53.443089,5.429148.167373,10.893035-.82,16.25-3.66,19.41-22.13,41.22-51.24,38.78-4-.33-6,.89-7.42,4.67-3.07,8.08-6.65,16-10,23.92-8.68,20.42-14.42,41.52-13.47,63.9.36,8.68,2,17.31,3.1,26.69c5.93-2.37,9.1-5.74,10.2-10.75c1.90096-8.668736,6.217422-16.62212,12.45-22.94c5.153988-5.266738,8.609575-11.958455,9.92-19.21c1.92-10.29,4.11-20.52,6.4-30.73c3.84-17.08,20.68-24,35-14c7,4.91,13.24,11,20.27,17c1.09-1.4,2.43-3.29,4-5c6.33-7.16,14.09-9.63,23.4-7.07c7.05,1.94,12.38,6.27,16.78,11.92c7.53,9.64,11.58,20.95,14.89,32.46c1.25,4.33,2.91,5.09,7,4.31c9.23-1.76,17.73.43,24.47,7s5.74,5.14,13.09,1.45c13.27-6.68,21.33-17,22.79-32.24c1.461181-14.105047.749569-28.350786-2.11-42.24ZM443,445.11c-7.17-6.11-15-11.42-22.8-16.81-.89-.62-3.37-.27-4.19.55-9.81,9.73-21.9,14.21-35.31,15.61-3.35.35-4.07,1.58-2.72,4.51c1.6,3.47,3.17,7,4.61,10.5c4.23,10.38,2.27,10.43,16.18,9.3.165323-.022706.329-.05611.49-.1c9.82-1.77,19.5-2.22,28.69,2.76.8.43,2.22.78,2.79.37c5.65-4.06,11.23-8.23,16.69-12.54.75-.59.77-2.1,1.52-4.39-1.7-2.87-3.01-7.28-5.95-9.76ZM417.6,208.23c-24.37-.1-44.19,20.52-44.21,46c0,24.41,19.83,45.6,43,45.86c24.58.28,44.85-20.49,44.89-46s-19.41-45.76-43.68-45.86Zm68.46,485.95c-7.2-5.39-14.32-10.88-21.46-16.35-6.08-4.65-12.3-9.14-18.15-14.06-6.32-5.31-10.33-11.95-11.09-20.52-.402818-3.446763-1.545553-6.765812-3.35-9.73-2.89-4.85-6.58-9.21-9.72-13.91-2.39-3.6-4.43-4.06-7.83-.86-7.4,7-16.4,11.21-26.22,13.83-21.987341,6.032444-45.274946,5.3639-66.88-1.92-11-3.68-21.38-3.86-32.62-1.67-17.916214,3.672839-36.545629,1.265865-52.94-6.84-9.7-4.68-20.67-7.26-31.35-9.23-8.7-1.61-15.75-4.86-21.38-11.48-3-3.54-6-7.11-9.72-11.6-.86,2.76-1.49,4.44-1.91,6.16-4.26,17.22-1.95,34.33.39,51.54c2.89,21.23,5.26,42.54,7.61,63.84c1.58,14.38,2.3,28.87,4.26,43.19c1.51,11.09,6.5,21.09,18.27,23.94c20,4.86,39.27,2.83,55-12.2c12.4-11.87,17.93-27.56,21-43.91c3.27-17.64,5.34-35.5,8-53.24c1-6.43,2-7.11,8.51-6.9q21,.68,41.94,1.35c24.29.75,38.94,12.17,46.05,35.35c2.58,8.41,5.87,16.61,9.09,24.8c4.63,11.74,9.36,23.44,14.29,35.06c4.84,11.41,11.82,20.94,25.5,21.58c24.25,1.14,44.85-7.12,60.5-26c13.86-16.76,14.08-45.33-5.79-60.22Zm90.32-282.52c-3.76-17.59.53-34,10.48-48.93c1.28-1.92,2.62-3.45.57-6.1-11.5-14.92-26.8-20.35-45.13-15.66-24.19,6.18-42,30.47-42.24,57.37.22,2.65.33,5.32.69,8c2.58,19.26,12.86,34.06,27.6,45.88c4.81,3.86,10.47,7.63,16.31,9c14.14,3.35,27.28-.39,39.27-8.58c4-2.73,4.63-5,2.69-9.8-4.11-10.15-7.97-20.54-10.24-31.18Zm18.07-76.15c-3.26,1.74-6,4.67-8.52,7.47-.84.93-.88,3.65-.12,4.71c1.79,2.47,4.29,4.44,7,7.07c10.230274-10.36881,23.427998-17.304866,37.77-19.85-12.39-5.77-24.45-5.64-36.13.6ZM655,525c-23-9.45-45.31-7.11-66.81,4.46-17.37,9.35-33.41,21.3-53.23,26.11c2.34,8.17,6.75,12.76,12.57,12.65c8.13-.16,16.46.07,24.35-1.56c23.1-4.78,46.06-10.28,69-15.75c9.16-2.19,15.71-7.36,18.2-17.14c1.57-6.07,1.92-6.33-4.08-8.77Zm12.19,39.6c-3.215784-2.900725-6.270355-5.975326-9.15-9.21-2.44-2.85-4.89-3.09-8.36-2.08-15.8,4.58-31.6,9.19-47.55,13.21-19.72,5-39.62,9-60.2,6.1-1.231927-.003468-2.386982.598356-3.09,1.61-1.49,3.28-2.58,6.73-4.15,11c2.47,0,3.79,0,5.11,0c20.61-.51,40.91,1.06,60.27,9c1.545497.615229,3.187193.953723,4.85,1c24.51.8,45.11-8.15,62.42-25.24c1.97-1.87,1.88-3.51-.13-5.4Zm13.43-193.07c-3.56-14.39-13.2-23.5-27-28.36-29-10.17-63.5,9.48-71.28,40.81-4.8,19.35-.9,37.87,7.66,55.2c2.91,5.9,8.62,11.22,14.32,14.79c16.89,10.57,34.65,9.85,51.7.26c18.83-10.6,29.9-26.51,30.58-53.16-1.42-7.07-3.21-18.45-5.96-29.55Zm0,0c-3.56-14.39-13.2-23.5-27-28.36-29-10.17-63.5,9.48-71.28,40.81-4.8,19.35-.9,37.87,7.66,55.2c2.91,5.9,8.62,11.22,14.32,14.79c16.89,10.57,34.65,9.85,51.7.26c18.83-10.6,29.9-26.51,30.58-53.16-1.42-7.07-3.21-18.45-5.96-29.55ZM667.21,564.59c-3.215784-2.900725-6.270355-5.975326-9.15-9.21-2.44-2.85-4.89-3.09-8.36-2.08-15.8,4.58-31.6,9.19-47.55,13.21-19.72,5-39.62,9-60.2,6.1-1.231927-.003468-2.386982.598356-3.09,1.61-1.49,3.28-2.58,6.73-4.15,11c2.47,0,3.79,0,5.11,0c20.61-.51,40.91,1.06,60.27,9c1.545497.615229,3.187193.953723,4.85,1c24.51.8,45.11-8.15,62.42-25.24c1.95-1.86,1.86-3.5-.15-5.39ZM655,525c-23-9.45-45.31-7.11-66.81,4.46-17.37,9.35-33.41,21.3-53.23,26.11c2.34,8.17,6.75,12.76,12.57,12.65c8.13-.16,16.46.07,24.35-1.56c23.1-4.78,46.06-10.28,69-15.75c9.16-2.19,15.71-7.36,18.2-17.14c1.57-6.07,1.92-6.33-4.08-8.77ZM594.45,335.51c-3.26,1.74-6,4.67-8.52,7.47-.84.93-.88,3.65-.12,4.71c1.79,2.47,4.29,4.44,7,7.07c10.230274-10.36881,23.427998-17.304866,37.77-19.85-12.39-5.77-24.45-5.64-36.13.6Zm-18.07,76.15c-3.76-17.59.53-34,10.48-48.93c1.28-1.92,2.62-3.45.57-6.1-11.5-14.92-26.8-20.35-45.13-15.66-24.19,6.18-42,30.47-42.24,57.37.22,2.65.33,5.32.69,8c2.58,19.26,12.86,34.06,27.6,45.88c4.81,3.86,10.47,7.63,16.31,9c14.14,3.35,27.28-.39,39.27-8.58c4-2.73,4.63-5,2.69-9.8-4.11-10.15-7.97-20.54-10.24-31.18Zm0,0c-3.76-17.59.53-34,10.48-48.93c1.28-1.92,2.62-3.45.57-6.1-11.5-14.92-26.8-20.35-45.13-15.66-24.19,6.18-42,30.47-42.24,57.37.22,2.65.33,5.32.69,8c2.58,19.26,12.86,34.06,27.6,45.88c4.81,3.86,10.47,7.63,16.31,9c14.14,3.35,27.28-.39,39.27-8.58c4-2.73,4.63-5,2.69-9.8-4.11-10.15-7.97-20.54-10.24-31.18Zm18.07-76.15c-3.26,1.74-6,4.67-8.52,7.47-.84.93-.88,3.65-.12,4.71c1.79,2.47,4.29,4.44,7,7.07c10.230274-10.36881,23.427998-17.304866,37.77-19.85-12.39-5.77-24.45-5.64-36.13.6ZM655,525c-23-9.45-45.31-7.11-66.81,4.46-17.37,9.35-33.41,21.3-53.23,26.11c2.34,8.17,6.75,12.76,12.57,12.65c8.13-.16,16.46.07,24.35-1.56c23.1-4.78,46.06-10.28,69-15.75c9.16-2.19,15.71-7.36,18.2-17.14c1.57-6.07,1.92-6.33-4.08-8.77Zm12.19,39.6c-3.215784-2.900725-6.270355-5.975326-9.15-9.21-2.44-2.85-4.89-3.09-8.36-2.08-15.8,4.58-31.6,9.19-47.55,13.21-19.72,5-39.62,9-60.2,6.1-1.231927-.003468-2.386982.598356-3.09,1.61-1.49,3.28-2.58,6.73-4.15,11c2.47,0,3.79,0,5.11,0c20.61-.51,40.91,1.06,60.27,9c1.545497.615229,3.187193.953723,4.85,1c24.51.8,45.11-8.15,62.42-25.24c1.97-1.87,1.88-3.51-.13-5.4Zm13.43-193.07c-3.56-14.39-13.2-23.5-27-28.36-29-10.17-63.5,9.48-71.28,40.81-4.8,19.35-.9,37.87,7.66,55.2c2.91,5.9,8.62,11.22,14.32,14.79c16.89,10.57,34.65,9.85,51.7.26c18.83-10.6,29.9-26.51,30.58-53.16-1.42-7.07-3.21-18.45-5.96-29.55Zm0,0c-3.56-14.39-13.2-23.5-27-28.36-29-10.17-63.5,9.48-71.28,40.81-4.8,19.35-.9,37.87,7.66,55.2c2.91,5.9,8.62,11.22,14.32,14.79c16.89,10.57,34.65,9.85,51.7.26c18.83-10.6,29.9-26.51,30.58-53.16-1.42-7.07-3.21-18.45-5.96-29.55ZM667.21,564.59c-3.215784-2.900725-6.270355-5.975326-9.15-9.21-2.44-2.85-4.89-3.09-8.36-2.08-15.8,4.58-31.6,9.19-47.55,13.21-19.72,5-39.62,9-60.2,6.1-1.231927-.003468-2.386982.598356-3.09,1.61-1.49,3.28-2.58,6.73-4.15,11c2.47,0,3.79,0,5.11,0c20.61-.51,40.91,1.06,60.27,9c1.545497.615229,3.187193.953723,4.85,1c24.51.8,45.11-8.15,62.42-25.24c1.95-1.86,1.86-3.5-.15-5.39ZM655,525c-23-9.45-45.31-7.11-66.81,4.46-17.37,9.35-33.41,21.3-53.23,26.11c2.34,8.17,6.75,12.76,12.57,12.65c8.13-.16,16.46.07,24.35-1.56c23.1-4.78,46.06-10.28,69-15.75c9.16-2.19,15.71-7.36,18.2-17.14c1.57-6.07,1.92-6.33-4.08-8.77ZM594.45,335.51c-3.26,1.74-6,4.67-8.52,7.47-.84.93-.88,3.65-.12,4.71c1.79,2.47,4.29,4.44,7,7.07c10.230274-10.36881,23.427998-17.304866,37.77-19.85-12.39-5.77-24.45-5.64-36.13.6Zm-18.07,76.15c-3.76-17.59.53-34,10.48-48.93c1.28-1.92,2.62-3.45.57-6.1-11.5-14.92-26.8-20.35-45.13-15.66-24.19,6.18-42,30.47-42.24,57.37.22,2.65.33,5.32.69,8c2.58,19.26,12.86,34.06,27.6,45.88c4.81,3.86,10.47,7.63,16.31,9c14.14,3.35,27.28-.39,39.27-8.58c4-2.73,4.63-5,2.69-9.8-4.11-10.15-7.97-20.54-10.24-31.18Zm0,0c-3.76-17.59.53-34,10.48-48.93c1.28-1.92,2.62-3.45.57-6.1-11.5-14.92-26.8-20.35-45.13-15.66-24.19,6.18-42,30.47-42.24,57.37.22,2.65.33,5.32.69,8c2.58,19.26,12.86,34.06,27.6,45.88c4.81,3.86,10.47,7.63,16.31,9c14.14,3.35,27.28-.39,39.27-8.58c4-2.73,4.63-5,2.69-9.8-4.11-10.15-7.97-20.54-10.24-31.18Zm18.07-76.15c-3.26,1.74-6,4.67-8.52,7.47-.84.93-.88,3.65-.12,4.71c1.79,2.47,4.29,4.44,7,7.07c10.230274-10.36881,23.427998-17.304866,37.77-19.85-12.39-5.77-24.45-5.64-36.13.6ZM655,525c-23-9.45-45.31-7.11-66.81,4.46-17.37,9.35-33.41,21.3-53.23,26.11c2.34,8.17,6.75,12.76,12.57,12.65c8.13-.16,16.46.07,24.35-1.56c23.1-4.78,46.06-10.28,69-15.75c9.16-2.19,15.71-7.36,18.2-17.14c1.57-6.07,1.92-6.33-4.08-8.77Zm12.19,39.6c-3.215784-2.900725-6.270355-5.975326-9.15-9.21-2.44-2.85-4.89-3.09-8.36-2.08-15.8,4.58-31.6,9.19-47.55,13.21-19.72,5-39.62,9-60.2,6.1-1.231927-.003468-2.386982.598356-3.09,1.61-1.49,3.28-2.58,6.73-4.15,11c2.47,0,3.79,0,5.11,0c20.61-.51,40.91,1.06,60.27,9c1.545497.615229,3.187193.953723,4.85,1c24.51.8,45.11-8.15,62.42-25.24c1.97-1.87,1.88-3.51-.13-5.4Zm13.43-193.07c-3.56-14.39-13.2-23.5-27-28.36-29-10.17-63.5,9.48-71.28,40.81-4.8,19.35-.9,37.87,7.66,55.2c2.91,5.9,8.62,11.22,14.32,14.79c16.89,10.57,34.65,9.85,51.7.26c18.83-10.6,29.9-26.51,30.58-53.16-1.42-7.07-3.21-18.45-5.96-29.55Zm0,0c-3.56-14.39-13.2-23.5-27-28.36-29-10.17-63.5,9.48-71.28,40.81-4.8,19.35-.9,37.87,7.66,55.2c2.91,5.9,8.62,11.22,14.32,14.79c16.89,10.57,34.65,9.85,51.7.26c18.83-10.6,29.9-26.51,30.58-53.16-1.42-7.07-3.21-18.45-5.96-29.55ZM658.06,555.38c-2.44-2.85-4.89-3.09-8.36-2.08-15.8,4.58-31.6,9.19-47.55,13.21-19.72,5-39.62,9-60.2,6.1-1.231927-.003468-2.386982.598356-3.09,1.61-1.49,3.28-2.58,6.73-4.15,11c2.47,0,3.79,0,5.11,0c20.61-.51,40.91,1.06,60.27,9c1.545497.615229,3.187193.953723,4.85,1c24.51.8,45.11-8.15,62.42-25.24c1.95-1.92,1.86-3.56-.15-5.45-3.214157-2.881302-6.268698-5.935843-9.15-9.15ZM547.55,568.21c8.13-.16,16.46.07,24.35-1.56c23.1-4.78,46.06-10.28,69-15.75c9.16-2.19,15.71-7.36,18.2-17.14c1.54-6.06,1.87-6.32-4.09-8.77-23-9.45-45.31-7.11-66.81,4.46-17.37,9.35-33.41,21.3-53.23,26.11c2.35,8.17,6.76,12.76,12.58,12.65Zm45.22-213.45c10.230274-10.36881,23.427998-17.304866,37.77-19.85-12.35-5.77-24.41-5.64-36.09.6-3.26,1.74-6,4.67-8.52,7.47-.84.93-.88,3.65-.12,4.71c1.79,2.47,4.29,4.44,6.96,7.07Zm-8.84,97.84c4-2.73,4.63-5,2.69-9.8-4.11-10.11-8-20.5-10.24-31.14-3.76-17.59.53-34,10.48-48.93c1.28-1.92,2.62-3.45.57-6.1-11.5-14.92-26.8-20.35-45.13-15.66-24.19,6.18-42,30.47-42.24,57.37.22,2.65.33,5.32.69,8c2.58,19.26,12.86,34.06,27.6,45.88c4.81,3.86,10.47,7.63,16.31,9c14.14,3.31,27.28-.43,39.27-8.62ZM725.47,567.43c-.75-26.78-3.15-53.52-4.25-80.3-.72-17.3-.46-34.65-.48-52q-.06-40.48.1-81c.06-21.47,1.1-43-2.87-64.27-3.69-19.72-13.41-35.24-32.7-42.82-21.13-8.3-43.33-8.62-65.45-5.91-14,1.73-23.44,10.73-30.05,23.1-8.79,16.43-18.07,32.6-27.19,48.85-1.011329,1.597486-2.116607,3.133521-3.31,4.6l-1.24-.38c0-1.9.1-3.81,0-5.71-.5-7.77.12-15.86-1.86-23.24-4.34-16.16-15.85-27.17-29.89-35.31-17.38-10.08-36.08-15.26-56.41-12.58-2.83.37-5.86.52-5.17,4.87c3.36,21.1-3.79,37.94-20.83,50.63-2.31,1.71-2.48,3.37-1.59,6c5.62,16.61,7.06,33.81,6.64,51.21-.32,13.47-4.26,25.53-14.27,35.12-1.037186,1.048568-1.778886,2.352581-2.15,3.78-1.93,7.4-3.89,14.79-5.45,22.27-1.78,8.59.59,13.37,8.34,17.77c6.53,3.7,11.9,8.52,15.43,15.23c4.4,8.37,3.44,13.21-3.82,19.23-1.8,1.48-3.74,2.79-5.58,4.22-3.76,2.89-5,6.45-3,11c2.802959,5.838811,2.386862,12.711971-1.1,18.17-2.59,4.25-2.38,7.74.1,12c6.29,10.85,9.87,22.41,8.21,35.27s-7.24,23.78-14.86,33.85c-2.451713,2.910754-3.29851,6.848732-2.26,10.51.76,3.38.43,8.11-1.48,10.77-5.13,7.17-3.95,11.91,1.64,18.13s10.95,13.25,11.65,22.17c.416367,6.732465,3.64667,12.978927,8.9,17.21c4.46,3.76,9.1,7.3,13.72,10.85c9.51,7.29,19.26,14.29,28.53,21.88c6.412515,5.172224,10.994194,12.267342,13.07,20.24c4.86,18.3.56,34.31-12.09,48.06-4.56,5-9.93,9.15-14.92,13.69.09.45.19.91.28,1.36c8.41-.82,16.95-.94,25.18-2.61c15.69-3.19,27-12.93,35.84-26c7.48-11.06,17.54-10.79,24.44.64c2.343882,4.022809,4.392601,8.210484,6.13,12.53c2.09,5,5.74,8.07,10.89,8.31c6.77.32,13.87.92,20.32-.66c44.32-10.85,80.1-35.08,108.1-70.91c6.11-7.82,10.43-16.74,11.67-26.72c1.67-13.36,3.54-26.75,4.12-40.18.91-20.95,1.56-41.97.97-62.92Zm-73.65-50.19c.74,5.9,7.93,4.91,11.61,8c6.73,5.65,13.91,10.84,20.17,17c5.83,5.7,5.69,10.41,0,16-8.75,8.65-17.71,17.13-27.11,25.06-3.368146,2.634353-5.545845,6.503819-6.05,10.75-4.94,32.63-16.33,62.66-36.58,89-8.86,11.49-20.13,18.73-34.86,19.88-12.19,1-17-3.29-17-15.53.118487-11.667829-1.873552-23.260956-5.88-34.22-7.2-19.23-8-39-3.7-58.95c1.08-5-.49-5.91-4.8-5.68-9.64.52-19.29.92-28.94,1.27-1.806986-.048243-3.608226-.225359-5.39-.53-.09-.61-.17-1.22-.26-1.83c1.34-.86,2.67-1.75,4-2.57c6-3.59,6.69-6,2.08-11.42-3.75-4.4-8.33-8.1-12.41-12.23-1.195404-1.407716-2.266105-2.916735-3.2-4.51c1.66-.5,3.33-1.45,5-1.43c20.38.19,39-5.94,56.49-15.85c2.27-1.29,4.8-3.64,5.47-6c6.26-22.11,5.2-44.32.24-67.09-2.36.41-4.42.72-6.47,1.12-19.68,3.79-35.59-4.1-48.37-17.75-23-24.52-31.17-64.37-6-94.64c15.12-18.22,40.41-26.89,59.81-18.88c7,2.89,10.88,3.33,16.94-2.7c11.81-11.75,36-12,51-2.72c3.338351,2.088927,6.987064,3.63482,10.81,4.58c21.4,5.06,34.85,17.89,39.24,39.63c1.58,7.8,3.13,15.65,4,23.55c2.06,19.24-3.9,35.83-17.86,49.29-3.481925,3.298315-5.960556,7.513721-7.15,12.16-3.86,13.93-8.29,27.7-12.5,41.54-.130442.30473-.23742.618977-.32.94-.77,4.95-2.6,10.01-2.01,14.76Zm34.76-116.18c-1.4-7.11-3.19-18.44-5.94-29.54-3.56-14.39-13.2-23.5-27-28.36-29-10.17-63.5,9.48-71.28,40.81-4.8,19.35-.9,37.87,7.66,55.2c2.91,5.9,8.62,11.22,14.32,14.79c16.89,10.57,34.65,9.85,51.7.26c18.79-10.6,29.86-26.51,30.54-53.16ZM649.7,553.3c-15.8,4.58-31.6,9.19-47.55,13.21-19.72,5-39.62,9-60.2,6.1-1.231927-.003468-2.386982.598356-3.09,1.61-1.49,3.28-2.58,6.73-4.15,11c2.47,0,3.79,0,5.11,0c20.61-.51,40.91,1.06,60.27,9c1.545497.615229,3.187193.953723,4.85,1c24.51.8,45.11-8.15,62.42-25.24c1.95-1.92,1.86-3.56-.15-5.45-3.215784-2.900725-6.270355-5.975326-9.15-9.21-2.44-2.79-4.89-3.03-8.36-2.02Zm-61.49-23.85c-17.37,9.35-33.41,21.3-53.23,26.11c2.34,8.17,6.75,12.76,12.57,12.65c8.13-.16,16.46.07,24.35-1.56c23.1-4.78,46.06-10.28,69-15.75c9.16-2.19,15.71-7.36,18.2-17.14c1.54-6.06,1.87-6.32-4.09-8.77-23.01-9.45-45.3-7.11-66.8,4.46Zm4.56-174.69c10.230274-10.36881,23.427998-17.304866,37.77-19.85-12.35-5.77-24.41-5.64-36.09.6-3.26,1.74-6,4.67-8.52,7.47-.84.93-.88,3.65-.12,4.71c1.79,2.47,4.29,4.44,6.96,7.07Zm-6.15,88c-4.11-10.11-8-20.5-10.24-31.14-3.76-17.59.53-34,10.48-48.93c1.28-1.92,2.62-3.45.57-6.1-11.5-14.92-26.8-20.35-45.13-15.66-24.19,6.18-42,30.47-42.24,57.37.22,2.65.33,5.32.69,8c2.58,19.26,12.86,34.06,27.6,45.88c4.81,3.86,10.47,7.63,16.31,9c14.14,3.35,27.28-.39,39.27-8.58c3.98-2.73,4.63-5.03,2.69-9.8Zm-10.24-31.14c-3.76-17.59.53-34,10.48-48.93c1.28-1.92,2.62-3.45.57-6.1-11.5-14.92-26.8-20.35-45.13-15.66-24.19,6.18-42,30.47-42.24,57.37.22,2.65.33,5.32.69,8c2.58,19.26,12.86,34.06,27.6,45.88c4.81,3.86,10.47,7.63,16.31,9c14.14,3.35,27.28-.39,39.27-8.58c4-2.73,4.63-5,2.69-9.8-4.11-10.11-7.97-20.5-10.24-31.14Zm18.07-76.15c-3.26,1.74-6,4.67-8.52,7.47-.84.93-.88,3.65-.12,4.71c1.79,2.47,4.29,4.44,7,7.07c10.230274-10.36881,23.427998-17.304866,37.77-19.85-12.39-5.73-24.45-5.6-36.13.64ZM655,525c-23-9.45-45.31-7.11-66.81,4.46-17.37,9.35-33.41,21.3-53.23,26.11c2.34,8.17,6.75,12.76,12.57,12.65c8.13-.16,16.46.07,24.35-1.56c23.1-4.78,46.06-10.28,69-15.75c9.16-2.19,15.71-7.36,18.2-17.14c1.57-6.07,1.92-6.33-4.08-8.77Zm12.19,39.6c-3.215784-2.900725-6.270355-5.975326-9.15-9.21-2.44-2.85-4.89-3.09-8.36-2.08-15.8,4.58-31.6,9.19-47.55,13.21-19.72,5-39.62,9-60.2,6.1-1.231927-.003468-2.386982.598356-3.09,1.61-1.49,3.28-2.58,6.73-4.15,11c2.47,0,3.79,0,5.11,0c20.61-.51,40.91,1.06,60.27,9c1.545497.615229,3.187193.953723,4.85,1c24.51.8,45.11-8.15,62.42-25.24c1.97-1.87,1.88-3.51-.13-5.4Zm13.43-193.07c-3.56-14.39-13.2-23.5-27-28.36-29-10.17-63.5,9.48-71.28,40.81-4.8,19.35-.9,37.87,7.66,55.2c2.91,5.9,8.62,11.22,14.32,14.79c16.89,10.57,34.65,9.85,51.7.26c18.83-10.6,29.9-26.51,30.58-53.16-1.42-7.07-3.21-18.45-5.96-29.55Zm0,0c-3.56-14.39-13.2-23.5-27-28.36-29-10.17-63.5,9.48-71.28,40.81-4.8,19.35-.9,37.87,7.66,55.2c2.91,5.9,8.62,11.22,14.32,14.79c16.89,10.57,34.65,9.85,51.7.26c18.83-10.6,29.9-26.51,30.58-53.16-1.42-7.07-3.21-18.45-5.96-29.55ZM667.21,564.59c-3.215784-2.900725-6.270355-5.975326-9.15-9.21-2.44-2.85-4.89-3.09-8.36-2.08-15.8,4.58-31.6,9.19-47.55,13.21-19.72,5-39.62,9-60.2,6.1-1.231927-.003468-2.386982.598356-3.09,1.61-1.49,3.28-2.58,6.73-4.15,11c2.47,0,3.79,0,5.11,0c20.61-.51,40.91,1.06,60.27,9c1.545497.615229,3.187193.953723,4.85,1c24.51.8,45.11-8.15,62.42-25.24c1.95-1.86,1.86-3.5-.15-5.39ZM655,525c-23-9.45-45.31-7.11-66.81,4.46-17.37,9.35-33.41,21.3-53.23,26.11c2.34,8.17,6.75,12.76,12.57,12.65c8.13-.16,16.46.07,24.35-1.56c23.1-4.78,46.06-10.28,69-15.75c9.16-2.19,15.71-7.36,18.2-17.14c1.57-6.07,1.92-6.33-4.08-8.77ZM594.45,335.51c-3.26,1.74-6,4.67-8.52,7.47-.84.93-.88,3.65-.12,4.71c1.79,2.47,4.29,4.44,7,7.07c10.230274-10.36881,23.427998-17.304866,37.77-19.85-12.39-5.77-24.45-5.64-36.13.6Zm-18.07,76.15c-3.76-17.59.53-34,10.48-48.93c1.28-1.92,2.62-3.45.57-6.1-11.5-14.92-26.8-20.35-45.13-15.66-24.19,6.18-42,30.47-42.24,57.37.22,2.65.33,5.32.69,8c2.58,19.26,12.86,34.06,27.6,45.88c4.81,3.86,10.47,7.63,16.31,9c14.14,3.35,27.28-.39,39.27-8.58c4-2.73,4.63-5,2.69-9.8-4.11-10.15-7.97-20.54-10.24-31.18Zm0,0c-3.76-17.59.53-34,10.48-48.93c1.28-1.92,2.62-3.45.57-6.1-11.5-14.92-26.8-20.35-45.13-15.66-24.19,6.18-42,30.47-42.24,57.37.22,2.65.33,5.32.69,8c2.58,19.26,12.86,34.06,27.6,45.88c4.81,3.86,10.47,7.63,16.31,9c14.14,3.35,27.28-.39,39.27-8.58c4-2.73,4.63-5,2.69-9.8-4.11-10.15-7.97-20.54-10.24-31.18Zm18.07-76.15c-3.26,1.74-6,4.67-8.52,7.47-.84.93-.88,3.65-.12,4.71c1.79,2.47,4.29,4.44,7,7.07c10.230274-10.36881,23.427998-17.304866,37.77-19.85-12.39-5.77-24.45-5.64-36.13.6ZM655,525c-23-9.45-45.31-7.11-66.81,4.46-17.37,9.35-33.41,21.3-53.23,26.11c2.34,8.17,6.75,12.76,12.57,12.65c8.13-.16,16.46.07,24.35-1.56c23.1-4.78,46.06-10.28,69-15.75c9.16-2.19,15.71-7.36,18.2-17.14c1.57-6.07,1.92-6.33-4.08-8.77Zm12.19,39.6c-3.215784-2.900725-6.270355-5.975326-9.15-9.21-2.44-2.85-4.89-3.09-8.36-2.08-15.8,4.58-31.6,9.19-47.55,13.21-19.72,5-39.62,9-60.2,6.1-1.231927-.003468-2.386982.598356-3.09,1.61-1.49,3.28-2.58,6.73-4.15,11c2.47,0,3.79,0,5.11,0c20.61-.51,40.91,1.06,60.27,9c1.545497.615229,3.187193.953723,4.85,1c24.51.8,45.11-8.15,62.42-25.24c1.97-1.87,1.88-3.51-.13-5.4Zm13.43-193.07c-3.56-14.39-13.2-23.5-27-28.36-29-10.17-63.5,9.48-71.28,40.81-4.8,19.35-.9,37.87,7.66,55.2c2.91,5.9,8.62,11.22,14.32,14.79c16.89,10.57,34.65,9.85,51.7.26c18.83-10.6,29.9-26.51,30.58-53.16-1.42-7.07-3.21-18.45-5.96-29.55Zm0,0c-3.56-14.39-13.2-23.5-27-28.36-29-10.17-63.5,9.48-71.28,40.81-4.8,19.35-.9,37.87,7.66,55.2c2.91,5.9,8.62,11.22,14.32,14.79c16.89,10.57,34.65,9.85,51.7.26c18.83-10.6,29.9-26.51,30.58-53.16-1.42-7.07-3.21-18.45-5.96-29.55ZM667.21,564.59c-3.215784-2.900725-6.270355-5.975326-9.15-9.21-2.44-2.85-4.89-3.09-8.36-2.08-15.8,4.58-31.6,9.19-47.55,13.21-19.72,5-39.62,9-60.2,6.1-1.231927-.003468-2.386982.598356-3.09,1.61-1.49,3.28-2.58,6.73-4.15,11c2.47,0,3.79,0,5.11,0c20.61-.51,40.91,1.06,60.27,9c1.545497.615229,3.187193.953723,4.85,1c24.51.8,45.11-8.15,62.42-25.24c1.95-1.86,1.86-3.5-.15-5.39ZM655,525c-23-9.45-45.31-7.11-66.81,4.46-17.37,9.35-33.41,21.3-53.23,26.11c2.34,8.17,6.75,12.76,12.57,12.65c8.13-.16,16.46.07,24.35-1.56c23.1-4.78,46.06-10.28,69-15.75c9.16-2.19,15.71-7.36,18.2-17.14c1.57-6.07,1.92-6.33-4.08-8.77ZM594.45,335.51c-3.26,1.74-6,4.67-8.52,7.47-.84.93-.88,3.65-.12,4.71c1.79,2.47,4.29,4.44,7,7.07c10.230274-10.36881,23.427998-17.304866,37.77-19.85-12.39-5.77-24.45-5.64-36.13.6Zm-18.07,76.15c-3.76-17.59.53-34,10.48-48.93c1.28-1.92,2.62-3.45.57-6.1-11.5-14.92-26.8-20.35-45.13-15.66-24.19,6.18-42,30.47-42.24,57.37.22,2.65.33,5.32.69,8c2.58,19.26,12.86,34.06,27.6,45.88c4.81,3.86,10.47,7.63,16.31,9c14.14,3.35,27.28-.39,39.27-8.58c4-2.73,4.63-5,2.69-9.8-4.11-10.15-7.97-20.54-10.24-31.18Zm290.63-32c-3.21-5.79-6.63-11.65-8.58-17.91-5.16-16.58-1.87-32.24,6.94-46.91c1.27-2.11,2.27-3.71.06-6.1-18.59-20.17-49.16-14.83-59.19,10.43-4.71,11.88-5.12,24.3-5,36.86.15,24,17,41,41.29,41.26c9.117214.073292,17.824831-3.781376,23.9-10.58c2.09-2.4,2.14-4.25.57-7.07Zm23.71,182.13c-.48-2.87-2.17-5.54-3.38-8.27-1.47-3.3-3.83-3.79-6.93-2.22-4,2-7.89,4.45-12.11,5.86-16.22,5.39-32.54,10.45-49.57,15.87c7.34,8.84,15.49,17.09,28.31,17.37c17.73.38,30.69-9.56,42.5-21.21c1.46-1.46,1.58-5.03,1.18-7.42Zm24-130.17c-.139477-2.15605-.420078-4.300644-.84-6.42-1.65-8.55-1.7-8.6-9.88-5.74-18.79,6.56-35,17.23-50.49,31.66c2.52,0,3.66.1,4.77,0c14.55-1.5,29.09-3,43.64-4.55c10.01-1.06,13.44-4.99,12.81-14.97ZM942,345.25c-.3-5.49-.51-11-.91-16.46-1.62-22.54-19.49-36.63-40.78-32.23-23.37,4.84-39.33,25-39.09,49.38.24,25.9,15.25,44.37,39.73,48.91c20.77,3.86,35-5.51,39.1-26.27c1.5-7.63,1.74-15.51,2.55-23.28Zm98-60.82c-2.73-19.81-11.85-35.27-31.71-41.48-9.36-2.94-19.54-3.88-29.43-4.46-37.14-2.18-71.14,6.1-99.36,31.88-8.43,7.71-16.54,15.77-25,23.89l17,11.65l4.43-3.73c8.2156-6.923224,18.382626-11.117253,29.09-12c18.25-1.76,33.83,9.29,39.56,27.66.85,2.72,1.45,5.36,5,6c15.63,2.9,24.16,13.22,27.91,27.88c7.37,28.83,2.7,56.23-11.36,82-17.63,32.35-35.86,64.28-53.63,96.52-1.933901,3.646911-3.245266,7.591147-3.88,11.67-1.69,10.29-5.35,19.55-12.39,27.32-8.233882,9.235822-18.305452,16.650704-29.57,21.77-7.06,3.17-14.35,5.26-22.26,3.94-14.25-2.37-24-11.21-31.45-22.68-14.64-22.44-15.44-45.84-3.35-69.6c2.52-4.95,2.77-9.33,1.39-14.75-1.43-5.6-2.09-12-.9-17.56c3.48-16.24,12.54-30,21.87-43.4c5.58-8,11.48-15.85,17.07-23.53-5.93-.68-11.86-.6-17.34-2.13-16.34-4.57-30.11-13-34.27-30.71-4.953856-20.283075-2.448037-41.671266,7.06-60.26c5.13-10.24,13.38-16.84,25-18.66c2.43-.38,4.88-.69,7.75-1.09-.65-8.17-4.4-14.7-9.32-20.62-18.31-22-42.3-31.37-70.44-31.51-11.41-.05-19.89,5-23.89,15.46-3,7.82-5.57,16.28-5.84,24.53-1,30-1,60-1.17,90-.1,16,.14,32,.3,48c.26,26.48.15,53,1,79.43.86,26.62,3.72,53.2,3.8,79.81.09,27.43-1.66,54.91-3.59,82.29-.651442,9.766963-2.95407,19.352793-6.81,28.35-4.79694,10.600942-8.337656,21.726509-10.55,33.15-2.3,12.46-.34,15,11.95,18c.32.07.63.25,1,.29c6.32.7,8.92,4.48,9.92,10.55c2.65,16,10.34,23.13,26.25,25.14c33.54,4.24,62.87-16.73,68.05-50c2.21-14.21,1.67-28.86,2.08-43.32.32-11.74,6.25-16.85,17.73-14.3c24.09,5.35,38.62,20.67,45.91,43.85c2.57,8.19,5.42,16.59,9.85,23.84c16.74,27.37,42.22,41.7,73.38,46.58c9.26,1.45,18.13.48,25.78-6.21c10.662789-9.198149,18.308137-21.394465,21.94-35c1.4-5.07.43-9.41-4-12.29-7.54-4.88-15.27-9.48-23-14.1-.996429-.603673-2.159572-.873438-3.32-.77-9.82,1.55-16-4.07-21.39-10.93-8.61-10.95-18.36-20.78-30-28.45-9.79-6.47-13.09-15.48-11-26.15c2.081621-10.72791,5.092984-21.254295,9-31.46c8.52-21.85,18.52-43.12,26.79-65.05c9.85-26.13,17.93-52.93,27.87-79c10.65-27.95,23-55.25,33.75-83.16c4.93-12.8,9.58-26.16,11.31-39.65c2.618149-21.078719,2.426475-42.411727-.57-63.44Zm189.7-90.73c-10.174766-1.66683-19.288506-7.261473-25.38-15.58-7.189683-9.939693-13.627561-20.40208-19.26-31.3-6-11.57-5.77-12-18.76-9.46-.65.13-1.28.35-1.93.52-29.2,7.65-48.16,39.39-41.64,69.73c5.89,27.45,28.17,46.44,54.73,46.64c29.57.24,54.73-23.73,57-54.08.35-4.01-.88-5.77-4.75-6.47Zm-5.63,69.86l28.39,12.76c.51-8.26.94-15.29,1.43-23.27-10.32,3.46-20.59,4.25-29.81,10.51Zm35,408.65c3,.94,6,1.9,9,2.89-2.98-1-5.99-1.96-9-2.89Zm19.71,6.54l-1.75-.61c12.442415,4.277343,21.859351,14.583237,25,27.36-2.96-12.68-10.79-22.35-23.25-26.75Zm29.13-340.5c-4.25-19.6-23-33.43-42.21-31.23-20.241548,2.414933-35.42903,19.665604-35.26,40.05.18,18.47,11.16,34.32,27.43,39.59c6.11,2,6.93,1.61,9.23-4.33c6.59-17,18.22-28.74,35.67-34.51c6-1.98,6.55-3.09,5.14-9.57Zm238.42-69.66c.7818-2.106708.710037-4.435429-.2-6.49-15.19-29.18-53.11-47.44-85.36-41.32-42.49,8.06-72.1,44.12-72,87.69.046337,21.701856,7.78465,42.684589,21.84,59.22c36.68,43.24,105.17,37.81,134.29-10.79c1.42-2.36,2.26-6.31,1.29-8.66-11.05-26.64-10.99-53.08.14-79.65Zm36.2,215.27c1.63,10.41,9.94,13.68,18.55,7.28Zm128.83-193c-7.14-40.27-43.12-71.11-83.43-71.11-.09-.4.08.41,0,0-9.37,2.07-19.33,2-28.29,5.16-35.66,12.72-58,47.36-56.27,87.36c1.5,36,18.63,62.06,51.17,77.8c5.74,2.77,7.37,2.1,11.27-3.1c3.68-4.91,7.26-10,11.65-14.26c13-12.6,26.41-13.47,41.55-3.55c4.57946,3.000902,9.345819,5.706404,14.27,8.1c4.2,2,8.15.9,11.28-2.62c21.32-23.99,32.59-51.08,26.8-83.81Zm7.54,366.5c-.84-1.28-2.52-3.08-3.6-3-5.85.73-12.62.41-17.26,3.34-18.33,11.56-38,15.44-59.18,13.12-15-1.65-29.78-2.77-44.28,2.86-3.606045,1.268114-7.326902,2.18242-11.11,2.73-6,1-6.21,1.37-3.33,6.81c13.48,25.44,26.8,51,40.52,76.27c4.43,8.15,9,16.46,15.07,23.43c16.37,19,44.38,20.17,63,3.36c9.58-8.66,14.74-20,18.33-32.11c6.44-21.76,7.69-44.16,8-66.67c0-3.16-.07-6.33,0-9.5.152059-7.363743-2.001725-14.590807-6.16-20.67ZM1730,317.61c-.5-9.88-5.29-18.1-12.63-26.43.17,3.08.37,4.73.34,6.37-.21,8.94.45,18-.91,26.79-3,19.62-13.11,36.06-25.61,51.13-7.77,9.37-14.32,10.65-24.9,4.8-3.37-1.86-6.67-3.85-11.1-6.42c7.71,18.57,4.88,38.66,15.85,55.45c7.85-8.2,9.92-9.7,21.23-13.39c14.39-4.69,23.77-14.28,28.49-28.46c7.42173-22.49702,10.555967-46.186961,9.24-69.84Zm23,237.61c-.83-6.85-3.69-13.07-10.2-18.7-3.29,39.94-9.78,77.94-32.47,111.6c5.982495.329859,11.774263-2.160786,15.65-6.73c22.35-24.54,31.02-53.45,27.07-86.17Z" fill="none"/><path d="M1278.78,678.75l-1.75-.61c12.442415,4.277343,21.859351,14.583237,25,27.36-2.96-12.68-10.79-22.35-23.25-26.75Zm-19.71-6.54c3,.94,6,1.9,9,2.89-2.98-1-5.99-1.96-9-2.89Z" fill="#205295"/><path d="M1381.8,736.65c-2.435-31.389515-2.435-62.920485,0-94.31.79-9.61,1.63-19.28,1.33-28.88-.53-17.31-2.27-34.57-2.85-51.87-1.31-38.79-2.2-77.59-3.31-116.38-.11-4-.58-8-.89-12q-.43-5.64-.89-11.28c-6.94,18.1-18.28,31.38-36.32,38.17s-35.15,3.61-51.92-5.88c-.09,2.92-.06,5.4.86,7.5c4.54,10.31,7.54,21,8,32.25.7,17.6-.53,35.48-15.12,47.43-.782574.705245-1.696733,1.248983-2.69,1.6h-.08c-5.4.92-16.12,5.77-28.76,8.67-1.22.28-2.39.53-3.51.77-13.543648,2.903871-27.652246,1.580972-40.42-3.79-.55-.23-1.561423-.941423-2.111423-1.191423-1.391659-.629994-2.750108-1.330914-4.07-2.1-23.35-13.67-29.42-38.75-15.36-61.81C1196.138577,463.128577,1213.6,448.01,1234.65,436.85c.46-.24.9-.5,1.31-.76l.6-.4c.198102-.128658.388433-.268902.57-.42.158587-.108855.308989-.229176.45-.36.205962-.166037.402909-.342956.59-.53.364775-.333183.699409-.697933,1-1.09.068836-.079004.132311-.162524.19-.25q.18-.24.33-.48l.06-.09c.13-.22.26-.45.38-.68s.24-.5.35-.76.21-.52.3-.8.16-.54.23-.82c.004335-.023132.004335-.046868,0-.07.07-.29.13-.59.18-.89.196916-1.192766.280622-2.401477.25-3.61-.252527-8.983193,1.206764-17.932381,4.3-26.37.645192-1.625928,1.16994-3.297101,1.57-5v-.14c0-.21.08-.41.11-.6s.06-.38.08-.57s0-.37,0-.54c.17-2.67-.93-4.23-3.31-6.08-15.9-12.43-22.16-28.69-18.16-48.55c4.335933-21.260374,23.225656-36.399066,44.92-36c20.47.4,39.12,16.83,42.23,37.85.69,4.69,2.54,5.65,6.68,5.73c21.28.39,37,10.53,48.26,28.16.74,1.16,1.56,2.28,3.09,4.49c0-2.31.09-3.25,0-4.18-1.72-14.69-3.65-29.37-5.16-44.08-1.85-18-6.17-35.33-14.54-51.52-8.46-16.38-21.52-26.77-39.48-31-15.66-3.7-31.4-2.56-47.2-1.17-4.22.37-5.33,2.06-5.43,5.88-.17,6.82-.65,13.63-1.12,20.44-.61,8.61-4.83,11.24-12.63,7.83-7.31-3.2-14.71-6.27-21.78-9.95-4.47-2.32-7.8-1.78-11.87,1-17,11.45-28.85,27.55-40.4,43.88-9.39,13.28-19,26.38-23.57,42.56-5.22,18.49-7.43,37.46-11.15,56.18-7.37,37-19.49,72.56-38.07,105.66-1.493594,2.396279-2.613123,5.006266-3.32,7.74-3.510598,17.28331-5.597595,34.82546-6.24,52.45-.62,16.75-2.39,33.51-4.59,50.14-3.21,24.21-8.09,48.22-10.68,72.48-2.1958,19.993632,1.109757,40.207323,9.56,58.46c5.87,12.76,14.28,22.5,29.48,23.75c2.82.24,5.63.55,8.45.75c24.56,1.69,46.79-10.36,56.8-32c4.198361-9.398061,7.383017-19.216859,9.5-29.29c2.52-11.33,3.09-23.07,5.27-34.49c3.4-17.75,17.94-28.43,35.49-24.63c6.37,1.38,12.71,3,19,4.73l3.15.89c2.77.79,5.53,1.62,8.29,2.47c3,.93,6,1.89,9,2.89c1,.32,2,.66,3,1s2,.66,3,1l3,1l1.75.61c12.46,4.4,20.29,14.07,23.25,26.75.06.25.12.5.17.76s.13.61.19.92l.15.82c.17.9.33,1.8.48,2.71c0,.1,0,.2,0,.3.17,1.08.33,2.16.48,3.25.18,1.26.34,2.52.49,3.78s.25,2.24.36,3.36.24,2.47.34,3.71q.3,3.52.52,7c.08,1.2.15,2.4.22,3.59.93,16.16,3.38,31.77,13,45.41c4.6,6.53,10.81,10.37,18.72,11c4.639497.423581,9.309946.376676,13.94-.14c18.69-2.33,33.38-17.92,31.92-36.91-.38-6.07-.71-12.22-1.15-18.36ZM1168.41,487.09c-.048844.828743-.149037,1.65366-.3,2.47-.56,2.38.29,6.28-3.75,5.5-.66-.12-1.2-.82-1.64-1.61-.855669-1.579991-1.20478-3.384893-1-5.17c1.33-12.76,6.15-22.06,16.39-28.23c2.17-1.31,4.8-3.56,6.83-.08c1.85,3.17-1.06,4.34-3.17,5.59-8.24,4.84-12.35,12.22-13.36,21.53Z" fill="#205295"/><path d="M1040.6,347.72c-1.73,13.49-6.38,26.85-11.31,39.65-10.77,27.91-23.1,55.21-33.75,83.16-9.94,26.09-18,52.89-27.87,79-8.27,21.93-18.27,43.2-26.79,65.05-3.907016,10.205705-6.918379,20.73209-9,31.46-2.14,10.67,1.16,19.68,11,26.15c11.6,7.67,21.35,17.5,30,28.45c5.4,6.86,11.57,12.48,21.39,10.93c1.160428-.103438,2.323571.166327,3.32.77c7.7,4.62,15.43,9.22,23,14.1c4.46,2.88,5.43,7.22,4,12.29-3.631863,13.605535-11.277211,25.801851-21.94,35-7.65,6.69-16.52,7.66-25.78,6.21-31.16-4.88-56.64-19.21-73.38-46.58-4.43-7.25-7.28-15.65-9.85-23.84-7.29-23.18-21.82-38.5-45.91-43.85-11.48-2.55-17.41,2.56-17.73,14.3-.41,14.46.13,29.11-2.08,43.32-5.18,33.3-34.51,54.27-68.05,50-15.91-2-23.6-9.14-26.25-25.14-1-6.07-3.6-9.85-9.92-10.55-.32,0-.63-.22-1-.29-12.29-2.93-14.25-5.51-11.95-18c2.212344-11.423491,5.75306-22.549058,10.55-33.15c3.85593-8.997207,6.158558-18.583037,6.81-28.35c1.93-27.38,3.68-54.86,3.59-82.29-.08-26.61-2.94-53.19-3.8-79.81-.85-26.46-.74-53-1-79.43-.16-16-.4-32-.3-48c.19-30,.2-60,1.17-90c.27-8.25,2.87-16.71,5.84-24.53c4-10.5,12.48-15.51,23.89-15.46c28.14.14,52.13,9.5,70.44,31.51c4.92,5.92,8.67,12.45,9.32,20.62-2.87.4-5.32.71-7.75,1.09-11.62,1.82-19.87,8.42-25,18.66-9.508037,18.588734-12.013856,39.976925-7.06,60.26c4.16,17.72,17.93,26.14,34.27,30.71c5.48,1.53,11.41,1.45,17.34,2.13-5.59,7.68-11.49,15.5-17.07,23.53-9.33,13.43-18.39,27.16-21.87,43.4-1.19,5.57-.53,12,.9,17.56c1.38,5.42,1.13,9.8-1.39,14.75-12.09,23.76-11.29,47.16,3.35,69.6c7.48,11.47,17.2,20.31,31.45,22.68c7.91,1.32,15.2-.77,22.26-3.94c11.263638-5.116364,21.335136-12.527788,29.57-21.76c7-7.77,10.7-17,12.39-27.32.634734-4.078853,1.946099-8.023089,3.88-11.67c17.77-32.21,36-64.17,53.61-96.46c14.06-25.79,18.73-53.19,11.36-82-3.75-14.66-12.28-25-27.91-27.88-3.55-.66-4.15-3.3-5-6-5.73-18.37-21.31-29.42-39.56-27.66-10.707374.882747-20.8744,5.076776-29.09,12l-4.43,3.73-17-11.65c8.5-8.12,16.61-16.18,25-23.89c28.22-25.78,62.22-34.06,99.36-31.88c9.89.58,20.07,1.52,29.43,4.46c19.86,6.21,29,21.67,31.71,41.48c2.996903,21.004393,3.195299,42.313449.59,63.37Z" fill="#205295"/><path d="M725.47,567.43c-.75-26.78-3.15-53.52-4.25-80.3-.72-17.3-.46-34.65-.48-52q-.06-40.48.1-81c.06-21.47,1.1-43-2.87-64.27-3.69-19.72-13.41-35.24-32.7-42.82-21.13-8.3-43.33-8.62-65.45-5.91-14,1.73-23.44,10.73-30.05,23.1-8.79,16.43-18.07,32.6-27.19,48.85-1.011329,1.597486-2.116607,3.133521-3.31,4.6l-1.24-.38c0-1.9.1-3.81,0-5.71-.5-7.77.12-15.86-1.86-23.24-4.34-16.16-15.85-27.17-29.89-35.31-17.38-10.08-36.08-15.26-56.41-12.58-2.83.37-5.86.52-5.17,4.87c3.36,21.1-3.79,37.94-20.83,50.63-2.31,1.71-2.48,3.37-1.59,6c5.62,16.61,7.06,33.81,6.64,51.21-.32,13.47-4.26,25.53-14.27,35.12-1.037186,1.048568-1.778886,2.352581-2.15,3.78-1.93,7.4-3.89,14.79-5.45,22.27-1.78,8.59.59,13.37,8.34,17.77c6.53,3.7,11.9,8.52,15.43,15.23c4.4,8.37,3.44,13.21-3.82,19.23-1.8,1.48-3.74,2.79-5.58,4.22-3.76,2.89-5,6.45-3,11c2.802959,5.838811,2.386862,12.711971-1.1,18.17-2.59,4.25-2.38,7.74.1,12c6.29,10.85,9.87,22.41,8.21,35.27s-7.24,23.78-14.86,33.85c-2.451713,2.910754-3.29851,6.848732-2.26,10.51.76,3.38.43,8.11-1.48,10.77-5.13,7.17-3.95,11.91,1.64,18.13s10.95,13.25,11.65,22.17c.416367,6.732465,3.64667,12.978927,8.9,17.21c4.46,3.76,9.1,7.3,13.72,10.85c9.51,7.29,19.26,14.29,28.53,21.88c6.412515,5.172224,10.994194,12.267342,13.07,20.24c4.86,18.3.56,34.31-12.09,48.06-4.56,5-9.93,9.15-14.92,13.69.09.45.19.91.28,1.36c8.41-.82,16.95-.94,25.18-2.61c15.69-3.19,27-12.93,35.84-26c7.48-11.06,17.54-10.79,24.44.64c2.343882,4.022809,4.392601,8.210484,6.13,12.53c2.09,5,5.74,8.07,10.89,8.31c6.77.32,13.87.92,20.32-.66c44.32-10.85,80.1-35.08,108.1-70.91c6.11-7.82,10.43-16.74,11.67-26.72c1.67-13.36,3.54-26.75,4.12-40.18.91-20.95,1.56-41.97.97-62.92Zm-67.67-276c.110608.032917.217773.076453.32.13c6.7,3.33,13.19,4.32,19.8-.23.167062-.104943.354551-.173121.55-.2.786835-.093583,1.568384.212247,2.082734.815s.693445,1.422678.477266,2.185c-.042305.242395-.178947.458145-.38.6-3.29,1.82-6.72,3.36-10,4.9-.999444.470774-2.141741.538811-3.19.19-4.24-1.44-7.9-2.54-11.35-4.1-.221383-.10592-.421381-.251682-.59-.43-.679912-.765743-.788414-1.882583-.268612-2.76488s1.549285-1.328696,2.548612-1.10512Zm-4,13.23c-.190929-.299004-.294811-.645274-.3-1-.057294-.998392.474287-1.938121,1.359516-2.403351s1.96069-.370078,2.750484.243351c.099904.083249.190438.177136.27.28c7,8.68,6.25,18.89-1.86,26.51v0v.07c3.09-1.05,6.14-2.51,9.33-3s6.56-.11,10.35-.11c-4.24-7.43-4.69-14.85.24-22.08.56-.83,1-1.91,1.82-2.32c1.136534-.404708,2.325376-.643824,3.53-.71.14,1.18.71,2.53.33,3.51-.84,2.15-2.32,4-3.25,6.17-1.77,4.08-2,8.46,1.22,11.7s1.6,6.5,1.69,9.79c0,.3-3.06,1.42-3.91.9-6.18-3.85-12-2.61-18,.39-1.66.84-3.79.71-5.71,1l2.36-5.22h-.11l.12-.11c-3.72-.31-4.3-2.32-2.2-4.95c5.03-6.32,4.49-12.32-.04-18.67Zm-2,212.59c.74,5.9,7.93,4.91,11.61,8c6.73,5.65,13.91,10.84,20.17,17c5.83,5.7,5.69,10.41,0,16-8.75,8.65-17.71,17.13-27.11,25.06-3.368146,2.634353-5.545845,6.503819-6.05,10.75-4.94,32.63-16.33,62.66-36.58,89-8.84,11.48-20.11,18.72-34.84,19.87-12.19,1-17-3.29-17-15.53.118487-11.667829-1.873552-23.260956-5.88-34.22-7.2-19.23-8-39-3.7-58.95c1.08-5-.49-5.91-4.8-5.68-9.64.52-19.29.92-28.94,1.27-1.806986-.048243-3.608226-.225359-5.39-.53-.09-.61-.17-1.22-.26-1.83c1.34-.86,2.67-1.75,4-2.57c6-3.59,6.69-6,2.08-11.42-3.75-4.4-8.33-8.1-12.41-12.23-1.195404-1.407716-2.266105-2.916735-3.2-4.51c1.66-.5,3.33-1.45,5-1.43c20.38.19,39-5.94,56.49-15.85c2.27-1.29,4.8-3.64,5.47-6c6.26-22.11,5.2-44.32.24-67.09-2.36.41-4.42.72-6.47,1.12-19.68,3.79-35.59-4.1-48.37-17.75-23-24.52-31.17-64.37-6-94.64c15.12-18.22,40.41-26.89,59.81-18.88c7,2.89,10.88,3.33,16.94-2.7c11.81-11.75,36-12,51-2.72c3.338351,2.088927,6.987064,3.63482,10.81,4.58c21.4,5.06,34.85,17.89,39.24,39.63c1.58,7.8,3.13,15.65,4,23.55c2.06,19.24-3.9,35.83-17.86,49.29-3.481925,3.298315-5.960556,7.513721-7.15,12.16-3.86,13.93-8.29,27.7-12.5,41.54-.130442.30473-.23742.618977-.32.94-.77,4.95-2.6,10.01-2.01,14.76Z" fill="#205295"/><path d="M1251.55,248.84c-2.319668.901463-4.702836,1.630117-7.13,2.18-16.39,3.24-31.13,10.11-43.25,21.53-23.74,22.38-43.4,47.81-55.7,78.37-6.83,16.95-9.51,34.89-12.19,52.83-5,33.33-14.61,65.39-30.07,95.21-21.26,41-39,83.41-54.55,126.84-8.93,24.86-21.4,48.07-39.41,67.82-3.231851,3.584918-6.801688,6.850013-10.66,9.75-6.74,5-11.61,4.6-17.83-1.15-3.140563-2.982401-6.08032-6.169364-8.8-9.54-7.68-9.3-16-17.73-26.55-24-9.55-5.68-10.6-15.35-8.41-24.68c2.93-12.21,6.41-24.55,11.7-35.88c14.24-30.52,25.39-62.13,36.13-94c7.17-21.25,14.67-42.53,24-62.87c16.814041-36.75855,30.681004-74.794891,41.47-113.75c12.92-46.18,34.38-87.86,63.65-125.67c1.08-1.4,2.24-2.75,3.78-4.63c7.58,27.23,22.73,46.71,51.33,50.79c28.44,4.06,49.21-8.93,63.14-33.92c8.3,5.37,16,10.16,21.41,17.86c2.31,3.3,1.67,5.58-2.06,6.91Z" fill="#205295"/><path d="M1487,538.18c9.11,19.48,25.06,31.16,46.16,34c11.73,1.59,23.88-.26,35.82.08c9.09.25,18.37.55,27.16,2.56c11.87,2.71,20.19,12.79,21,22.83.72,9.26-3,15.69-12,18.26-5.726322,1.728901-11.689835,2.542261-17.67,2.41-12.11-.51-24.19-1.84-36.24-3.23-6.29-.72-10.29-4.79-12.9-10.54-1.944675-4.405454-4.249143-8.643132-6.89-12.67-5.62-8.39-15.3-11.55-25.05-8.64-9.2,2.74-16.82,12.17-16.51,21.52.281896,3.048544,1.711736,5.876054,4,7.91c7.42,6.18,8,7.82,3.91,16.67-3.07,6.62-2.32,13.12,1.59,19c3.15,4.75,3.38,9.47,2,14.72-4,14.75-8.42,29.42-11.69,44.33-2.87,13.13-3.7,26.71-6.72,39.79-4.37,18.93-14.46,34.34-32,43.83-13.09,7.09-27,8.45-41.42,4.45-6.53-1.82-11.72-5.92-13.71-12.13-3.07-9.57-6.41-19.49-6.88-29.38-1.46-30.93-2.69-62-1.94-92.88.54-22.37,4-44.7,6.87-67c1.12-8.81,6.67-15.83,12.75-22.19c4.26-4.45,8.71-8.74,12.75-13.38c8.94-10.26,9.75-21.8,4.7-34-2.41-5.83-6.57-10.16-12.58-12.09-11.83-3.78-16.39-12.7-17.88-24-1.86-14.18,2.83-24.83,15.65-32.21c13.29-7.66,15.31-13.66,12.53-29.22-1.92-10.82-6.61-20.14-15.75-26.24-19.06-12.7-28-31.23-31.21-52.94-1.922938-12.654046-2.925568-25.430897-3-38.23c0-14.75,4.65-28.19,16.39-38.24.61-.52,1.28-1,1.85-1.41-2.13,10.33-5.14,20.42-6.15,30.7-4.32,43.91,24.18,91.66,75.38,100.87c24.07,4.33,45.87-1.16,65.65-15.31c5.3-3.79,5.46-3.7,8,2.18c4.64,10.65,9.29,21.29,13.79,31.59-7.73,0-15.46-1-22.77.33-5.66282,1.233458-10.907695,3.917924-15.22,7.79-14.24,12.52-12,32.32,4.33,42c9,5.36,19,8,29.27,9.36c9.23,1.22,18.51,2.12,27.78,3c3.622938.117308,6.70384,2.679235,7.48,6.22c3.38,11.62,17.69,15.61,26.21,8.24c1-.89,3.94-1.23,4.75-.49c7.45,6.84,14.64,14,21.86,21.05.42.4.47,1.17,1.07,2.82-2.51-.59-4.38-.74-6-1.47-19.45-8.81-39.82-13-61.15-11.71-9.27.57-18.47,2.41-27.74,3.12-6.77.51-13.61-.05-20.41.2-5.76.21-11.8-.09-17.18,1.58-12.21,3.8-17.4,14.79-12.04,26.19Z" fill="#205295"/><path d="M306.78,542.63c-10.54,13-4.93,30.38,11.19,34.75c12.83,3.48,25.8,2.38,38.7.49c10.53-1.54,21-3.64,31.5-5.31c12-1.91,22.44,1.68,31,10.17c6.4,6.32,7.15,13.66,2.35,21.32-9.84,15.69-25.14,22.93-42.55,26-18.78,3.31-37.75,2.79-55.77-3.49-12.36-4.31-24.07-4.48-36.63-2-16.74,3.36-33.14,1.71-48.45-6.76-2.724921-1.617824-5.68801-2.795635-8.78-3.49-7.47-1.38-12.27-6.07-16.66-11.75-14.22-18.36-22-39.58-26.25-62-3.3-17.45-4.72-35.26-6.68-52.94-.132902-2.807086.44133-5.602597,1.67-8.13c9.07-20.51,24.05-35.84,43-47.3c7.31-4.43,12-9.85,14-18.33c1.05-4.53,3.25-9.54,6.52-12.67c10.81-10.32,14.68-23.44,17.19-37.39c1.21-6.71,2.61-13.39,4.06-20.06c2.48-11.34,13.85-17.2,24.27-12.28c11.16,5.28,20,13.25,25.36,24.51c1.324916,2.846074,2.192257,5.883455,2.57,9c1.35,10.62-.08,13.12-9.56,18.25Q286,395.71,263.19,408.1c-.935971.338145-1.808205.831735-2.58,1.46-.753422,1.051266-1.390487,2.181219-1.9,3.37c1.32,0,2.91.57,3.92,0c9.4-5,18.7-10.19,28-15.32c7.73-4.25,15.45-8.51,23.22-12.68c1.21-.65,3-1.51,4-1.09c11.41,4.74,23.54,4.21,35.43,4.73c10.979147.348236,21.969142.09118,32.92-.77c10.22-.69,18.26,3,23.29,11.48c10.93,18.52,8.75,26.27-9.68,35.36-10,4.94-21.17,6.49-35.8,5.71-31.63-2.77-54.6,10.72-73.58,32.89-1.81,2.13-4.87,4.38-2.23,7.74c2.44,3.09,5.42,1.43,8.18.26c20.2-8.61,41.21-13.06,63.23-11.78c6,.35,11.87,1.78,17.83,2.14c9.07.56,18.2,1.08,27.26.74c7.08-.26,13.92-.67,20.47,2.64c10.75,5.44,14,14.73,7.23,24.68-4.440261,6.619988-9.924797,12.476013-16.24,17.34-15.33,11.52-32.92,14.06-51.71,11.07-12.79-2-25.6-.87-38.17,2.24-7.684148,1.835862-14.542269,6.168787-19.5,12.32Z" fill="#fff"/><path d="M1737.53,538.7c-2.27,27.41-7.2,54.09-17.35,79.7-12.35,31.19-36.65,47.55-73,47.42-3.69-.36-10-.59-16.26-1.65-12.36-2.1-24.17-.07-35.93,3.53-21,6.42-42,6.66-62.84-.45-9.65-3.28-18.08-8.45-24.68-16.33-10.13-12.13-6.63-25.39,8.12-31.1c10-3.87,19.92-1.56,30-.2c15,2,30,3.69,45.12,4.41c6.07.29,12.63-1.46,18.36-3.77c11.45-4.62,16.15-15.77,12.52-27.56-4.81-15.61-16.64-23.46-31.75-25.06-13.12-1.4-26.54-.41-39.8.11-21.56.86-39.57-5.94-53.19-23.1-.62-.78-1.25-1.57-1.79-2.41-3.63-5.63-6.43-11.51-3-18.2s10-8.67,16.54-8.1c17.61,1.55,34.89-.87,52.26-2.79c21-2.33,41.07,1.84,60.4,10.05c1.53.65,3,1.35,4.58,2c3.46,1.43,6.93,2,9.46-1.54c2.41-3.32,1.64-7-.81-9.68-6-6.62-12.07-13.38-18.85-19.2-14.33-12.31-31.65-16.88-50.17-18.64-12.87-1.22-25.64-3.68-38.39-6-3.35-.6-6.56-2.39-9.63-4-7.84-4.18-13.46-10.07-12.65-19.71s6.49-16.43,15.21-19.22c6.06-1.94,13-1.77,19.55-1.4c13.6.75,27.15,2.82,40.75,3.21c6.45.18,13.13-1.74,19.42-3.65c5.41-1.65,9.66-1.24,14.48,1.95c14.42,9.54,29.14,18.62,43.86,27.7c1.14.7,3.13,0,4.72,0-.82-1.52-1.27-3.67-2.54-4.46-10.48-6.47-21.24-12.49-31.67-19-6.19-3.89-11.94-8.48-17.89-12.75-6.39-4.6-5.63-11.42-3.94-17.32c3.8-13.27,12.67-23,24.93-29.1c9.21-4.55,17.6-.65,20.4,9.25c2.31,8.14,3.6,16.57,5,24.93c2.13,12.58,6.84,23.77,15.14,33.7c3.767378,4.629942,6.544652,9.983683,8.16,15.73c2.007793,7.639049,7.031569,14.135312,13.92,18c13,7.66,23.46,18,32.47,29.94c7.78,10.34,11.87,21.31,10.76,34.76Z" fill="#fff"/><path d="M491.79,754.41c-15.65,18.87-36.25,27.13-60.5,26-13.68-.64-20.66-10.17-25.5-21.58-4.93-11.62-9.66-23.32-14.29-35.06-3.22-8.19-6.51-16.39-9.09-24.8-7.11-23.18-21.76-34.6-46.05-35.35q-21-.65-41.94-1.35c-6.53-.21-7.53.47-8.51,6.9-2.69,17.74-4.76,35.6-8,53.24-3,16.35-8.56,32-21,43.91-15.68,15-34.92,17.06-55,12.2-11.77-2.85-16.76-12.85-18.27-23.94-2-14.32-2.68-28.81-4.26-43.19-2.35-21.3-4.72-42.61-7.61-63.84-2.34-17.21-4.65-34.32-.39-51.54.42-1.72,1.05-3.4,1.91-6.16c3.76,4.49,6.71,8.06,9.72,11.6c5.63,6.62,12.68,9.87,21.38,11.48c10.68,2,21.65,4.55,31.35,9.23c16.411757,8.11934,35.064607,10.526613,53,6.84c11.24-2.19,21.59-2,32.62,1.67c21.605054,7.2839,44.892659,7.952444,66.88,1.92c9.82-2.62,18.82-6.84,26.22-13.83c3.4-3.2,5.44-2.74,7.83.86c3.14,4.7,6.83,9.06,9.72,13.91c1.804447,2.964188,2.947182,6.283237,3.35,9.73.76,8.57,4.77,15.21,11.09,20.52c5.85,4.92,12.07,9.41,18.15,14.06c7.14,5.47,14.26,11,21.46,16.35c19.87,14.88,19.65,43.45,5.73,60.22Z" fill="#205295"/><path d="M1546.33,268.59c.7818-2.106708.710037-4.435429-.2-6.49-15.19-29.18-53.11-47.44-85.36-41.32-42.49,8.06-72.1,44.12-72,87.69.046337,21.701856,7.78465,42.684589,21.84,59.22c36.68,43.24,105.17,37.81,134.29-10.79c1.42-2.36,2.26-6.31,1.29-8.66-11.05-26.64-10.99-53.08.14-79.65Z" fill="#fff"/><path d="M1711.36,290.83c-7.14-40.27-43.12-71.11-83.43-71.11-1,.84,1.84,1.55,0,0-10.69.77-19.33,2-28.29,5.16-35.66,12.72-58,47.36-56.27,87.36c1.5,36,18.63,62.06,51.17,77.8c5.74,2.77,7.37,2.1,11.27-3.1c3.68-4.91,7.26-10,11.65-14.26c13-12.6,26.41-13.47,41.55-3.55c4.57946,3.000902,9.345819,5.706404,14.27,8.1c4.2,2,8.15.9,11.28-2.62c21.32-23.96,32.59-51.05,26.8-83.78Z" fill="#fff"/><path d="M443.35,359.76c-1.46,15.21-9.52,25.56-22.79,32.24-7.35,3.69-6.44,5-13.09-1.45s-15.24-8.74-24.47-7c-4.06.78-5.72,0-7-4.31-3.31-11.51-7.36-22.82-14.89-32.46-4.4-5.65-9.73-10-16.78-11.92-9.31-2.56-17.07-.09-23.4,7.07-1.53,1.73-2.87,3.62-4,5-7-5.94-13.24-12-20.27-17-14.36-10-31.2-3.13-35,14-2.29,10.21-4.48,20.44-6.4,30.73-1.310425,7.251545-4.766012,13.943262-9.92,19.21-6.232578,6.31788-10.54904,14.271264-12.45,22.94-1.1,5-4.27,8.38-10.2,10.75-1.13-9.38-2.74-18-3.1-26.69-1-22.38,4.79-43.48,13.47-63.9c3.38-8,7-15.84,10-23.92c1.44-3.78,3.41-5,7.42-4.67c29.11,2.44,47.58-19.37,51.24-38.78.987373-5.356965,1.263089-10.820852.82-16.25-.33-4.22,2.11-4.81,4.82-5.53c12.289926-3.114627,24.979189-4.358606,37.64-3.69c6.14.26,12.27,1.22,18.41,1.22c4.74,0,5.84,1.88,5.77,6.32-.29,19,6.8,34.51,22.91,45.05c13.74,9,28.52,10.29,44.78,3.43c1.53,6,3.17,11.67,4.38,17.41c2.852128,13.876735,3.560352,28.108663,2.1,42.2Z" fill="#205295"/><path d="M1725.1,678c-.09,3.17,0,6.34,0,9.5-.35,22.51-1.6,44.91-8,66.67-3.59,12.11-8.75,23.45-18.33,32.11-18.6,16.81-46.61,15.61-63-3.36-6-7-10.64-15.28-15.07-23.43-13.72-25.31-27-50.83-40.52-76.27-2.88-5.44-2.63-5.77,3.33-6.81c3.783098-.54758,7.503955-1.461886,11.11-2.73c14.5-5.63,29.31-4.51,44.28-2.86c21.14,2.32,40.85-1.56,59.18-13.12c4.64-2.93,11.41-2.61,17.26-3.34c1.08-.13,2.76,1.67,3.6,3c4.152276,6.070807,6.305779,13.28644,6.16,20.64Z" fill="#205295"/><path d="M1229.71,193.7c-10.174766-1.66683-19.288506-7.261473-25.38-15.58-7.189683-9.939693-13.627561-20.40208-19.26-31.3-6-11.57-5.77-12-18.76-9.46-.65.13-1.28.35-1.93.52-29.2,7.65-48.16,39.39-41.64,69.73c5.89,27.45,28.17,46.44,54.73,46.64c29.57.24,54.73-23.73,57-54.08.34-4.01-.89-5.77-4.76-6.47Z" fill="#fff"/><path d="M1319.57,350.25c-28.34,0-51.45,24-51.48,53.42c0,30.44,22.65,54.11,52.14,54.44c27.54.32,51.06-24.6,51-54.1.05-29.78-23.01-53.74-51.66-53.76Z" fill="#fff"/><path d="M942,345.25c-.3-5.49-.51-11-.91-16.46-1.62-22.54-19.49-36.63-40.78-32.23-23.37,4.84-39.33,25-39.09,49.38.24,25.9,15.25,44.37,39.73,48.91c20.77,3.86,35-5.51,39.1-26.27c1.5-7.63,1.74-15.51,2.55-23.28Z" fill="#fff"/><path d="M255.61,212.4c-25.5-.08-44.39,19.32-44.57,45.77-.16,25,19.27,45.9,42.92,46.09c24.94.2,45-20.13,45-45.71s-19.09-46.08-43.35-46.15Z" fill="#fff"/><path d="M417.6,208.23c-24.37-.1-44.19,20.52-44.21,46c0,24.41,19.83,45.6,43,45.86c24.58.28,44.85-20.49,44.89-46s-19.41-45.76-43.68-45.86Z" transform="matrix(-.768356-.640023 0.640023-.768356 575.327787 716.551633)" fill="#fff"/><path d="M867,379.64c-3.21-5.79-6.63-11.65-8.58-17.91-5.16-16.58-1.87-32.24,6.94-46.91c1.27-2.11,2.27-3.71.06-6.1-18.59-20.17-49.16-14.83-59.19,10.43-4.71,11.88-5.12,24.3-5,36.86.15,24,17,41,41.29,41.26c9.117214.073292,17.824831-3.781376,23.9-10.58c2.1-2.38,2.15-4.23.58-7.05Z" fill="#fff"/><path d="M1720.77,387.45c-4.72,14.18-14.1,23.77-28.49,28.46-11.31,3.69-13.38,5.19-21.23,13.39-11-16.79-8.14-36.88-15.85-55.45c4.43,2.57,7.73,4.56,11.1,6.42c10.58,5.85,17.13,4.57,24.9-4.8c12.5-15.07,22.56-31.51,25.61-51.13c1.36-8.76.7-17.85.91-26.79c0-1.64-.17-3.29-.34-6.37c7.34,8.33,12.13,16.55,12.63,26.43c1.315967,23.653039-1.81827,47.34298-9.24,69.84Z" fill="#205295"/><path d="M1307.91,338.25c-4.25-19.6-23-33.43-42.21-31.23-20.241548,2.414933-35.42903,19.665604-35.26,40.05.18,18.47,11.16,34.32,27.43,39.59c6.11,2,6.93,1.61,9.23-4.33c6.59-17,18.22-28.74,35.67-34.51c6-1.98,6.55-3.09,5.14-9.57Z" fill="#fff"/><path d="M424,581.18c-7.432104-8.485452-18.120818-13.411713-29.4-13.55-2.86-.09-3.6-1.66-3.63-4.2-.09-8.82-.41-17.64-.29-26.46c0-1.5,1.49-4,2.71-4.31c14-3.46,25.6-10.88,35.49-21.2.49753-.387461,1.033701-.722568,1.6-1c15.97,20.64,13.94,48.87-6.48,70.72Z" fill="#205295"/><path d="M212.72,608.9c-12.39,0-21.63-3.86-29.07-13.14-19.6-24.44-27.56-51.93-23.27-82.92c1.33-9.59,6.49-16.85,15.14-22.74c3.48,42.62,9.26,83.96,37.2,118.8Z" fill="#fff"/><path d="M449,454.87c-.75,2.29-.77,3.8-1.52,4.39-5.46,4.31-11,8.48-16.69,12.54-.57.41-2,.06-2.79-.37-9.19-5-18.87-4.53-28.69-2.76-.161.04389-.324677.077294-.49.1-13.91,1.13-11.95,1.08-16.18-9.3-1.44-3.54-3-7-4.61-10.5-1.35-2.93-.63-4.16,2.72-4.51c13.41-1.4,25.5-5.88,35.31-15.61.82-.82,3.3-1.17,4.19-.55C428,433.69,435.83,439,443,445.11c2.94,2.48,4.25,6.89,6,9.76Z" fill="#205295"/><path d="M1285.68,494.82c-5.94,2.3-11.56,1.74-14.08-3.34-2.89-5.82-4.38-12.34-6.27-18.63-.46-1.53.07-3.32-.12-5-.4-3.51-2.57-4.5-5.52-2.51-2.48,1.67-4.7,3.75-7.27,5.24-3.86,2.24-6.54,1.44-7.64-2.84-1.303254-5.652721-2.304671-11.370812-3-17.13-.75-5.1-2.48-5.88-6.86-3.06-2.167792,1.510765-4.520294,2.737427-7,3.65-1.56.51-3.49-.11-5.25-.22l-.09-1.8c8-5.92,16.52-10.89,26.79-12c9.14-1,16.58,2.25,22.66,9c8.93,10,13.62,21.9,16.2,34.82.23,1.14.39,2.29.68,3.42c1.09,4.22,2.41,8.22-3.23,10.4Z" fill="#fff"/><path d="M889.54,569.17c-11.81,11.65-24.77,21.59-42.5,21.21-12.82-.28-21-8.53-28.31-17.37c17-5.42,33.35-10.48,49.57-15.87c4.22-1.41,8.11-3.83,12.11-5.86c3.1-1.57,5.46-1.08,6.93,2.22c1.21,2.73,2.9,5.4,3.38,8.27.4,2.39.28,5.96-1.18,7.4Z" fill="#fff"/><path d="M1726,641.39c-3.875737,4.569214-9.667505,7.059859-15.65,6.73c22.69-33.66,29.18-71.66,32.47-111.6c6.51,5.63,9.37,11.85,10.2,18.7c3.98,32.72-4.69,61.63-27.02,86.17Z" fill="#fff"/><path d="M901.93,446.54c-14.55,1.5-29.09,3-43.64,4.55-1.11.11-2.25,0-4.77,0C869,436.67,885.22,426,904,419.44c8.18-2.86,8.23-2.81,9.88,5.74.419922,2.119356.700523,4.26395.84,6.42.64,9.98-2.79,13.91-12.79,14.94Z" fill="#fff"/><path d="M1253.9,253.05c-.49,8-.92,15-1.43,23.27l-28.39-12.76c9.22-6.26,19.49-7.05,29.82-10.51Z" fill="#fff"/><path d="M293.22,477l15.12-16.66c1.05,11.46-1.56,14.12-15.12,16.66Z" fill="#205295"/><path d="M680.64,371.52c-3.56-14.39-13.2-23.5-27-28.36-29-10.17-63.5,9.48-71.28,40.81-4.8,19.35-.9,37.87,7.66,55.2c2.91,5.9,8.62,11.22,14.32,14.79c16.89,10.57,34.65,9.85,51.7.26c18.83-10.6,29.9-26.51,30.58-53.16-1.44-7.06-3.23-18.44-5.98-29.54Z" fill="#fff"/><path d="M576.38,411.66c-3.76-17.59.53-34,10.48-48.93c1.28-1.92,2.62-3.45.57-6.1-11.5-14.92-26.8-20.35-45.13-15.66-24.19,6.18-42,30.47-42.24,57.37.22,2.65.33,5.32.69,8c2.58,19.26,12.86,34.06,27.6,45.88c4.81,3.86,10.47,7.63,16.31,9c14.14,3.35,27.28-.39,39.27-8.58c4-2.73,4.63-5,2.69-9.8-4.11-10.15-7.97-20.54-10.24-31.18Z" fill="#fff"/><path d="M659.11,533.76c-2.49,9.78-9,15-18.2,17.14-22.95,5.47-45.91,11-69,15.75-7.89,1.63-16.22,1.4-24.35,1.56-5.82.11-10.23-4.48-12.57-12.65c19.82-4.81,35.86-16.76,53.23-26.11C609.71,517.88,632,515.54,655,525c6,2.44,5.65,2.7,4.11,8.76Z" fill="#fff"/><path d="M667.36,570c-17.31,17.09-37.91,26-62.42,25.24-1.662807-.046277-3.304503-.384771-4.85-1-19.36-8-39.66-9.52-60.27-9-1.32,0-2.64,0-5.11,0c1.57-4.29,2.66-7.74,4.15-11c.703018-1.011644,1.858073-1.613468,3.09-1.61c20.58,2.89,40.48-1.13,60.2-6.1c16-4,31.75-8.63,47.55-13.21c3.47-1,5.92-.77,8.36,2.08c2.879645,3.234674,5.934216,6.309275,9.15,9.21c2.01,1.87,2.1,3.51.15,5.39Z" fill="#fff"/><g id="ecEYLf3OHgF37_ts" transform="translate(637.041429,403.419245) scale(1.003934,0.985544)"><path d="M518.87387,391.63925c0-8.80069,7.09008-15.93506,15.83613-15.93506s15.83613,7.13437,15.83613,15.93506-7.09008,15.93506-15.83613,15.93506-15.83613-7.13437-15.83613-15.93506Z" transform="translate(-534.71,-391.63925)" stroke-width="0"/></g><g id="ecEYLf3OHgF38_to" transform="translate(517.51301,395.68988)"><path d="M518.87387,391.63925c0-8.80069,7.09008-15.93506,15.83613-15.93506s15.83613,7.13437,15.83613,15.93506-7.09008,15.93506-15.83613,15.93506-15.83613-7.13437-15.83613-15.93506Z" transform="translate(-534.71,-391.63925)" stroke-width="0"/></g><g id="ecEYLf3OHgF39_tr" transform="translate(681.711809,526.517469) rotate(0)"><path d="M675.7,525.250001c.81,0,23.419128,1.24,23.419128,33.249999" transform="translate(-681.485573,-526.935)" fill="none" stroke="#000" stroke-width="3.82" stroke-linecap="round"/></g><ellipse rx="14.922933" ry="21.998736" transform="translate(829.607201 347.252381)" stroke-width="0"/><g id="ecEYLf3OHgF41_to" transform="translate(914.790894,340.461609)"><ellipse rx="20.345648" ry="21.998736" transform="translate(0,0)" stroke-width="0"/></g><g id="ecEYLf3OHgF42_to" transform="translate(1177.988647,228.228543)"><ellipse rx="8.603633" ry="17.297797" transform="translate(0,0)" stroke-width="0"/></g><ellipse rx="13.325" ry="13.630899" transform="matrix(.766074 0 0 0.77058 1257.882064 325.253645)" stroke-width="0"/><g id="ecEYLf3OHgF44_ts" transform="translate(1316.336465,403.65741) scale(1.035716,1)"><ellipse rx="22.146058" ry="23.90259" transform="translate(0,0)" stroke-width="0"/></g><g id="ecEYLf3OHgF45_to" transform="translate(1563.938107,310.189871)"><ellipse rx="14.506595" ry="14.430411" transform="translate(0,0)" stroke-width="0"/></g><g id="ecEYLf3OHgF46_to" transform="translate(1409.513059,310.189871)"><ellipse rx="14.506595" ry="14.430411" transform="translate(0,0)" stroke-width="0"/></g><g id="ecEYLf3OHgF47_to" transform="translate(409.248318,283.167497)"><ellipse rx="12.455037" ry="13.247497" transform="translate(0,0)" fill="#000205" stroke-width="0"/></g><g id="ecEYLf3OHgF48_to" transform="translate(262.81755,289.453013)"><ellipse rx="12.455037" ry="13.247497" transform="translate(0.000001,-0.457799)" fill="#000205" stroke-width="0"/></g></svg>
