<svg id="fill" xmlns="http://www.w3.org/2000/svg" viewBox="0 0 90 137.09"><defs><style>.cls-1{fill:#85b4e0;}.cls-2{fill:#0468ad;}.cls-3{fill:#d9dae2;}.cls-4{fill:#cfcfd9;}.cls-5{fill:#fff;}.cls-6{fill:#444;}.cls-7{fill:none;stroke:#000;stroke-linecap:round;stroke-miterlimit:10;stroke-width:3px;}</style></defs><rect class="cls-1" x="4.91" y="126.33" width="11.24" height="7.02"/><rect class="cls-2" x="16.15" y="126.33" width="11.24" height="7.02"/><rect class="cls-1" x="27.38" y="126.33" width="11.24" height="7.02"/><rect class="cls-2" x="38.62" y="126.33" width="11.24" height="7.02"/><rect class="cls-1" x="49.85" y="126.33" width="11.24" height="7.02"/><rect class="cls-2" x="61.09" y="126.33" width="11.24" height="7.02"/><rect class="cls-3" x="4.91" y="71.55" width="81.46" height="56.18"/><path class="cls-4" d="M65.3,123.52H86.37v4.21H4.91V71.55H9.3A56.16,56.16,0,0,0,65.3,123.52Z"/><circle class="cls-5" cx="59.69" cy="102.45" r="15.45"/><path d="M66.71,102.45h0a4.21,4.21,0,0,1-4.21,4.21h0a4.21,4.21,0,0,1-4.22-4.21h0a4.21,4.21,0,0,1,4.22-4.21h0A4.21,4.21,0,0,1,66.71,102.45Z"/><path d="M58.28,105.17V99.73a4.31,4.31,0,0,0-4.3-4.3h-8a15.32,15.32,0,0,0,0,14h8A4.3,4.3,0,0,0,58.28,105.17Z"/><rect class="cls-5" x="68.11" y="65.93" width="5.62" height="14.05"/><rect class="cls-5" x="55.47" y="65.93" width="5.62" height="14.05"/><rect class="cls-5" x="42.83" y="65.93" width="5.62" height="14.05"/><rect class="cls-5" x="30.19" y="65.93" width="5.62" height="14.05"/><rect class="cls-5" x="17.55" y="65.93" width="5.62" height="14.05"/><rect class="cls-6" x="35.81" y="89.81" width="2.81" height="25.28"/><rect class="cls-6" x="30.19" y="89.81" width="2.81" height="25.28"/><rect class="cls-6" x="24.57" y="89.81" width="2.81" height="25.28"/><path class="cls-6" d="M11.93,88.41a1.43,1.43,0,0,1,.41-1l2.81-2.81,2,2-1.82,1.82L20,93l-2,2L12.34,89.4A1.41,1.41,0,0,1,11.93,88.41Z"/><path class="cls-6" d="M11.93,101.05a1.43,1.43,0,0,1,.41-1l2.81-2.81,2,2-1.82,1.82L20,105.67l-2,2L12.34,102A1.41,1.41,0,0,1,11.93,101.05Z"/><path class="cls-6" d="M11.93,113.69a1.43,1.43,0,0,1,.41-1l2.81-2.8,2,2-1.82,1.82L20,118.31l-2,2-5.62-5.62A1.41,1.41,0,0,1,11.93,113.69Z"/><path d="M73.73,133.35v-4.21H86.37a1.41,1.41,0,0,0,1.41-1.41V71.55a1.41,1.41,0,0,0-1.41-1.4H75.14V65.93a1.41,1.41,0,0,0-1.41-1.4H68.11a1.4,1.4,0,0,0-1.4,1.4v4.22H62.5V65.93a1.41,1.41,0,0,0-1.41-1.4H55.47a1.4,1.4,0,0,0-1.4,1.4v4.22H49.85V65.93a1.4,1.4,0,0,0-1.4-1.4H42.83a1.4,1.4,0,0,0-1.4,1.4v4.22H37.21V65.93a1.4,1.4,0,0,0-1.4-1.4H30.19a1.4,1.4,0,0,0-1.4,1.4v4.22H24.57V65.93a1.4,1.4,0,0,0-1.4-1.4H17.55a1.4,1.4,0,0,0-1.4,1.4v4.22H4.91a1.41,1.41,0,0,0-1.41,1.4v61.8a1.41,1.41,0,0,0,1.41,1.41H72.33A1.41,1.41,0,0,0,73.73,133.35Zm-4.21-66h2.81V78.57H69.52Zm-12.64,0h2.81V78.57H56.88Zm-12.64,0h2.81V78.57H44.24Zm-12.64,0h2.8V78.57H31.6Zm-9.84,0V78.57H19V67.34Zm-15.45,59V73h9.84v7a1.4,1.4,0,0,0,1.4,1.4h5.62a1.4,1.4,0,0,0,1.4-1.4V73h4.22v7a1.4,1.4,0,0,0,1.4,1.4h5.62a1.4,1.4,0,0,0,1.4-1.4V73h4.22v7a1.4,1.4,0,0,0,1.4,1.4h5.62a1.4,1.4,0,0,0,1.4-1.4V73h4.22v7a1.4,1.4,0,0,0,1.4,1.4h5.62A1.41,1.41,0,0,0,62.5,80V73h4.21v7a1.4,1.4,0,0,0,1.4,1.4h5.62A1.41,1.41,0,0,0,75.14,80V73H85v53.37Zm0,5.62v-2.81h8.43V132Zm11.24,0v-2.81H26V132Zm11.24,0v-2.81h8.42V132ZM40,132v-2.81h8.43V132Zm11.24,0v-2.81h8.43V132Zm11.24,0v-2.81h8.42V132Z"/><path d="M80.3,72.23a13.22,13.22,0,0,0-6.56-4.32,8.9,8.9,0,0,1-3-1.63,5.84,5.84,0,0,1-.94-.91,9.48,9.48,0,0,1-1.19-2.23,11.52,11.52,0,0,0-3.53-5,4,4,0,0,1-1.43-2.23c-.87-3.81-3.16-10.73-8.85-15a1.36,1.36,0,0,0-.08-.32A11.51,11.51,0,0,0,47,32.67c-4.79-1.53-16.78-3.86-24.8,7.35-.53.76-1,1.42-1.52,2a19.47,19.47,0,0,1-3.78,3.55,6.72,6.72,0,0,0-3.16,5c-.53,3-.78,5.15-.9,6.4a8.15,8.15,0,0,1-.44,2.12A47,47,0,0,1,8.5,65l-.33.47C5,69.75,4,79.77,4.26,82.3c.48,4.79,3,9.63,7.44,9.64h0a7,7,0,0,0,4.73-2,11.26,11.26,0,0,0,3.42-6.32,55,55,0,0,1,2.87-10.94c1.3-3.05,2.31-5.24,3.66-5.76a3.77,3.77,0,0,1,2.85.43c3.4,1.58.62,8.77.56,8.88-.14.39-3.46,9.59-4.35,13C23.66,96,26.9,100,29,101.78a6.33,6.33,0,0,0,4.11,1.53,6,6,0,0,0,3.21-.92c2.17-1.34,3.84-4,5-7.78a29.74,29.74,0,0,1,2.34-5.54l.49-.89a34.1,34.1,0,0,0,3.78-14.63A17.4,17.4,0,0,1,49,78.08c0,3-2.66,11.6-3.7,14.65,0,.06,0,.1,0,.16-.66,2.88-.48,8.69,5,10a9.48,9.48,0,0,0,10.09-4.1c.22-.39,4.34-8,5.53-15.49,1.66,1.09,4.19,1.72,7.79.76,5.2-1.38,7-4.86,7.56-6.82A5.64,5.64,0,0,0,80.3,72.23ZM46.2,35.36a8.84,8.84,0,0,1,5.21,4.42c-4.91-1.11-16.09-3.19-24-1.38C33.81,32.69,41.69,33.91,46.2,35.36ZM78.52,76.44c-.52,1.7-1.91,3.93-5.59,4.91-4.88,1.3-6.41-1-6.76-1.77,0-.47,0-.94,0-1.39a76.93,76.93,0,0,0-1.54-12,1.42,1.42,0,0,0-1.73-1,1.4,1.4,0,0,0-1,1.71,72.48,72.48,0,0,1,1.46,11.48c0,.43,0,.89,0,1.36v.11c-.17,7.78-5.45,17.46-5.45,17.49a6.7,6.7,0,0,1-7,2.81c-3.92-1-3-6-2.91-6.61C48.49,92.07,51.87,82,51.8,78,51.73,75,48.73,67,47,66.14a1.56,1.56,0,0,0-1.6.13c-.81.6-.73,1.63-.56,2.64a30.91,30.91,0,0,1-3.2,17.92l-.49.89a32.1,32.1,0,0,0-2.57,6.09c-.92,3.09-2.22,5.24-3.77,6.2a3.37,3.37,0,0,1-4-.37c-1.94-1.67-4-4.72-2.65-9.72.87-3.28,4.25-12.67,4.27-12.71,1.46-3.59,2.68-10.27-2-12.43A7.86,7.86,0,0,0,27.14,64a4.43,4.43,0,0,0-1.75.33c-2.56,1-3.87,4-5.23,7.27A58.53,58.53,0,0,0,17.1,83.1a8.39,8.39,0,0,1-2.54,4.73,4.31,4.31,0,0,1-2.84,1.31h0c-3.1,0-4.39-4.67-4.64-7.13-.23-2.26.81-11.44,3.37-14.93l.32-.44c1.83-2.48,3.82-5.22,4.33-6.65a11.15,11.15,0,0,0,.61-2.81c.1-1.21.34-3.24.86-6.15a4,4,0,0,1,2.08-3.23,21.75,21.75,0,0,0,4.18-3.93s.05,0,.06-.06c4.89-5.81,23.06-2.6,30-.78,5.13,3.7,7.21,10,8,13.51a6.74,6.74,0,0,0,2.47,3.86A8.59,8.59,0,0,1,66,64.26a11,11,0,0,0,1.59,2.88,8.75,8.75,0,0,0,1.33,1.32,12.13,12.13,0,0,0,3.93,2.12,10.38,10.38,0,0,1,5.2,3.36A2.85,2.85,0,0,1,78.52,76.44Z"/><path class="cls-5" d="M78.52,76.44c-.52,1.7-1.91,3.93-5.59,4.91-4.88,1.3-6.41-1-6.76-1.77,0-.47,0-.94,0-1.39a76.93,76.93,0,0,0-1.54-12,1.42,1.42,0,0,0-1.73-1,1.4,1.4,0,0,0-1,1.71,72.48,72.48,0,0,1,1.46,11.48c0,.43,0,.89,0,1.36v.11c-.17,7.78-5.45,17.46-5.45,17.49a6.7,6.7,0,0,1-7,2.81c-3.92-1-3-6-2.91-6.61C48.49,92.07,51.87,82,51.8,78,51.73,75,48.73,67,47,66.14a1.56,1.56,0,0,0-1.6.13c-.81.6-.73,1.63-.56,2.64a30.91,30.91,0,0,1-3.2,17.92l-.49.89a32.1,32.1,0,0,0-2.57,6.09c-.92,3.09-2.22,5.24-3.77,6.2a3.37,3.37,0,0,1-4-.37c-1.94-1.67-4-4.72-2.65-9.72.87-3.28,4.25-12.67,4.27-12.71,1.46-3.59,2.68-10.27-2-12.43A7.86,7.86,0,0,0,27.14,64a4.43,4.43,0,0,0-1.75.33c-2.56,1-3.87,4-5.23,7.27A58.53,58.53,0,0,0,17.1,83.1a8.39,8.39,0,0,1-2.54,4.73,4.31,4.31,0,0,1-2.84,1.31h0c-3.1,0-4.39-4.67-4.64-7.13-.23-2.26.81-11.44,3.37-14.93l.32-.44c1.83-2.48,3.82-5.22,4.33-6.65a11.15,11.15,0,0,0,.61-2.81c.1-1.21.34-3.24.86-6.15a4,4,0,0,1,2.08-3.23,21.75,21.75,0,0,0,4.18-3.93s.05,0,.06-.06c4.89-5.81,23.06-2.6,30-.78,5.13,3.7,7.21,10,8,13.51a6.74,6.74,0,0,0,2.47,3.86A8.59,8.59,0,0,1,66,64.26a11,11,0,0,0,1.59,2.88,8.75,8.75,0,0,0,1.33,1.32,12.13,12.13,0,0,0,3.93,2.12,10.38,10.38,0,0,1,5.2,3.36A2.85,2.85,0,0,1,78.52,76.44Z"/><path class="cls-5" d="M51.41,39.78c-4.91-1.11-16.09-3.19-24-1.38,6.37-5.71,14.25-4.49,18.76-3A8.84,8.84,0,0,1,51.41,39.78Z"/><path class="cls-7" d="M41.47,32.1s-.08.07,1-10.58"/><path class="cls-7" d="M39.45,31.9s0,.27,1-10.38"/></svg>