<svg id="Capa_1" data-name="Capa 1" xmlns="http://www.w3.org/2000/svg" viewBox="0 0 797.52 802.53"><defs><style>.cls-1{fill:#eb392d;}</style></defs><path class="cls-1" d="M98.35-98.29c.28-.23.67-.4.84-.7.59-1,1.73-2,1-3.31s-2.29-1.28-3.57-.71c-1.83.82-3.63.13-5.33-.18s-2.34-2.56-2.95-3.81c-.92-1.89-3.21-3.66-2.47-5.92.87-2.69-1.29-4.62-1-7a1.72,1.72,0,0,0-1.07-1.79c-2.27-1-3.45-3.25-5.45-4.56A2.72,2.72,0,0,1,77.1-129c.18-2.45-1.25-4-3.7-3.7a4.81,4.81,0,0,1-4.36-1.2l.68-.56a2.79,2.79,0,0,0,3,1.16c3.49-.37,5,1,5,4.57a1.8,1.8,0,0,0,.67,1.55c2,1.41,3.28,3.52,5.48,4.68a2.58,2.58,0,0,1,1.55,2.69,3.84,3.84,0,0,0,.52,2.33,3.67,3.67,0,0,1,.46,3.52,3.61,3.61,0,0,0,.45,3c1.52,2.16,2.31,4.8,4,6.73,1.11,1.25,3.27,1,5,.69s3.23-.76,4.73.65c.79.75,3.4-.75,4.14-2.29.37-.76.55-1.48,1.73-1.28a1.82,1.82,0,0,0,2.21-1.37c.21-.71.93-1.37,1.45-.77,1.29,1.48,2.74.4,4.1.7-1.36.2-2.72,1.27-4.1-.11-.12-.12-.39-.1-.59-.15-.51,2.47-3.74,1.43-4.58,3.55-.34.86-1.22,1.26-2,1.69-1.7,1-1.35,2.18-.26,3.16a4.65,4.65,0,0,1,1.84,4.24c-.17,1.45,1.11,2,2,2.72.64.52,1.28,1.1,2,1.76A13.53,13.53,0,0,1,112-96a2.51,2.51,0,0,1,3.47-.55c.63.37,1.28.72,1.89,1.13,1.39.93,2.43,1.64,4.16,0,1.15-1.11,3.22-1.29,4.65-2.57s2.13-2.31,1.45-4.11c-.11-.29-.22-.74.3-.89h-.05c.62,3.47-.21,5.18-3.32,6.87-1.38.75-3.17.64-4.18,2.18-.29.43-1,.13-1.45-.09s-.88-.53-1.35-.73c-1.53-.64-2.81-3-4.75-1-3.15,3.23-4.6,5.68-2.59,8.58.45.64.83,1.18,1.62,1.32.49.08,1.12,0,1.35.56.8,2,2.21,1.46,3.75,1,3.84-1,6.84.71,7.91,4.4a6.6,6.6,0,0,0,2.11,3.31,2.38,2.38,0,0,1,.94,2.32c-.52,3.84-.53,3.84,3,5.82a.56.56,0,0,1,.26.33c0,.1-.12.23-.18.34H131a5.41,5.41,0,0,0-.88-.59c-2.89-1.18-3.4-2.05-2.88-5.11a2.73,2.73,0,0,0-.8-2.6,8.5,8.5,0,0,1-2.33-3.69c-.82-2.88-2.86-4.46-5.78-4.14-2.22.24-4.27,1.56-6.3-1.08-.83-1.09-2.46-1.85-3.23-3.29l-.24-.47-.5.48a4.54,4.54,0,0,1-6,1.7,7.41,7.41,0,0,0-3.68-.49c-1.38.16-1.53.85-.46,1.71-.51-.46-.9-1.66-1.84-.87-1.22,1-2.22.43-3.2-.17-1.48-.91-2.55-1-3.06,1-.37,1.46-1.18,2-2.5.87s-2.38-.78-3.11.75c-.29.6-.69,1.15-.93,1.76A7.27,7.27,0,0,1,78-77.41a8.1,8.1,0,0,0-3.92,2c-2.4,2.53-5.42,4.28-8.07,6.5-.78.65-1.28,1.23-.73,2.2.79,1.38.18,2.36-.78,3.33q-1.94,2-3.77,4c-.92,1-.7,1.68.76,1.75A8.65,8.65,0,0,1,68-54.36a1.86,1.86,0,0,0,2.27.57C73.1-54.58,76-55,78.54-52.72c1.06,1,1.81.39,2.51-.59a3.75,3.75,0,0,1,5.25-1.22,9.27,9.27,0,0,0,5.11,1.14,2.88,2.88,0,0,1,2.07.63c1.64,1.3,3.24,1.08,4.89,0a6.57,6.57,0,0,1,2-.8,9.85,9.85,0,0,0,5.83-4.18c.51-.73,1-2.08,2-1.33.77.53,1.5.11,2.18.44-.31.64-.86,1.23-1.38.89-1.61-1.06-2,0-2.47,1.17a1.92,1.92,0,0,1-1.13,1.28c-2.07.7-3.17,3.21-6.11,2.61,1.42,1.48,2.48,2.23,4.14,2.33,1.15.06,2.6.13,3.52,1,4.08,4,9.62,1.5,14.2,3.21.23.09.57-.08.84-.17,2.76-.83,5.45-2.36,8.43-.7.15.08.56-.12.75-.3,1.13-1,2.76-1.33,3.61-2.81.44-.79,1.35-1.51,2.32-.37v0c-.72,0-1.49-.09-2,.65a6.83,6.83,0,0,1-2.85,2.32c-1.24.62-1.24,1.33.13,1.9,1,.43,2.21.84,2.6,1.9.85,2.33,3.07,3.11,4.71,4.53a3.92,3.92,0,0,0,4,1.08,1.3,1.3,0,0,1,1.58.4v0c-.51.07-1.12,0-1.5.23-2.49,1.64-4.34.12-6.15-1.23a12.28,12.28,0,0,1-4.05-4.09c-1.44-2.74-6.88-3.76-9.94-2.29-1.67.8-3.23,1.17-5,.23a4,4,0,0,0-4-.18,3.29,3.29,0,0,1-3-.14c-1.89-.82-3.78-1.66-5.59-2.64a14.61,14.61,0,0,0-3.11-1c-2.86-.79-5.85-1.22-8.62-2-3.18-.84-6.68-.78-9.69-2.57-1.3-.77-3.24,1.25-3.54,3.32a.49.49,0,0,0,0,.21s.11,0,.16,0c-.08-.21-.16-.59-.24-.59-3.24,0-5.84-3.82-9.2-2-3.21,1.74-4.57-.5-6.34-2.12-1.49-1.37-3.35-1.42-5.16-1.67-1-.14-1.26.66-1.59,1.28a16,16,0,0,1-5.43,5.7,6.59,6.59,0,0,1-5,.88,28.71,28.71,0,0,0-7.91-.11,3,3,0,0,0-2.92,2.27,6,6,0,0,1-4.76,4.42,5,5,0,0,0-1.2.56c-1,.51-2.49.82-2.79,1.59-.36,1,1.56,1.59,1.75,2.43.58,2.57,2.79,3.84,4,5.83A6.23,6.23,0,0,1,35-26.23a4.25,4.25,0,0,0,1.23,4.61,5.29,5.29,0,0,1,1.39,3.79c.14,2.35.27,4.78,2.24,6.59a6.7,6.7,0,0,1,1.84,2.47C43-5.16,45.49-2.41,47.8.55c1.87,2.39,3.92,4.34,6.79,5,3.08.69,5.24,2.54,7.38,4.58,1.14,1.09,2.09,2.25,3.84,2.66,1.06.24,1.88,1.57,2.79,2.42.31.3.62.93.88.9,3.31-.35,5.94,1.82,9.07,2.35S85,19.57,88.32,20c3.52.46,7,1.08,9,4.93,1.1,2.16,3.18,3.81,6,2.15.94-.54,1.65,1.3,2.67.31h0c-.17,1.06.73,1.6,1.28,2.15a25.31,25.31,0,0,1,4.33,4.95c.78,1.34,2.45,1.48,4,1.51,1.79,0,3.71-.59,5.16,1.16.37.46,1-.1,1.44-.16,1.78-.22,3.5-.31,5,1.91-2.17-1.08-3.91-1.85-5.79-.69a.81.81,0,0,1-.79-.17c-1.31-1.73-3.15-1.28-4.89-1.27-2.47,0-4.43-.77-5.64-3.13s-3.72-3.22-5.21-5.22a1.12,1.12,0,0,0-1.38-.38,5,5,0,0,1-6.75-2.56c-2-4.05-5.69-4.31-9.23-4.76-3.29-.42-6.5-1.29-9.71-1.74-2.86-.4-5.21-2.27-8.18-2.08C68.08,17,67.9,15,66.71,14.39c-.76-.41-1.47-1.83-2.25-.78s-2.22,2.52-.55,3.87A7.61,7.61,0,0,1,66.74,24c0,1.16.83,2,1.49,2.89,1.66,2.14,2.94,4.44,2.82,7.22-.14,3.48.92,6.8,1.43,10.16a11.34,11.34,0,0,0,3.73,6.77c1.62,1.45,4,1.74,5.09,3.82,2.1,4.07,5.77,7,7.84,11.15a23,23,0,0,1,1.78,5.44c.53,2.37,2,3.39,4.33,2.76a2.69,2.69,0,0,1,3.23,1.19c1.18,1.66,2.51,3.08,4.65,3.46a1.5,1.5,0,0,1,.93.55c2.22,3.69,6.7,4,9.68,6.55.33.28.89.48,1,.82.65,2.3,2.6,3.14,4.46,4.12-2-.54-4-1-4.48-3.44,0-.27-.25-.67-.46-.72-2.85-.71-4.42-3.68-7.4-4.14-.5-.08-1.28-.21-1.4-.53-1.36-3.42-5.85-3.26-7.37-6.53a2,2,0,0,0-2.68-.9,3.57,3.57,0,0,1-2,.13c-.6-.09-1.46-1-1.69-.34-.34,1-1.48,1.75-.89,3.21a16.8,16.8,0,0,1,1.49,7.95,1.71,1.71,0,0,0,1,1.81,4.34,4.34,0,0,1,1.33.77c2.15,2.48,4.5,4,8.12,3.85,2.63-.09,3.57,3.23,5.51,4.76,2.59,2,4.64,4.74,8.18,5.6,1.57.39,2.83,2,4.22,3.11A39.23,39.23,0,0,0,131,111.2c1,.39,1.2,1.24,1.56,2,1.68,3.52,3.13,4,6.49,2.19a1.9,1.9,0,0,1,1.69-.3c2.52,1.1,5.37,1.26,7.77,2.74,1,.63,2.17,1,3.26,0,.11-.1.24-.25.36-.25,3.16.1,5.39-2.31,8.25-3a7.56,7.56,0,0,1,2-.23c2.16,0,4.34.27,6.5.18a2.71,2.71,0,0,1,2.74,1.38c1,1.64,2.4,3.08,2.58,5.16a2.36,2.36,0,0,0,.73,1.33c1.45,1.41,8.69,1.81,10.15.41a1.49,1.49,0,0,1,1.94-.22,15.09,15.09,0,0,0,9.43,1.09,2.41,2.41,0,0,1,2.51,1c.37.46.75,1.06,1.42.9,2.19-.54,2.46,1,2.75,2.49a7.34,7.34,0,0,0,3.58,5.32,4,4,0,0,0,4,.4,7.26,7.26,0,0,1,5,0,2.86,2.86,0,0,0,2.86-.56c2.57-2.21,3.11-2.26,6-.63.37.21.76.81,1,.74,3.24-.86,4.5,1.72,6.22,3.5.59.6,1.45,1.3,2.12.79,2.1-1.63,2.89-.06,3.7,1.35s1.63,2.07,3.14,1.95c-1.43.57-2.4-.13-3.16-1.33s-1.27-2.94-3.59-1.62c-1.35.78-2.63-.77-3.43-1.84-1.22-1.63-2.3-3.09-4.67-2.21-.58.21-.82-.48-1.21-.78-2.41-1.83-3.81-1.71-5.86.5a2.66,2.66,0,0,1-3.12.91,7.66,7.66,0,0,0-4.37-.24c-4.09,1-7.34-.87-8.52-5-.16-.56-.26-1.15-.42-1.71-.11-.35-.31-1-.42-1-2.66.26-4.18-3-7.09-2.17a7.92,7.92,0,0,1-6.15-.61,3.3,3.3,0,0,0-4.06.14c-1.57,1.28-8.55.37-10.05-1a3.11,3.11,0,0,1-1.17-2.08c-.08-2.09-1.79-3.29-2.62-5-.39-.8-1.16-.82-1.93-.64-1.64.39-3.27-.22-5,.15-1.17.24-3.2-.74-4.3.23-2.3,2-5.37,1.78-7.83,3.15a2.76,2.76,0,0,1-3-.16c-2.2-1.42-4.84-1.56-7.14-2.63a2.43,2.43,0,0,0-2.67.33c-2,1.49-5.25,1.06-6-1.22-1.13-3.39-4.29-3.57-6.69-5.63a9.42,9.42,0,0,1,.26,4.17c-.09.33-.12.87.07,1,2.27,2,3.16,4.88,4.89,7.19.68.9,1.5,1.77,1.42,2.92-.14,2,1.05,3.3,2.42,4.45,2.21,1.85,4.48,3.51,7.54,3.88a12.57,12.57,0,0,1,5.71,2.81c2.57,1.92,5.61,1.37,8.39,2s6.61,0,8.58,3.44a4.49,4.49,0,0,0,4.13,2.37c2.61.07,4.15,2.39,5.43,4.43,1.18,1.89,2.41,3.86,2.33,6.29a2.72,2.72,0,0,0,.51,1.65c1.74,2.09,2.27,4.44,2.86,7.1a49,49,0,0,0,2.71,8.06,4.86,4.86,0,0,1,.5,2.57c-.66,4.93,1.78,8.57,5,11.87.67.68,1.4.26,2.07,0,2-.72,3.93-1.6,6-2.21,1.3-.39,2.41-1.11,2.25-3-.14-1.66,1.24-3,1.77-4.64h0c.46,1-.26,1.64-.56,2.42a6.36,6.36,0,0,0-.74,2.9c.09,1.63-1.26,2.34-2.63,2.84-1.59.58-3.22,1.06-4.76,1.74-1.84.81-3.44,1.21-4.74-.91-.5-.83-1-.78-1.45.34-.8,2.24-.19,4.42.53,6.39.91,2.49,2.28,4.82,3,7.39a1.67,1.67,0,0,0,.72,1.05c2.81,1.08,2.42,3.65,2.6,5.81.26,3.05,1.69,4.68,4.79,4.87a5.75,5.75,0,0,1,5.3,4.71c.33,2,.81,3.78,3.51,3.52,1-.09,1.63.81,2.21,1.62,1.38,2,2.54,4.22,5.57,4,.86-.06,1.29.88,1.67,1.61,2,3.89,2.06,4,6.42,3.43,1.58-.2,2.63.59,4,1.11,3,1.18,3.13,3.67,4.25,5.8,1.49,2.82,2.41,3.22,5.4,2.72a2.71,2.71,0,0,1,1.06,0c3,.74,3.6.5,5.54-2.24,2.36-3.34,4.68-3.58,7.6-.62a3.49,3.49,0,0,0,2.39.86c2.66.33,3.82,1.54,4,4.17,0,.48.15,1.09.48,1.16,2.26.5,3.58,3,6.16,2.81-1.55.9-1.54.89-2.95-.23a3.65,3.65,0,0,0-1.3-.82c-2.33-.43-3.29-1.6-3.25-4.12,0-1.5-1.83-2-3.19-2.13a4.42,4.42,0,0,1-3.23-1.47c-1.85-2.1-4.06-1.83-5.68.5a11.87,11.87,0,0,1-2.89,3c-1.43,1-8.16.4-9.25-.94a12,12,0,0,1-2.61-4.78c-.3-1.23-.71-2.26-2.24-2.24-.2,0-.54-.08-.6-.22-1.12-2.62-3.3-1.43-5.09-1.35-3.38.14-3.91-.06-5.25-3.13-.61-1.4-1.31-2.24-3-2.29-2.09-.06-3.12-1.89-4-3.44a3.64,3.64,0,0,0-4.16-2c-.5,2.65,1.11,4.88,1.7,7.28a8.47,8.47,0,0,1-.07,4.74,6.28,6.28,0,0,0,4.06,7.58,2.36,2.36,0,0,0,1.06.08c3.5-.45,5,1.54,5.19,5.25.12,2.1,1,4.29,1.22,6.5,0,.29.3.65.2.84-1.25,2.43.31,4.14,1.5,5.93.66,1,0,1.91-.3,2.72a4.2,4.2,0,0,0,.5,4.52c1.15,1.55,1.07,3.66,1.39,5.51a26.74,26.74,0,0,0,2.43,6.52c.6,1.33,1.69,1.11,2.6.58,1.93-1.14,3.17-.36,4.25,1.24.41.61.81,1.26,1.76.88,2.21-.89,2.46.6,2.61,2.19h0c-.63-1.35-1.24-2.52-3.18-1.66-.89.39-1.24-.86-1.72-1.44-1-1.13-1.85-1.7-3.39-.88-1.7.9-2.68.36-3.8-1.49a29,29,0,0,1-3.53-9.07,4.71,4.71,0,0,0-1-1.95,4.24,4.24,0,0,1-.62-4.75,3.33,3.33,0,0,0-.61-4c-1-1-1-2.22-.88-3.67.19-2.33.38-4.81-1-7a2.9,2.9,0,0,1-.18-2.31,2.37,2.37,0,0,0-3-2.86A3.08,3.08,0,0,1,210,241c-4.08-1.4-6.62-5.75-5.27-9.83.72-2.17-.05-4-.59-5.72-1.11-3.43-1.55-7-2.71-10.38a4.2,4.2,0,0,0-3.57-2.69c-4.64-.69-6.22-2.44-6.47-7a6.12,6.12,0,0,0-2-4.27,13.5,13.5,0,0,1-4-6.48,3.79,3.79,0,0,0-1-2.15c-.34-.3-.31-1.16-1-.84s-1.16.73-1,1.53a23.52,23.52,0,0,0,.69,2.78c.53,1.58.18,2.77-1.42,3.42a2.48,2.48,0,0,0-1.63,3.3c.33,1.17.32,2.16-.79,2.93a2,2,0,0,0-.78,1.7,4.6,4.6,0,0,1-3.31,4.4,43.12,43.12,0,0,1-4.54,1.68,2,2,0,0,0-.79,3.42,3.37,3.37,0,0,1,1.29,3.27c-.19,1,1,1.68,1.68,2.48,2.08,2.62,2,4.2-.41,6.46a5.75,5.75,0,0,0-1.81,4.26c-.1,2.71-.64,2.94-3.21,2.76a7.68,7.68,0,0,1-4-1.42c-1.51-1-6.87.76-7.6,2.32-.29.61,0,1.16.12,1.72.2.95.45,1.87-.24,2.74s.1,1.54.34,2.26c.67,2-.17,4.08-2.71,5.43.68-1,1.08-1.76,1.57-2.41a2.46,2.46,0,0,0,.34-2.87c-.58-1.09-1.2-2.17,0-3.37.27-.27.12-1.19-.11-1.69-.82-1.75.17-2.73,1.39-3.68,2.08-1.61,6.26-1.93,8.3-.46,1.23.9,2.64.41,3.94.76.83.23,1-.9,1-1.64a7.48,7.48,0,0,1,2.83-6.11c1.54-1.39,1-2.75-.07-4.1s-2.78-2.51-2.21-4.75c.08-.3-.53-.82-.87-1.18-.77-.81-1.7-1.53-1.11-2.85a4,4,0,0,1,2.63-2.39c2.08-.66,4.49-.86,5.86-3.05.48-.76,1.16-1.35.77-2.35-.23-.62.2-1,.56-1.34a3.08,3.08,0,0,0,1-3.47,2.86,2.86,0,0,1,1.95-3.44c1.35-.46,1.59-1.29,1.18-2.58-.59-1.86-1.58-3.82.65-5.36a.26.26,0,0,0,.1-.19c-.41-3.28.56-6.75-1-9.86a15.52,15.52,0,0,1-1.74-7.95,11.33,11.33,0,0,0-2.16-7.45c-1.05-1.34-1.8-2.69-1.2-4.47a1.56,1.56,0,0,0-.41-1.64c-1.83-1.83-2.2-4.26-2.81-6.62-.72-2.74-1.84-5.09-5.22-5.39a5.59,5.59,0,0,1-3.76-2.19c-2.06-2.68-4.79-3.11-7.93-3.23-3.32-.14-6.71-.37-9.43-3-2.45-2.33-6-2.32-9-3.47-4.65-1.8-8.38-4.58-9.34-9.91,0-.14,0-.4,0-.42-3-1.34-2.16-5-4.35-6.89-1.64-1.4-2.13-3.24-2.22-5.51-.07-1.79-1.74-3.29-3.46-4.26-4.81-2.72-10.14-4.66-13.64-9.32-.79-1-1.87-1.87-2.74-2.87a1.87,1.87,0,0,0-2.2-.46c-2.39.67-4.21-.26-5.61-2.12a11.83,11.83,0,0,0-3.43-3.06c-1-.57-1.72-1.07-2.71-.18s-2.52,1.43-2.05,3.26c.09.35.2.84,0,1.08-2.37,3.27.06,7.07-1.15,10.48-.18.53.18,1.29.38,1.92s.8,1.58.5,2.33c-1.08,2.66.31,5.07.6,7.59a2.66,2.66,0,0,0,.59,1.61,3.28,3.28,0,0,1,.59,3.54c-.83,1.83,0,3.11.9,4.44,1.29,1.8,3,3.42,3.81,5.41a11.1,11.1,0,0,0,5.8,6.08c1.42.71,3.45,1.77,4.23,3.72.17.44.56.42.91.23,1.46-.79,3.15-1.08,4.23-2.64.92-1.31,2.16-2.64,4.1-1.38v-.06a3.2,3.2,0,0,0-3.35,1.24A8.49,8.49,0,0,1,105,142c-.43.19-1.32.24-1.08,1.09a1.32,1.32,0,0,0,1.31,1c2.18-.06,2.25,1.08,1.93,2.85s-.49,3.56,1.63,4.54c.57.26.52,1,.62,1.58a1.81,1.81,0,0,0,.79,1.47c4.14,2.53,4.73,6.62,4.71,11H115a21.68,21.68,0,0,0-2.28-7.83,1.43,1.43,0,0,1-.1-.42c-.35-1.67-2-1.82-3-2.64s0-2.8-2-3.22a12.18,12.18,0,0,1-1.19,5.29c-.75,1.54-1.52,3.08-3.31,3.65-2.72.87-2.75,4.2-5.17,5.32,3,2.91,1.53,4.39-1.6,8.54-1.2,1.59-2.29,3-2.12,5,0,.36-.08.87.12,1.06,2,1.93,1.49,4.25,1.21,6.59a3.2,3.2,0,0,0,.49,2.32c1.69,1.7,1.17,3.77,1.32,5.74h0c-1.29-1.3,0-3.19-1.23-4.69-1-1.26-1.37-1.27-2,0a4.3,4.3,0,0,1-4.58,2.64,2.1,2.1,0,0,0-2.07,1c-.49.73-1.34.74-2.1,1-2.21.75-4.85,1.2-5.65,3.77-.58,1.87-2.6,3.37-1.42,5.84a1.71,1.71,0,0,1-1.87,2.31c-1.39-.14-2.39.05-3,1.72-.32-2.12.48-2.77,2.12-2.56,2,.26,2.36-.76,1.85-2.39-.37-1.18-.68-2.3.58-3.17a1.8,1.8,0,0,0,.32-.27c-1.38-2,.91-2.45,1.6-3.37,1.25-1.67,3.55-1.86,5.27-2.84,2.33-1.35,5.15-1.36,7.23-2.87,1.1-.8,1.42-2.55,1.78-4.19.69-3.13-1.21-5.45-1.62-8.18s1-3.95,2.34-5.16c1.47-1.36,1.53-3.39,3-4.66.56-.48-.09-1.17-.63-1.64-1.36-1.19-1.45-2.33.25-3.32a3.52,3.52,0,0,0,1.75-2.44c.2-1.57,1.53-2,2.43-2.47a7.56,7.56,0,0,0,4.25-7.41c-.11-1.69-.59-3.36-.29-5.07.08-.49,0-1-.59-.92-1.55.18-1.82-1.19-2.61-2-2.25-2.22-4.09-4.95-7.42-5.85-1.09-.3-2.18-.94-2.25-2.19-.11-2-1.34-3.35-2.46-4.82s-2.28-3.26-3.36-4.93c-.35-.55-.9-1.42-.7-1.8,1.48-2.8-.69-5.16-.78-7.75-.07-1.71-.19-1.73-2-1.2.13-3,1.8-5.65.79-9.2a17.74,17.74,0,0,1-.25-9c.81-2.81.3-6.89,4.28-8.25a.87.87,0,0,0,.62-1c-.59-3.14-.17-6.47-1.72-9.43a3.7,3.7,0,0,1-.22-2.8c1-3.26-.44-5.76-1.83-8.63-1.79-3.7-5.36-5.81-7.17-9.45-.78-1.56-3-2.43-4.64-3.51C72,52.92,71,51.94,70.87,50.31S69.35,48,69,46.59a69.51,69.51,0,0,1-1.69-10.8c-.16-2.71-.67-5.14-2.58-7.25-1.45-1.6-2.72-3.43-2-5.88a1.29,1.29,0,0,0-.84-1.43c-2.4-1.24-2.4-3.48-2.5-5.7,0-.86,1.13-1.81.31-2.45-1.32-1-2.15-2.77-3.88-3.2C51,8.67,47,6.3,44.33,1.9A4.32,4.32,0,0,0,42.49.37a4.76,4.76,0,0,1-2.63-3.79c-.34-2.14-1-4.3-3.33-5.39a3.67,3.67,0,0,1-2-3c-.22-2-1.06-4-.72-6.11.14-.81-.37-1.23-.85-1.68a6.32,6.32,0,0,1-1.73-6.84c.64-2.17.42-3.87-1.91-4.9A3.15,3.15,0,0,1,27.63-34c-.26-1.64-1.24-2.39-3.08-2.81-3-.67-6,.05-8.92-.92a1,1,0,0,0-.65,0c-3.52,1.28-6-.64-8.11-2.95C5.7-42,4.31-42.87,3.08-44c-.57-.52-1-.32-1.62-.2-3.44.7-4.46.37-6.3-2.56a7.8,7.8,0,0,0-4.62-3.8,9.33,9.33,0,0,1-4-1.83,1.27,1.27,0,0,0-1.64,0c-.65.39-.25.91-.17,1.38a10.82,10.82,0,0,0,1.65,4.3,5.05,5.05,0,0,1,1.07,1.92c.31,2.18,1.76,3,3.57,3.94,3,1.47,3.68,4.89,1.83,7.7a2.59,2.59,0,0,0-.42,2.5c1.24,2.86,1.47,6.05,3.05,8.81a23.1,23.1,0,0,1,1.87,4.45c.62,2,1.57,4.14,4.26,4.48,1.3.16,1.72,1.8,3,2.15v-.05c-.52.58-1,.14-1.26-.2-.83-1.18-2-1.52-3.32-2-1.8-.61-2-2.72-3.12-4-.3-.36-.21-1-.78-1.23-1.58,1.83-1.55,2.55.31,3.75a1.84,1.84,0,0,1,1,1.33A3.29,3.29,0,0,0-.48-10.74C1-10,2-9.06,1.86-7.47.23-10.39-3-11.93-5-14.88c.53,3.13-2.63,4.37-2.92,6.91-.16,1.48-.65,2.87.29,4.25.16.23.36.71.28.78-2.14,1.87.39,4.18-.59,6.16a1.1,1.1,0,0,0,.5,1.37c1.78.8,2.79,2.69,4.92,3.09C.7,8.28,2.36,11,1.78,14.26c-.09.51-.34,1-.1,1.5a6.71,6.71,0,0,1-.63,6.89c-.76,1.2.13,2.85.76,4,1.07,1.9.84,3.79.76,5.73-.09,2.19-1.13,4.58,1.57,6.08.25.14.35.85.27,1.23-.5,2.3,1,2.66,2.7,3,3.73.78,6.54,3.32,6.53,6.84s-.34,7.34.06,11c.06.55-.33.78-.65,1.06-2.92,2.51-3.35,3.5-.45,7.69.3.44.6.78.39,1.38-.77,2.2.32,3.58,2,4.83,2.5,1.83,2.75,2.79,1.89,5.63a1.44,1.44,0,0,0,.55,1.75c.6.42,1.18.87,1.8,1.25,1,.61,2.06,1.57,1.75,2.59-.74,2.43.15,4.93-.53,7.25a6.16,6.16,0,0,0,.35,4.88c1.32,2.57,1.75,5.44,2.73,8.13a7.74,7.74,0,0,1,.13,2.17h0c-1.23-4-2.21-8.12-4-12a1.24,1.24,0,0,1-.15-.86c1.24-2.66-.06-5.59.94-8.32.57-1.54-.11-2.83-1.67-3.64-1.85-1-3.42-1.91-1.77-4.54.82-1.32-.65-2.69-1.73-3.49-2.08-1.55-3.62-3.07-2.89-6,.18-.75-1-1.83-1.51-2.77A4.13,4.13,0,0,1,11.82,62a3.38,3.38,0,0,0,1-3.6A11.84,11.84,0,0,1,13,51.2c.89-2.43-1.89-6.46-5-7.49-.77-.25-1.58-.36-2.35-.6-1.34-.41-2.56-.89-2-2.75a1.61,1.61,0,0,0-.71-1.73,3.54,3.54,0,0,1-1.37-3.71A18,18,0,0,0,.29,24.41a2.4,2.4,0,0,1,.48-3A2.57,2.57,0,0,0,1.55,19c-.74-2.61-.21-5.35-1-7.94-.31-1-.87-2.1-1.94-2.19-2.51-.2-4.11-1.94-6-3.15-.44-.28-1.14-.51-1.08-1,.28-2.51-1.36-5,0-7.49a.71.71,0,0,0,0-.79c-1.13-2.06-.32-4,.32-6,.26-.82,0-1.9,1.41-2.16.64-.12.63-1.11.63-1.76,0-2.45,1-4.89.13-7.36h-.06c.49.52.2,1.6,1.27,1.82a3.94,3.94,0,0,0-.74-3.15c-.48-.79-.55.1-.75.36h0c0-.06-.13-.12-.12-.17.18-3.56-2.23-5-4.94-6.43a19,19,0,0,1-3.23-2.69,1.2,1.2,0,0,1,1.51.54c1.39,2.05,3.51,3,5.89,4a17.23,17.23,0,0,0-.58-2.05c-.87-2-1.12-3.81.42-5.77C-6.11-35.93-7.11-39.07-9-40c-2.23-1.05-4.11-2.16-4.36-4.9,0-.39-.47-.73-.7-1.11a9.39,9.39,0,0,1-1.69-3.81A2.16,2.16,0,0,0-18.36-52,3.7,3.7,0,0,1-22-54a9.09,9.09,0,0,0-2.59-2.65l3.08-2.53A7.56,7.56,0,0,1-20-57.62c1,1.87,2.47,1.78,4.08,1.32a3.92,3.92,0,0,1,3.41.09c2,1.32,4.36,2,6.53,2.93,2,.88,3,2.58,4,4.25.55.87,1,1.66,2.24,1.16,3.22-1.35,5.3.63,7.35,2.56a28.62,28.62,0,0,0,2.78,2.84,5.65,5.65,0,0,0,4.06.91,31.69,31.69,0,0,1,9,.34,8,8,0,0,0,6-.71,16.11,16.11,0,0,1,2.8-1.3,5.2,5.2,0,0,0,4-3.71c.6-1.87,2-2.77,4.1-3.17a17.36,17.36,0,0,1,7.11,0c3.78.84,6.29-.93,8.44-3.48a36.54,36.54,0,0,0,3.65-5.51c1.09-1.91,2.81-3.2,4.25-4.77.8-.87,1.36-1.65.7-2.9s0-2,.92-2.84c2.59-2.29,5.67-4,8.11-6.49a9.28,9.28,0,0,1,4.32-2.14,6.64,6.64,0,0,0,4.66-4,9.8,9.8,0,0,1,2.85-4.12,3,3,0,0,0,.79-2.42l0,0a1,1,0,0,1,.33,1.38c-1,1.69.65,1.73,1.41,2.21,1.26.79,1.24-.52,1.49-1.13.67-1.61,1.56-2.22,3.2-1.13a3.13,3.13,0,0,0,3.82.21,5.89,5.89,0,0,1,5.73-.15,5.53,5.53,0,0,0,1.91.51c1.91.15,3-1,3.75-2.58s-.65-2-1.51-2.71c-1.3-1.1-3-2-2.3-4.26a2.2,2.2,0,0,0-.94-2.14,4.92,4.92,0,0,1-1.87-2.61c-1.15.89-.76,3-2.74,2.86Z"/><path class="cls-1" d="M107,247.06A2.49,2.49,0,0,0,105,244c-4.35-1.23-6.64-4.54-7.45-8.61-.68-3.42-.43-7-1.38-10.45a3.26,3.26,0,0,1,.45-2,11.07,11.07,0,0,0,1.23,6.79,1.93,1.93,0,0,1,0,1.72c-.67,1.4-.21,2.76.16,4.09a11.32,11.32,0,0,0,7.45,8.15C107.53,244.45,107.55,244.73,107,247.06Z"/><path class="cls-1" d="M214.23,270.69a15.69,15.69,0,0,0-.47,3.59c.1,1.54-1.37,2-2.66,2.51-.67.24-2,0-1.91.6.12,1,.12,2.25,1.12,3a2.75,2.75,0,0,1,1.29,3c-.31,1.65-1,2.64-2.83,2.68-2.55.05-5.08.21-7.23-1.55v.05c2,.26,3.74,1.46,5.89,1.09,1.25-.22,2.69.26,3.39-1.25a2.77,2.77,0,0,0-.89-3.84c-1.2-.9-1-2.52-1.52-3.79,4.63-.54,5.56-1.53,5.81-6Z"/><path class="cls-1" d="M213.32,181.79a6.09,6.09,0,0,0,4-2.84c1.64-2.63,2.77-2.79,5.37-1.07a5.6,5.6,0,0,0,7.84-1.43,4.11,4.11,0,0,1,3.63-2,7.22,7.22,0,0,0-3.73,2.85c-1.79,2.31-5.49,2.62-8,.89-2.3-1.61-3.25-1.42-4.81,1s-2.48,2.88-4.33,2.55Z"/><path class="cls-1" d="M254.89,142.42c2.14.71,4.19,1.49,5.49-1.48.48-1.1,2-.33,2.88-.25,2.91.27,4.6-1.74,6.51-3.15a13.52,13.52,0,0,1,2.75-1.92c-1.88,1-3.08,2.72-4.83,3.95-2,1.38-3.52,1.74-5.64,1-.64-.22-1.22.24-1.64.86-1.61,2.4-3.15,2.64-5.52.91Z"/><path class="cls-1" d="M114.48,167.94c.47.27.56,1.19,1.34.89a3.3,3.3,0,0,1,4.13.87c.52.59,1.24-.18,1.66-.63a4.06,4.06,0,0,1,3.55-1.33c2,.14,3.5-.94,5-2,.68-.49,1.26-1.13,2-.1v0c-.82-.15-1.34.41-2,.79-1.7,1-3.4,2.07-5.54,1.8a3.45,3.45,0,0,0-2.88,1.35c-.88.87-1.78,1.32-2.74,0-.77-1.09-1.83-.58-2.81-.26-1.2.4-1.84.09-1.64-1.29Z"/><path class="cls-1" d="M213.32,181.73c-2.73.92-6.1-1.14-5.58-3.66.47-2.31-1.32-2.91-2.43-3.64s-2.68-.14-3.78.88c-.22.2-.4.43-.59.64h0c.43-1.5,3.33-3,4.41-2.07,1.28,1.13,3.35,1.77,2.77,4.43-.44,2,1.72,2.6,3.21,3.26a6.22,6.22,0,0,0,1.95.21Z"/><path class="cls-1" d="M95.19,202.9c-2.28,4.61.42,8.25,1.91,11.65-2.32-1.34-2.22-4.48-3.15-7.06a4.19,4.19,0,0,1,1.3-4.59Z"/><path class="cls-1" d="M122.27,140.33c.9-.3,1.79-.65,2.72-.88.6-.15,1.39-.53,1.78.26,1.07,2.19,2.07,1.17,3.11.06-.43,1.5-2.24,2.33-2.8,1.23-1-1.88-2.07-1-3.27-.68-.51.14-1,.62-1.54,0Z"/><path class="cls-1" d="M19.51,120.1c-.74,2.41-1.2,3.16-4.18,6C16.17,123.24,19.58,121.94,19.51,120.1Z"/><path class="cls-1" d="M13,7.73a1.36,1.36,0,0,1-.28-1.79,2.9,2.9,0,0,0-.12-3.66c-.63-.9.89-1.06,1.13-1.77-.74,2.36.39,4.91-.78,7.2Z"/><path class="cls-1" d="M112.12,138c2.54-1.52,4.81-1.06,6.82,1.18-2-1.93-4.42-1.66-6.82-1.24Z"/><path class="cls-1" d="M247.58,139.78c-1.68.88-3.36,1.75-5.48.26,2.06,1,3.73-.11,5.47-.21Z"/><path class="cls-1" d="M8,30.84c-.59-.4-.32-.94-.09-1.33a5.21,5.21,0,0,0,.23-5.27H8c1.49,1.08,1.41,2.49.82,4-.34.86-.65,1.73-1,2.6Z"/><path class="cls-1" d="M234.59,282.12c-.18,1.52-2.84,1.84-1.84,3.92-.93-1.64-.93-1.64,1.89-3.92Z"/><path class="cls-1" d="M13,12.74a1,1,0,0,1,0,1.54c-1.53,1-1.51,2.52-1.83,4h.05c-.42-1.47-.51-2.82,1.11-3.74.6-.34.51-1.14.7-1.75Z"/><path class="cls-1" d="M20.54,113.88c-.27-1.34-.19-2.5,1.46-2.89,1-.22.88-1.49,1.74-1.83h0c-.23.65-.13,1.51-.92,1.82a3.83,3.83,0,0,0-2.28,2.91Z"/><path class="cls-1" d="M109,254.59c.32-2-1.78-2.58-2.6-4.14,2.91,2.49,2.91,2.49,2.55,4.14Z"/><path class="cls-1" d="M109,254.59c.29,1.54,2,2.13,2.34,3.66-.64-1.3-2.76-1.64-2.29-3.66Z"/><path class="cls-1" d="M199,285a3.77,3.77,0,0,0-2.15,2.14c.31-1.11.27-2.58,2.14-2.08Z"/><path class="cls-1" d="M11.17,18.24c.38,2-.49,3-2.69,2.87l0,.05c1.5-.43,2.69-1.14,2.76-2.92Z"/><path class="cls-1" d="M9.28,35.41c-1.16-.59-1.39-1.61-1.47-2.88C8.64,33.43,8.27,34.8,9.28,35.41Z"/><path class="cls-1" d="M122.27,140.28c-1.27.75-1.63-.69-2.4-1.14l2.4,1.19Z"/><path class="cls-1" d="M248.21,139.87a5.71,5.71,0,0,1,3,1.65v-.06a6.86,6.86,0,0,1-3-1.65Z"/><path class="cls-1" d="M95.66,200.12c.64,1.06-.16,1.88-.48,2.78h.07c-.51-1,.33-1.84.46-2.78Z"/><path class="cls-1" d="M96.4,198a2.85,2.85,0,0,1,.91-3.07h0c-.3,1-.61,2.05-.91,3.07Z"/><path class="cls-1" d="M20.49,113.88c1,.62.5,1.57.39,2.42l-.33-2.42Z"/><path class="cls-1" d="M114.89,165.47c-.25.8.34,1.75-.41,2.47h0c0-.85-.62-1.8.42-2.47Z"/><path class="cls-1" d="M7.67,21.67c.65.77,1.75,1.48.37,2.56h.05c.45-.94-.23-1.71-.37-2.56Z"/><path class="cls-1" d="M201.54,284.5a1.82,1.82,0,0,1-1.94.61v.05c.51-.65,1.24-.59,1.95-.61Z"/><path class="cls-1" d="M254.25,142.42l-1.52-.45V142c.68-.4,1.15-.14,1.53.46Z"/><path class="cls-1" d="M8.48,21.11l-.81.56h0c0-.34-.09-.71.34-.81.11,0,.27.19.41.29Z"/><path class="cls-1" d="M251.19,141.52a1.18,1.18,0,0,1,1.53.5V142l-1.54-.51Z"/><path class="cls-1" d="M106,27.39l.54-.62-.57.63Z"/><path class="cls-1" d="M13,7.71v.54c-.09-.06-.25-.1-.26-.17s0-.4.32-.35Z"/><path class="cls-1" d="M7.89,30.83v1c-.08-.05-.24-.1-.24-.16,0-.31-.16-.69.3-.82Z"/><path class="cls-1" d="M132.12,165.63c0-.34.22-.33.43-.23s.09.21.13.32l-.57-.14Z"/><path class="cls-1" d="M95.7,198.84c.65.44.48.87,0,1.28h0c0-.42,0-.84,0-1.27Z"/><path class="cls-1" d="M13,12.75l0-.49s.14.05.16.09c.1.23,0,.37-.23.39Z"/><path class="cls-1" d="M96.35,198c-.14.34,0,.86-.65.85h0c.09-.37.14-.79.64-.85Z"/><path class="cls-1" d="M254.25,142.48c.18-.38.41-.18.64-.06v-.06c-.18.32-.41.16-.64.06Z"/><polygon class="cls-1" points="214.22 270.72 214.21 270.63 214.23 270.69 214.22 270.72"/><path class="cls-1" d="M247.57,139.83l.64,0v-.06c-.23.42-.43.26-.63,0Z"/><path class="cls-1" d="M199,285.1c.25-.43.45-.36.62.06v-.05L199,285Z"/><path class="cls-1" d="M-426.94,802.48c-.5-.51-.89-1.23-1.5-1.5-2.07-1-4.22-3-6.53-1.25s-2.06,4.62-.74,7c1.9,3.39.87,7,.57,10.29s-4.5,5-6.81,6.34c-3.48,2.09-6.48,6.81-11,5.78-5.31-1.22-8.66,3.28-13.35,3.19a3.3,3.3,0,0,0-3.24,2.36c-1.52,4.53-5.66,7.2-7.83,11.27a5.22,5.22,0,0,1-4.92,2.73c-4.74.08-7.42,3.1-6.48,7.76.65,3.25.62,6-1.55,8.61l-1.2-1.22c2-1.6,2.2-3.52,1.71-6-1.32-6.65,1.14-9.76,7.91-10.5a3.45,3.45,0,0,0,2.87-1.55c2.37-4,6.2-6.93,8-11.35.83-2,2.37-3.56,4.92-3.47a7.28,7.28,0,0,0,4.38-1.4c2-1.34,3.89-2.38,6.7-1.48a7,7,0,0,0,5.6-1.39c3.89-3.3,8.84-5.27,12.24-8.9,2.22-2.36,1.41-6.47.47-9.65s-2-6.08.43-9.21c1.3-1.66-2-6.42-5.12-7.58-1.53-.57-2.95-.8-2.77-3.1a3.49,3.49,0,0,0-3-4c-1.39-.27-2.78-1.56-1.73-2.65,2.62-2.74.3-5.35.63-8,.62,2.59,2.93,5,.5,7.9-.21.26-.13.76-.18,1.16,4.85.56,3.41,6.95,7.62,8.19,1.73.5,2.64,2.14,3.6,3.53,2.13,3.09,4.42,2.2,6.13-.07,2.05-2.73,4.37-4.36,7.83-4.27,2.82.07,3.73-2.5,4.89-4.21.89-1.33,1.89-2.66,3-4.24a26.2,26.2,0,0,1-10.15-5.61c-2.42-2-2.87-3.94-1.65-6.58.6-1.29,1.15-2.59,1.83-3.83,1.56-2.84,2.75-5-.75-8-2.34-2-3-6-5.76-8.51s-4.81-3.68-8.16-2.06c-.53.25-1.37.55-1.75-.43v.1c6.56-1.79,10-.5,13.78,5.19,1.68,2.52,1.79,6,4.92,7.67.88.48.42,1.85.09,2.79s-.87,1.8-1.17,2.73c-1,3-5.33,5.92-1.15,9.32,6.76,5.49,11.73,7.84,17,3.48,1.16-1,2.12-1.81,2.25-3.35.08-1-.24-2.14.84-2.68,3.81-1.9,2.43-4.52,1.36-7.41-2.68-7.2.18-13.28,7.09-16a12.78,12.78,0,0,0,6-4.64,4.61,4.61,0,0,1,4.3-2.2c7.47.32,7.47.34,10.68-6.8a1,1,0,0,1,.58-.55c.19,0,.46.19.69.3v-.12a10.08,10.08,0,0,0-1,1.79c-1.77,5.76-3.36,6.9-9.32,6.42a5.28,5.28,0,0,0-4.87,2,16.48,16.48,0,0,1-6.7,5.12c-5.39,2.08-8.08,6.27-6.95,11.83.85,4.23,3.75,8-1,12.32-1.94,1.78-3.12,5-5.76,6.77l-.87.55,1,.89c4.47,2.59,5.86,6.38,4.33,11.25a14.1,14.1,0,0,0-.3,7.17c.54,2.61,1.9,2.78,3.36.58-.79,1.06-3,2-1.36,3.69,2.18,2.17,1.22,4.19.24,6.18-1.49,3-1.54,5.08,2.46,5.72,2.87.45,4,1.91,2.09,4.66s-1.08,4.71,2,5.85c1.19.45,2.31,1.12,3.53,1.47a14.08,14.08,0,0,1,9.79,9.34c1,2.69,2.2,5.41,4.45,7.19,5.29,4.19,9.17,9.69,13.9,14.4,1.4,1.39,2.59,2.25,4.37,1,2.51-1.75,4.49-.75,6.53.93q4.11,3.39,8.4,6.55c2.15,1.58,3.37,1.06,3.24-1.76a16.69,16.69,0,0,1,5.18-13.1c1.29-1.29,1.48-2.43.7-4.46-2-5.31-3.41-10.86.62-16.09,1.69-2.21.44-3.55-1.56-4.73-3.92-2.31-4.92-5.7-3.27-9.88a17.93,17.93,0,0,0,1.31-10,5.55,5.55,0,0,1,.85-4.1c2.22-3.38,1.51-6.42-.84-9.4a12.11,12.11,0,0,1-1.9-3.78,19.08,19.08,0,0,0-9.05-10.47c-1.5-.86-4.18-1.49-2.93-3.7.9-1.58,0-2.89.47-4.27,1.3.5,2.52,1.45,1.95,2.51-1.76,3.27.35,3.92,2.69,4.53a3.76,3.76,0,0,1,2.66,2c1.7,3.86,6.73,5.55,6.08,11.29,2.61-3,3.86-5.15,3.75-8.36-.07-2.22-.2-5,1.39-7,7-8.55,1.19-18.74,3.7-27.85.12-.46-.27-1.08-.48-1.6-2.07-5.15-5.49-10.06-2.82-16.08.14-.31-.32-1.06-.69-1.4-2.16-2-3.05-5.07-6-6.44-1.59-.72-3.15-2.34-1.12-4.4h-.1c.12,1.4.09,2.88,1.59,3.68a13.23,13.23,0,0,1,5,5.07c1.41,2.29,2.77,2.15,3.64-.57.64-2,1.22-4.41,3.19-5.34,4.33-2,5.45-6.44,7.89-9.83,1.65-2.29,2.73-4.9,1.39-7.93a2.5,2.5,0,0,1,.49-3.11h-.08c.22,1,.15,2.16.71,2.85,3.57,4.49,1,8.33-1.3,12-1.93,3.14-3.66,6.23-7.17,8.49-5,3.24-6,13.9-2.67,19.53,1.83,3.06,2.81,6,1.31,9.55-1,2.5-1.39,5.19.34,7.73,1.25,1.82.89,3.87.26,5.77-1.25,3.78-2.53,7.56-4.11,11.21a27.1,27.1,0,0,0-1.35,6.15c-1,5.63-1.34,11.47-2.26,16.92-1.06,6.26-.34,13-3.25,19.08-1.26,2.63,3,6,7,6.23a.82.82,0,0,0,.41-.08s0-.2,0-.3c-.38.18-1.11.4-1.1.56.52,6.23-6.33,11.9-2.25,18,3.9,5.87-.17,8.88-3,12.56-2.37,3.09-2.13,6.68-2.3,10.22-.1,1.9,1.49,2.31,2.74,2.83a30.91,30.91,0,0,1,11.91,9.44,12.76,12.76,0,0,1,2.56,9.49c-.56,5.17.3,10.18,1.17,15.23.5,3,2.12,4.67,4.86,5.22a11.59,11.59,0,0,1,9.33,8.39,10.07,10.07,0,0,0,1.28,2.21c1.15,1.79,2,4.66,3.55,5.09,1.94.53,2.79-3.27,4.38-3.79,4.84-1.57,6.89-6,10.5-8.77,2.8-2.13,6.45-2.32,9.87-1.62a8.23,8.23,0,0,0,8.64-3.17c1.83-2.22,4.21-2.92,7.05-3.34,4.49-.66,9.14-1.33,12.27-5.45a12.87,12.87,0,0,1,4.44-3.95c6.72-3.14,11.59-8.39,16.87-13.35,4.26-4,7.67-8.29,8.4-13.92.79-6.05,4-10.53,7.52-15,1.89-2.38,4-4.41,4.44-7.85.29-2.08,2.7-3.88,4.18-5.78.52-.66,1.68-1.37,1.58-1.86-1.25-6.29,2.47-11.74,2.95-17.84.49-6.35,1-12.67,1.29-19.07.27-6.84.87-13.64,7.93-18.09,4-2.49,6.77-6.78,3.08-12-1.21-1.72,2.22-3.41.12-5.2l0,.07c2.07.13,2.95-1.69,3.92-2.85,2.74-3.25,5.17-6.64,8.76-9.19,2.45-1.74,2.42-5,2.22-7.9-.23-3.44-1.78-7,1.33-10.11.81-.81-.35-1.82-.55-2.75-.73-3.38-1.21-6.68,2.81-9.92-1.7,4.35-2.88,7.83-.33,11.25a1.6,1.6,0,0,1-.18,1.55c-3.12,2.81-1.93,6.28-1.61,9.63.46,4.73-.7,8.65-5,11.38-4.16,2.62-5.54,7.72-9.14,10.93a2.18,2.18,0,0,0-.49,2.73c3,5.63.7,10.67-3.74,13.42-7.44,4.61-7.31,11.69-7.57,18.57-.23,6.41-1.33,12.73-1.64,19-.27,5.57-3.46,10.42-2.59,16.08.44,2.85-3.34,3.56-4.37,6-.66,1.52-3.26,3.14-1.09,4.45s5.22,3.83,7.53.39c3-4.42,7-6.21,12.07-6.58,2.22-.16,3.75-2,5.29-3.37,3.84-3.56,8-6.42,13.41-6.69,6.7-.32,12.9-2.94,19.28-4.5a21.91,21.91,0,0,0,12.38-8.36c2.5-3.36,2.64-8,6.45-10.45,7.48-4.74,12.55-12.32,20.09-17a44.81,44.81,0,0,1,10.15-4.36c4.46-1.44,6.18-4.46,4.56-8.8A5.19,5.19,0,0,1-92.9,772c3-2.56,5.48-5.36,5.84-9.55a2.81,2.81,0,0,1,.91-1.87c6.7-4.91,6.53-13.59,10.9-19.76.48-.68.78-1.79,1.41-2,4.32-1.64,5.6-5.55,7.14-9.29-.68,3.88-1.18,7.85-5.82,9.21-.51.15-1.25.6-1.31,1-.86,5.6-6.3,9.15-6.68,15-.07,1-.18,2.49-.76,2.79-6.34,3.21-5.25,11.81-11.28,15.3a3.85,3.85,0,0,0-1.28,5.31,7,7,0,0,1,.61,3.73c-.09,1.18-1.76,3-.38,3.31,2,.47,3.63,2.55,6.34,1.15,4.66-2.39,9.61-4.27,15-4.25a3.28,3.28,0,0,0,3.3-2.23,8,8,0,0,1,1.26-2.69c4.39-4.57,6.84-9.34,6-16.3-.62-5,5.59-7.42,8.2-11.41,3.5-5.35,8.3-9.76,9.36-16.72.47-3.07,3.39-5.79,5.23-8.65a76.22,76.22,0,0,0,9.19-20.73c.57-2,2.16-2.52,3.55-3.35,6.49-3.83,7.22-6.71,3.09-12.85-.67-1-1.25-2.08-.88-3.19,1.68-5,1.49-10.56,3.92-15.43,1-2.09,1.58-4.36-.57-6.27-.21-.19-.52-.42-.53-.65-.36-6.09-5.38-10-7.24-15.34a14.82,14.82,0,0,1-.77-3.73c-.3-4.17-.24-8.39-.8-12.53a5.28,5.28,0,0,1,2.19-5.52c3-2.26,5.5-5.15,9.47-5.86A4.64,4.64,0,0,0-15.84,617c2.45-3,2-17-1-19.59-1.53-1.33-1.15-2.48-.75-3.7a29.14,29.14,0,0,0,.44-18.32,4.66,4.66,0,0,1,1.46-5c.81-.79,1.91-1.63,1.48-2.88-1.42-4.13,1.55-4.92,4.3-5.74,4.33-1.27,7.74-3.61,9.61-7.8,1.11-2.48,1.71-4.86.08-7.67s-1.41-6.37-.81-9.63a5.5,5.5,0,0,0-1.57-5.42c-4.69-4.54-4.89-5.57-2.25-11.38.34-.75,1.43-1.6,1.26-2.07-2.23-6.09,2.51-9,5.64-12.58,1.06-1.23,2.25-3,1.14-4.21-3.5-3.75-.61-5.55,2-7.36,2.33-1.63,3.69-3.49,3.2-6.36,1.34,2.65.16,4.63-2,6.31C4,495.38.93,496.5,3.88,500.72c1.72,2.46-1,5.2-2.94,6.92-2.93,2.63-5.56,5-3.45,9.36.51,1.09-.78,1.66-1.28,2.47-3.1,4.95-2.64,7.63,2,11.19,2,1.53,3,3.24,2.3,5.84a14.71,14.71,0,0,0,.29,8.44c2.63,7.71-.4,14.28-8.1,17.25-1.07.41-2.17.71-3.23,1.12-.66.26-1.84.76-1.8,1,.95,5.08-5.1,8.57-3,14a15.19,15.19,0,0,1-.11,11.92c-1,2.47-1.6,5.12,1,7.79s2.19,16.38-.15,19.5a6,6,0,0,1-3.8,2.61c-4,.53-6,4-9.1,5.92-1.46.89-1.37,2.37-.89,3.81,1,3.1.14,6.34,1.16,9.68.67,2.19-.86,6.26,1.2,8.21,4.32,4.08,4.35,10,7.43,14.52a5.33,5.33,0,0,1,.19,5.7c-2.34,4.48-2.15,9.57-3.81,14.19a4.64,4.64,0,0,0,1.1,5.07c3.21,3.64,3,9.92-1.31,11.77-6.33,2.74-6.12,8.86-9.66,13.84,3.2-.91,5.51-1.65,8-1.23.64.12,1.69.07,2-.32,3.41-4.7,8.83-6.91,13-10.66,1.62-1.45,3.15-3.18,5.36-3.23,4-.09,6.18-2.59,8.14-5.43,3.17-4.58,6-9.22,6.15-15.18.13-4.14,2.28-7.95,4.42-11.46,3.24-5.29,1.65-11,2.47-16.49.85-5.7-1.23-12.71,5.12-17.11,2.62-1.82,4.09-4.38,3.83-8.35-.32-5,3.88-8.39,7.58-11.21,3.43-2.61,7-5.3,11.69-5.58a5.17,5.17,0,0,0,3.09-1.27c3.72-3.7,8.14-5.13,13.16-6.73a95.06,95.06,0,0,0,15-6.62,9.43,9.43,0,0,1,4.85-1.4c9.6.4,16.17-4.91,22-11.67,1.19-1.4.25-2.73-.33-4-1.73-3.72-3.76-7.29-5.3-11.13-1-2.43-2.54-4.44-6.2-3.79-3.17.56-6.09-1.86-9.24-2.61v.09c1.75-1.05,3.19.22,4.73.66,1.87.53,3.55,1.23,5.72.91,3.12-.46,4.73,2,5.92,4.56,1.4,3,2.6,6,4.17,8.86,1.87,3.39,2.92,6.4-.92,9.26-1.51,1.12-1.32,2.17.9,2.74,4.45,1.14,8.53-.4,12.2-2.13,4.63-2.18,8.86-5.22,13.69-7.12.73-.3,1.69-.92,1.88-1.59,1.6-5.59,6.61-5.27,10.72-6,5.82-1,8.71-4.06,8.54-10.06a11.1,11.1,0,0,1,8.13-11c3.77-1,7.13-2.22,6.18-7.36-.37-2,1.25-3.29,2.72-4.54,3.53-3,7.67-5.62,6.74-11.41-.27-1.64,1.48-2.63,2.82-3.48,7.12-4.51,7.27-4.66,5.47-12.95-.65-3,.68-5.17,1.44-7.81,1.74-6,6.52-6.66,10.41-9.19,5.17-3.35,5.78-5.18,4.3-10.85a5.31,5.31,0,0,1-.23-2c.9-5.86.32-7-5.27-10.26-6.85-4-7.7-8.37-2.52-14.51,1.3-1.55,1.18-3.06,1.23-4.74.18-5.17,2.3-7.62,7.33-8.41.92-.14,2.07-.46,2.15-1.12.56-4.44,5.23-7.42,4.34-12.34,2,2.82,2,2.81.07,5.72a6.65,6.65,0,0,0-1.35,2.64c-.42,4.56-2.52,6.6-7.36,7-2.9.21-3.51,3.87-3.55,6.5s-.37,4.45-2.27,6.46c-3.71,3.94-2.82,8.14,2,10.84a23.11,23.11,0,0,1,6.31,5c2.19,2.58,2.18,15.62-.2,18a23.18,23.18,0,0,1-8.73,5.85c-2.33.78-4.24,1.75-3.94,4.69,0,.39-.06,1-.31,1.19-4.85,2.61-2.17,6.59-1.71,10,.86,6.47.57,7.53-5.11,10.64-2.59,1.41-4.09,2.9-3.87,6.24.25,4-3.1,6.33-5.92,8.36-3.11,2.24-4.14,4.8-3.19,8.34,5.2.51,9.2-3,13.72-4.52a16.39,16.39,0,0,1,9.13-.7A12.14,12.14,0,0,0,203,528.68a4.73,4.73,0,0,0,0-2c-1.48-6.65,2.08-9.88,9.19-10.91,4-.58,8.09-2.58,12.29-3.46.55-.12,1.2-.7,1.58-.55,4.9,2,7.9-1.31,11.14-3.9,1.81-1.44,3.68-.37,5.29.1,3.3.94,5.85.7,8.6-1.74s6.85-2.71,10.36-3.65c4.49-1.2,8.22-3.59,12.12-5.79,2.46-1.38,1.83-3.46.65-5.1-2.52-3.53-1.24-6.05,1.65-8.4,1.11-.9,2.28-1.78,1.39-3.54-2.09-4.09.72-4.83,3.75-5.4v-.1c-2.49,1.46-4.64,2.82-2.65,6.41.91,1.64-1.44,2.53-2.46,3.56-2,2-3,3.86-1.12,6.68,2,3.1,1.17,5.08-2.19,7.55a56,56,0,0,1-16.84,8.38,9,9,0,0,0-3.56,2.26c-2.63,2.68-5.71,3.09-9,2-3-1-5.46-.65-7.64,1.86-1.77,2.05-4.09,2.33-6.9,2.35-4.53,0-9.33.09-13.27,3.07-1.38,1-2.76.94-4.41.75-3.77-.44-6.14,2.72-5,6.35a5.85,5.85,0,0,1,.21,3.34c-2,8.08-9.9,13.73-18,11.83-4.29-1-7.74.8-10.9,2.14-6.39,2.73-13.18,4.2-19.48,7-2.91,1.3-4.37,4.18-4.55,7.35-.52,9-3.61,12.39-12.38,13.67a11.82,11.82,0,0,0-7.86,4.65c-3,3.58-6.85,7.22-11.77,8.73a7.25,7.25,0,0,0-4,2.32c-.53.7-2.19.79-1.43,2.16.62,1.12,1.59,2.11,3.11,1.65a45.29,45.29,0,0,0,5.22-1.8c2.95-1.3,5.3-.83,6.82,2.13s3.74,3.65,6.64,2.56c2.19-.83,4.09-1,5.77,1a3.8,3.8,0,0,0,3.4,1.2,8.88,8.88,0,0,1,9.05,5.6c1.25,2.86,3.06,5.39,4,8.45.88,2.84,4.76,3.22,6.72.91,1.63-1.92,3.11-3.31,6.06-3,1.95.19,3.06-2.32,4.48-3.68,4.68-4.44,7.72-4.63,12.49-.33A11.11,11.11,0,0,0,198.1,606c5.23-.28,5.77.71,5.86,5.7a14.71,14.71,0,0,1-2,7.84c-1.66,3.07,2.66,13.07,5.79,14.21,1.22.45,2.23-.22,3.28-.54,1.79-.55,3.51-1.19,5.32,0s2.94-.47,4.27-1c3.8-1.65,7.88-.38,10.92,4.26-2.13-1.12-3.57-1.77-4.9-2.59-1.86-1.13-3.62-1.45-5.58-.16s-4,2.69-6.49.59c-.56-.47-2.31,0-3.22.51-3.24,1.87-5.29.14-7.33-2-3.46-3.71-4.81-11.69-2.32-15.87,1.51-2.53.32-5.15.77-7.72.3-1.64-1.91-1.81-3.33-1.62-4.86.66-8.78-1.16-12.24-4.37-2.93-2.72-5.44-1.35-7.87.84s-4.35,5.79-8.76,5.08c-.59-.1-1.48,1.16-2.12,1.89-1.41,1.61-2.63,3.52-5.28,2.61a7.63,7.63,0,0,1-5.05-4.63c-1.64-3.89-2.43-8.48-6.88-10.75-1.55-.79-2.8-2-4.66-1.07-1.15.56-2-.2-2.67-.84-2-2-4-2.25-6.86-1.36a5.51,5.51,0,0,1-6.95-3.15c-1.13-2.52-2.75-2.84-5.17-1.82-3.47,1.46-7.07,3.7-10.43-.31a.48.48,0,0,0-.37-.17c-6.25,1.37-13.08.1-18.81,3.56a30,30,0,0,1-15,4.74,21.93,21.93,0,0,0-14,5.44c-2.39,2.25-4.86,3.94-8.38,3.09a3,3,0,0,0-3.08,1.07c-3.21,3.83-7.82,5-12.24,6.56-5.16,1.86-9.47,4.43-9.47,11a10.73,10.73,0,0,1-3.55,7.61c-4.8,4.43-5.15,9.75-4.84,15.8.32,6.42.47,13-4,18.66-4.06,5.11-3.42,11.89-5.13,17.85C12.67,694.12,8,701.77-2.1,704.54c-.28.08-.77,0-.82.15-2.06,5.92-9.28,5-12.49,9.57-2.4,3.39-5.86,4.65-10.21,5.21-3.43.44-6,3.93-7.59,7.4-4.39,9.73-7.2,20.3-15.55,27.85-1.88,1.7-3.27,3.93-5,5.76-1.36,1.41-1.09,2.81-.51,4.33,1.7,4.47.23,8.13-3.09,11.16a22.68,22.68,0,0,0-5.29,7.12c-.93,1.94-1.76,3.5.12,5.25s3.2,4.6,6.63,3.36c.65-.23,1.58-.52,2.06-.24,6.71,4,13.6-1.34,20.37.39,1,.27,2.44-.57,3.61-1.06,1.44-.6,2.91-1.81,4.41-1.36,5.31,1.6,9.69-1.49,14.48-2.49a5.06,5.06,0,0,0,3-1.41,6.31,6.31,0,0,1,6.71-1.74c3.66,1.28,6-.44,8.39-2.52,3.23-2.79,6.05-6.35,9.72-8.27,5.38-2.8,8.43-6.49,10.69-12.2,1.12-2.85,2.82-6.94,6.42-8.77.83-.42.72-1.16.29-1.81-1.77-2.66-2.63-5.86-5.81-7.67-2.69-1.54-5.46-3.69-3.37-7.64h-.11a6.18,6.18,0,0,0,3,6.22c2.91,1.66,4.54,4.07,6.08,6.8.45.79.7,2.51,2.29,1.9a2.56,2.56,0,0,0,1.73-2.7c-.49-4.18,1.69-4.53,5.15-4.22s6.94.32,8.45-3.92c.4-1.15,1.86-1.17,2.93-1.46a3.48,3.48,0,0,0,2.68-1.77c4.16-8.41,11.92-10.25,20.26-11l0-.11c-5.13,1.29-10.25,2.6-14.66,5.74a3,3,0,0,1-.8.28c-3.14,1-3.16,4.1-4.53,6.32s-5.4.47-5.85,4.41A23.83,23.83,0,0,1,62,742.8c3.09,1.18,6.19,2.39,7.6,5.74,2.15,5.08,8.56,4.56,11.14,9,5.07-6.22,8.16-3.71,16.7,1.59,3.26,2,6.13,3.89,10.06,3.2.69-.12,1.68,0,2-.4,3.37-4.14,7.91-3.63,12.47-3.49,1.48,0,3.54-.35,4.37-1.34,3-3.54,7.06-2.9,10.82-3.54v-.11c-2.27,2.72-6.14.58-8.82,3.19-2.25,2.19-2.2,2.86.44,3.91,3.78,1.51,5.9,4.15,5.88,8.36a4.05,4.05,0,0,0,2.29,3.81c1.5.82,1.67,2.44,2.3,3.87,1.82,4.11,3.16,9.11,8.24,10.2,3.69.79,6.91,4.41,11.48,1.72a3.31,3.31,0,0,1,4.76,3.2c0,2.69.51,4.57,3.83,5.48-4,1-5.42-.43-5.29-3.62.15-3.87-1.87-4.42-4.92-3.15-2.21.91-4.32,1.7-6.2-.57a3.74,3.74,0,0,0-.58-.56c-3.58,3-4.86-1.32-6.76-2.49-3.43-2.11-4.18-6.52-6.38-9.64-3-4.26-3.51-9.67-6.77-13.41-1.73-2-5.16-2.3-8.36-2.7-6.15-.78-10.29,3.27-15.47,4.54-4.92,1.22-7.76-1.29-10.33-3.61-2.86-2.59-6.78-2.34-9.47-4.93-1-1-2.24.37-3,1.48-2.06,2.84-4.24,3.2-6.43.12a6.83,6.83,0,0,0-5-3c-3.06-.11-4.1-2.58-5.17-4.23-3.32-5.1-8.64-7.89-15-6.9-3.23.51-6.35,1.72-9.69,1.45-1-.08-1.91.17-1.68,1.29.61,2.95-2,3.71-3.34,5.37-3.89,4.71-8.82,8.73-10,15.28-.38,2.15-1.43,4.37-3.8,4.71-3.88.57-6.22,3.16-8.85,5.56-2.84,2.59-5.87,5-8.91,7.33-1,.77-2.57,2-3.33,1.66-5.64-2.37-9.8,2.23-14.77,2.86-3.29.41-3.29.66-2,4-5.78.27-11.18-2.47-17.82.09-5.06,2-12,3.09-17.33,2.05-5.53-1.07-13.3.62-16.61-6.81a1.67,1.67,0,0,0-2.1-1c-5.94,1.68-12.41,1.45-17.84,5a7.1,7.1,0,0,1-5.36.91c-6.42-1.32-11,1.86-16.26,5-6.8,4.08-10.25,11.31-16.93,15.43-2.86,1.77-4.15,6.2-6,9.53-1.43,2.64-3.14,4.82-6.25,5.26-2.92.42-4.2,3.34-6.84,4.18a134.2,134.2,0,0,1-20.48,5.11c-5.18.78-9.76,2.19-13.48,6.23-2.83,3.07-6.14,5.83-11,5a2.51,2.51,0,0,0-2.61,1.86c-2,4.83-6.28,5.21-10.53,5.8-1.64.23-3.66-1.86-4.76-.17-1.77,2.73-5,4.62-5.49,8-1.47,9.55-5.34,17.65-13.34,23.46a8.26,8.26,0,0,0-2.62,3.82,9.16,9.16,0,0,1-6.84,5.7c-4.06,1-8.09,2.74-9.78,7.34a7.06,7.06,0,0,1-5.43,4.43c-3.88.79-7.53,2.75-11.62,2.45-1.57-.12-2.3.92-3.08,1.93-3.33,4.24-7.74,5.53-12.85,4.51-4.29-.85-7.52-.13-9.1,4.53-.72,2.15-2.59,3.08-4.87,3.65-3.12.79-4.39,2.81-4.87,6.43-.78,5.83,1.13,11.58-.23,17.31a2,2,0,0,0,.1,1.24c3.07,6.57-.2,11.59-4.27,16.13-2.2,2.46-3.69,5.3-5.64,7.86-.9,1.18-.44,2.06-.11,3.14,1.95,6.49,1.49,8.51-3.83,12.57-3.3,2.53-5.72,5.27-6.5,9.54-.51,2.73-1,5.61-2.84,8a2.47,2.47,0,0,0,.25,3.16c.86,1.18,1.79.33,2.67.08a20.93,20.93,0,0,0,8-3.91c1.1-.91,2.21-2.1,3.5-2.4,4.14-1,5.56-3.9,7-7.54,2.3-6,8.76-7.92,14.48-4.87,1.67.89,3.29,1.23,4.87.37,5.29-2.87,11.4-3.87,16.42-7.38a43.19,43.19,0,0,1,8.24-4.37c3.69-1.55,7.68-3.75,7.87-9,.08-2.52,3.18-3.61,3.62-6.12h-.1c1.22.9.45,1.94-.17,2.47-2.12,1.8-2.56,4.17-3.18,6.72-.87,3.56-4.88,4.34-7.21,6.7-.64.65-1.91.57-2.23,1.71,3.79,2.73,5.18,2.55,7.16-1.24a3.51,3.51,0,0,1,2.38-2.16c2.38-.53,3.54-2.43,4.32-4.38,1.19-3,2.81-5.05,5.88-5.08-5.32,3.64-7.72,10.18-13.05,14.46,5.93-1.55,8.87,4.3,13.79,4.41,2.88.07,5.65.75,8.13-1.28.42-.34,1.31-.81,1.45-.67,4,3.79,8-1.49,12,.05a2.1,2.1,0,0,0,2.54-1.19c1.24-3.56,4.7-5.84,5.09-10,.59-6.28,5.53-9.95,11.91-9.4,1,.09,2,.48,2.91-.06,4.47-2.6,8.71-2.35,13.36,0,2.44,1.25,5.45-.76,7.49-2.16,3.47-2.39,7.15-2.28,10.9-2.46,4.23-.2,9,1.39,11.41-4.07.22-.51,1.57-.82,2.33-.73,4.51.56,4.94-2.39,5.33-5.72.85-7.32,5.24-13.15,12-13.75,7-.62,14.19-.62,21.2-2,1-.21,1.56.49,2.16,1.07,5.33,5.17,7.31,5.82,14.86-.47.79-.67,1.4-1.29,2.58-1,4.37,1.1,6.83-1.24,8.93-4.74,3.09-5.13,4.9-5.79,10.51-4.62a2.74,2.74,0,0,0,3.26-1.37c.7-1.22,1.47-2.41,2.1-3.67,1-2,2.66-4.24,4.68-3.82,4.8,1,9.45-1.15,14-.23a11.87,11.87,0,0,0,9.32-1.53c4.71-3,10.16-4.31,15.17-6.65,1.21-.57,2.76-.45,4.15-.64v-.1c-7.52,3.06-15.24,5.66-22.31,9.74a2.35,2.35,0,0,1-1.62.44c-5.34-1.93-10.76,1.08-16.17-.37-3.06-.82-5.42.72-6.7,3.84-1.53,3.73-3.09,6.92-8.43,4.21-2.68-1.36-5.06,1.71-6.41,3.92-2.62,4.27-5.28,7.51-11.12,6.62-1.48-.23-3.35,2.21-5.07,3.37-3.78,2.55-7.39,2.54-10.87-.63a6.55,6.55,0,0,0-7.11-1.29c-4.47,1.54-9,2.27-13.79,1s-12.09,4.74-13.53,10.84c-.36,1.51-.43,3.1-.76,4.63-.55,2.63-1.27,5.07-4.93,4.37a3.11,3.11,0,0,0-3.21,1.67,6.84,6.84,0,0,1-6.89,3.28c-7.17-.86-13.69,1.1-20,4.23-2,1-3.85,1.41-5.84-.41a5.07,5.07,0,0,0-4.86-1.07c-4.89,1.89-10.25,1.33-15.1,3.24-2,.78-3.89,2-3.87,4.11,0,4.86-3,8.23-5,12.14-.45.9-.79,2.27-1.76,2.25-4.87-.11-9.38,3.5-14.39,1.4a1.43,1.43,0,0,0-1.53.11c-3.75,2.54-7.67,1.32-11.54.44-1.63-.37-3.67.27-4.41-2.34-.34-1.22-2.25-1-3.49-.92-4.72.42-9.59-1.15-14.18,1v.12c.92-1,3.05-.66,3.28-2.75-2.44-.41-4.3.76-5.92,2-1.44,1.07.28,1.05.82,1.38v-.1c-.11.09-.21.27-.31.27-6.87.27-9.28,5.16-11.5,10.61-1,2.45-3.05,4.47-4.62,6.68a2.29,2.29,0,0,1,.77-3c3.7-3,5.12-7.28,6.62-12a33.62,33.62,0,0,0-3.84,1.48c-3.7,2-7.13,2.82-11.17.19-3.07-2-9,.46-10.35,4.29-1.64,4.47-3.44,8.29-8.67,9.25-.74.13-1.33,1-2,1.53-2.19,1.59-4.33,3.42-7,3.92-3.19.58-4.31,2.4-3.85,5.36a7.12,7.12,0,0,1-3.14,7.44,17.42,17.42,0,0,0-4.65,5.44l-5.41-5.48c.91-1.09,1.61-2.5,2.75-3.21,3.44-2.15,3-5.06,1.83-8.07-.86-2.21-1.56-4.4-.4-6.59,2.17-4.13,3-8.71,4.49-13.06,1.35-3.9,4.44-6.18,7.47-8.51,1.57-1.2,3-2.28,1.83-4.52-3.15-6,.3-10.3,3.66-14.58,1.58-2,3.63-3.56,5-5.83,1.54-2.6,1.52-4.91,1.05-8-.88-5.71-1.69-11.82-.91-17.34a15.55,15.55,0,0,0-2.4-11.43,30.06,30.06,0,0,1-3-5.16,10.07,10.07,0,0,0-7.83-7c-3.69-.82-5.68-3.43-6.82-7.33A33.54,33.54,0,0,1-325.35,892c1-7.42-2.88-11.93-8.15-15.64a70.94,70.94,0,0,0-11.24-6c-3.87-1.77-6.65-4.86-9.91-7.36-1.82-1.39-3.41-2.33-5.71-.83-2.12,1.37-3.79.43-5.61-1.28-4.87-4.59-8.64-10.21-13.89-14.46-2.45-2-3.76-5-4.87-7.94a12.86,12.86,0,0,0-8.59-8.27,18.93,18.93,0,0,1-8.42-4.76c-1.26-1.31-3.09-1.17-4.79-1.11l0,.09a2,2,0,0,1,2.58-.88c3.44,1.67,3.22-1.56,4-3.09,1.3-2.56-1.22-2.29-2.43-2.67-3.22-1-4.54-2.61-2.72-5.95,1.31-2.42,1.77-4.64-.27-7.39a11.36,11.36,0,0,1-1.28-11,11,11,0,0,0,.64-3.77c0-3.7-2.52-5.64-5.61-6.75s-3.68,1.57-4.95,3.37c-1.89,2.69-3.32,6-7.78,5.16-1.49-.29-3.12.84-4,2.17a9.38,9.38,0,0,1-4.7,4.05c1.92,2.07,5.93.95,6,4.79Z"/><path class="cls-1" d="M235.76,725.88c-3.11-.13-5,1.1-5.62,4.27-1.62,8.58-7.59,13.55-15.27,15.82-6.46,1.91-13.42,2-19.87,4.47-1.07.41-2.49-.08-3.82-.52,4.76.35,8.92-1.18,12.84-3.55a3.74,3.74,0,0,1,3.32-.2c2.81,1,5.36-.08,7.85-1,7.41-2.8,12.33-7.87,14.37-15.74C230.64,725.22,231.17,725.13,235.76,725.88Z"/><path class="cls-1" d="M262.55,515.44c2.32.16,4.53.65,7,.27,2.94-.44,4.13,2.3,5.28,4.69.59,1.24.29,3.81,1.49,3.56,1.88-.39,4.32-.61,5.52-2.66a5.3,5.3,0,0,1,5.57-3c3.21.31,5.25,1.47,5.64,5,.55,4.89,1.28,9.74-1.73,14.17h.1c.16-3.84,2.16-7.45,1.06-11.51-.63-2.36,0-5.22-3-6.31s-5.37-.62-7.23,2.39c-1.52,2.46-4.67,2.27-7,3.58-1.84-8.82-3.9-10.44-12.63-10.13Z"/><path class="cls-1" d="M91.73,532.65a11.69,11.69,0,0,0-6.16-7.17c-5.35-2.7-5.84-4.85-3-10.15,2.93-5.45,1.29-11.34-4.13-14.83-3-1.92-3.65-2.88-4.41-6.63,1.18,3.05,3.4,4.94,6.12,6.67,4.77,3,6,10.1,3.11,15.14-2.7,4.72-2.17,6.51,2.68,9.09,4.69,2.48,6,4.27,5.66,7.88Z"/><path class="cls-1" d="M8.77,459.55c1-4.25,2.15-8.33-3.78-10.31-2.22-.73-1-3.83-1-5.49,0-5.64-4.14-8.55-7.19-12-1.4-1.57-3.13-3-4.17-5,2.18,3.46,5.77,5.45,8.43,8.61C4.07,439,5,441.9,4,446.1c-.31,1.27.69,2.3,1.94,3,4.91,2.68,5.63,5.6,2.71,10.47Z"/><path class="cls-1" d="M82.27,725.15c.45-.94,2.19-1.27,1.49-2.72-1.41-2.93-1.57-5.49.94-8.1,1.06-1.11-.54-2.35-1.49-3.08A7.93,7.93,0,0,1,80,704.64c-.07-3.82-2.41-6.56-4.73-9.23-1.06-1.23-2.4-2.23-.52-3.78l-.11,0c-.14,1.61,1,2.52,1.86,3.66,2.28,3.09,4.57,6.19,4.44,10.35-.08,2.36,1.4,3.87,3.1,5.3s2.84,3.19.43,5.26c-2,1.68-.8,3.63,0,5.46,1,2.23.48,3.53-2.21,3.37Z"/><path class="cls-1" d="M91.62,532.65c2.24,5.11-1.14,11.94-6.07,11.39-4.53-.51-5.37,3-6.58,5.3s.2,5.17,2.36,7.12c.41.37.88.68,1.33,1v-.09c-3-.57-6.38-5.87-4.74-8.11,2-2.66,2.82-6.75,8-6.11,4,.49,4.68-3.76,5.71-6.73.39-1.14.06-2.52.06-3.79Z"/><path class="cls-1" d="M152.88,756.18c9.24,3.57,15.78-2.24,22.06-5.7-2.17,4.68-8.22,5-13,7.28a8.06,8.06,0,0,1-9-1.69Z"/><path class="cls-1" d="M27.82,715c-.73-1.69-1.56-3.35-2.16-5.08-.4-1.13-1.26-2.6.19-3.48,4-2.43,1.89-4.19-.43-6,3,.57,4.88,3.89,2.85,5.17-3.44,2.17-1.61,4.15-.74,6.4.37,1,1.38,1.91.19,3Z"/><path class="cls-1" d="M25,734.91c-3.36-4.63-2.88-9.06,1.09-13.32-3.37,4.27-2.44,8.79-1.2,13.33Z"/><path class="cls-1" d="M5,474.06c2,3.08,4,6.16,1.45,10.49,1.57-4.13-.86-7.14-1.34-10.48Z"/><path class="cls-1" d="M281,474.29c3,.08,4,5.14,7.87,2.86-3,2.07-3,2.07-7.86-2.95Z"/><path class="cls-1" d="M249.88,720.62c-4-.26-4.65,3.89-7.51,5.72,4.28-6,4.28-6,7.52-5.62Z"/><path class="cls-1" d="M249.89,720.72c2.92-.82,3.75-4.27,6.63-5.13-2.39,1.45-2.68,5.59-6.64,5Z"/><path class="cls-1" d="M292.8,542.28a7.23,7.23,0,0,0,4.49,3.75c-2.19-.39-5-.06-4.38-3.76Z"/><path class="cls-1" d="M27.72,715c1.68,2.31-1,3.26-1.76,4.82L27.82,715Z"/><path class="cls-1" d="M5,472.85c.48-2.19.94-4.38,2.65-6H7.58c-.68,2.1-1,4.38-2.65,6Z"/><path class="cls-1" d="M147.44,755.75c1.94-1.4,3.65,0,5.44.43v-.11c-1.9,1.14-3.61-.33-5.43-.41Z"/><path class="cls-1" d="M143.24,754.7c-2.32,1.07-4.25.2-6.06-1.22v.1c2,.4,4,.81,6.05,1.23Z"/><path class="cls-1" d="M77.45,724.79c1.59.34,3.31-.95,4.82.36v-.1c-1.63.2-3.34,1.52-4.81-.37Z"/><path class="cls-1" d="M291.31,537.44c1.44.83,1.55,2.2,1.51,3.63h.1c-1.34-.87-1.35-2.29-1.5-3.65Z"/><path class="cls-1" d="M8.89,460.77c-.2,1-.39,2-.6,3h.1c-.88-1.23-.46-2.2.61-3Z"/><path class="cls-1" d="M7.69,466.82a2.31,2.31,0,0,1,.7-3h-.1c-.23,1-.47,2-.71,3Z"/><path class="cls-1" d="M74.78,691.63c-.67.06-.68-.37-.53-.79,0-.15.39-.21.59-.31-.06.38-.12.75-.17,1.12Z"/><path class="cls-1" d="M145,755.9c.74-1.33,1.59-1.08,2.47-.15v-.09l-2.45.14Z"/><path class="cls-1" d="M143.22,754.81c.69.19,1.66-.08,1.75,1.08l0-.09c-.74-.12-1.54-.13-1.76-1.09C143.24,754.7,143.22,754.81,143.22,754.81Z"/><path class="cls-1" d="M9,460.76c-.75-.27-.4-.76-.23-1.21H8.66c.65.29.38.76.23,1.21Z"/><polygon class="cls-1" points="262.61 515.45 262.43 515.49 262.56 515.44 262.61 515.45"/><path class="cls-1" d="M5.08,474.07c0-.41,0-.82,0-1.22H4.93c.84.37.56.79,0,1.21Z"/><path class="cls-1" d="M292.91,542.27c-.87-.4-.76-.8,0-1.19h-.1c0,.41,0,.81,0,1.21Z"/><path class="cls-1" d="M1058.78,26.8a6.37,6.37,0,0,0,.93,2c1.74,1.7,3.13,4.51,6.17,3.59,3.24-1,3.95-3.9,3.54-6.75-.59-4.09,1.88-7.32,3.52-10.56s6.56-3.36,9.47-3.93c4.39-.86,9.32-4.53,13.49-1.89,4.94,3.13,10.15-.19,14.9,1.58a3.74,3.74,0,0,0,4.25-1.22c3.36-4,8.64-5.22,12.48-8.53a5.92,5.92,0,0,1,6.12-1c4.87,1.62,8.8-.46,9.7-5.49.63-3.5,1.77-6.28,5-8.1l.74,1.66c-2.71.88-3.65,2.75-4.14,5.44-1.31,7.16-5,9.41-12.25,7.73a4,4,0,0,0-3.56.52c-4,3.18-9.09,4.76-12.73,8.54-1.63,1.7-3.83,2.74-6.4,1.73a8.14,8.14,0,0,0-5-.16c-2.58.63-4.92,1-7.43-.91-1.42-1.09-4.43-1.28-6.27-.61-5.29,1.93-11.12,2.14-16,4.57-3.21,1.58-4,6-4.33,9.54s-.35,6.84-4.1,9.11c-2,1.2-.48,7.18,2.22,9.45,1.33,1.13,2.69,1.87,1.59,4.12a3.62,3.62,0,0,0,1.49,5.12c1.31.77,2.22,2.56.71,3.28-3.76,1.82-2.44,5.27-3.82,7.83.38-2.82-1-6.08,2.62-8.13.32-.18.44-.72.65-1.09-4.73-2.31-.71-8.22-4.52-11-1.57-1.13-1.85-3.1-2.27-4.84-1-3.88-3.65-3.81-6.29-2.14-3.18,2-6.2,2.82-9.7,1.49-2.85-1.08-4.8,1.18-6.67,2.49-1.43,1-3,2-4.78,3.17a27,27,0,0,1,8.13,9.29c1.66,2.93,1.37,5-.93,7.21-1.12,1.08-2.21,2.2-3.4,3.2-2.72,2.29-4.77,4-2.41,8.31,1.58,2.88.72,7.09,2.49,10.62,1.69,3.37,3.45,5.43,7.52,5,.64-.07,1.62-.07,1.62,1l0-.1c-7.42-.55-10.41-3.08-12-10.16-.71-3.13.55-6.66-2-9.48-.72-.8.31-2,1-2.84s1.6-1.49,2.28-2.33c2.2-2.71,7.79-4,4.87-9-4.71-7.94-8.85-12.09-15.92-9.58-1.58.57-2.89,1.06-3.63,2.57-.47.93-.61,2.24-1.93,2.39-4.65.55-4.29,3.68-4.34,7-.13,8.2-5.46,13.29-13.59,13.53a14.51,14.51,0,0,0-8,2.51,5.19,5.19,0,0,1-5.27.67c-7.51-3-7.5-3-13.61,3a1.2,1.2,0,0,1-.82.34c-.21,0-.39-.35-.58-.54l0,.11a11.4,11.4,0,0,0,1.7-1.45c4.1-5.16,6.18-5.74,12.08-3.12a5.92,5.92,0,0,0,5.76-.26,18.84,18.84,0,0,1,8.89-2.75c6.33-.16,10.74-3.41,11.8-9.41.81-4.56-.67-9.34,5.91-12,2.69-1.11,5.19-4,8.57-4.76l1.11-.23-.68-1.26c-3.53-4.21-3.43-8.52.07-12.88a15.36,15.36,0,0,0,3.15-7.09c.49-2.83-.83-3.49-3.19-1.8,1.22-.78,3.9-.94,2.85-3.22-1.37-3,.42-4.65,2.21-6.3,2.72-2.5,3.59-4.57-.23-6.64-2.76-1.48-3.35-3.36-.29-5.44s3-4.34.29-6.6c-1-.87-1.92-2-3-2.75-4.46-3.17-6.4-7.5-6.28-12.89.07-3.07-.1-6.24-1.69-8.84-3.73-6.1-5.51-13-8.46-19.46-.88-1.9-1.75-3.19-4.06-2.58-3.26.86-4.89-.86-6.3-3.28-1.9-3.25-3.89-6.46-6-9.6-1.56-2.36-3-2.27-4,.62a18.83,18.83,0,0,1-10.5,11.32c-1.83.83-2.48,1.91-2.5,4.23-.06,6.06-.83,12.14-7,16-2.61,1.61-1.86,3.41-.29,5.32,3.08,3.72,2.76,7.49-.59,11.1a19.8,19.8,0,0,0-5.33,9.61,6.16,6.16,0,0,1-2.5,3.83c-3.61,2.6-4.09,5.91-2.87,9.75a12.81,12.81,0,0,1,.43,4.48,19.55,19.55,0,0,0,5.07,13.78c1.19,1.4,3.69,3,1.52,4.77-1.54,1.26-1.11,2.92-2.17,4.13-1.13-1-2-2.36-1-3.23,3.09-2.66,1.2-4.07-.95-5.52a3.87,3.87,0,0,1-1.94-2.93c-.2-4.48-4.66-8-1.72-13.53-3.84,2.07-6,3.8-7.15,7.07-.81,2.25-1.8,5.13-4.18,6.5-10.6,6.08-8.68,18.43-14.87,26.69-.31.42-.16,1.18-.15,1.78.07,5.93,1.61,12.09-3.52,17.18-.26.27-.09,1.19.15,1.67,1.42,2.77,1.1,6.19,3.61,8.64,1.34,1.29,2.28,3.48-.61,4.83l.1,0c.43-1.46,1.06-2.94-.16-4.28a13.55,13.55,0,0,1-3-6.88c-.53-2.81-2-3.16-3.94-.74-1.47,1.81-3,4-5.39,4.23-5.23.5-8.12,4.53-12,7.07-2.6,1.71-4.73,4-4.57,7.47a2.75,2.75,0,0,1-1.74,3h.09c.16-1,.69-2.22.41-3.11-1.87-5.8,2.3-8.73,6.11-11.65,3.22-2.47,6.22-4.95,10.7-6,6.41-1.47,11.68-11.82,10.5-18.69-.64-3.74-.49-7,2.46-10.08,2.07-2.14,3.48-4.73,2.73-7.89-.55-2.28.63-4.22,2-5.9,2.78-3.35,5.6-6.7,8.66-9.81,1.69-1.72,2.61-3.75,3.82-5.7,3.31-5.29,5.93-11,9-16.21,3.58-5.92,5.51-12.93,10.92-18,2.32-2.19-.64-7.12-4.66-8.77a1,1,0,0,0-.46-.07s-.06.21-.09.32c.46-.06,1.29,0,1.34-.18,1.95-6.45,11.2-9.7,9.48-17.35-1.64-7.3,3.71-8.87,8-11.56,3.65-2.27,4.84-6,6.42-9.46.85-1.87-.61-2.85-1.67-3.83a31.58,31.58,0,0,1-8.41-13.77,13.43,13.43,0,0,1,1.16-10.46c2.63-5,3.74-10.34,4.87-15.74.67-3.16-.31-5.45-2.89-7-4.54-2.7-6.49-6.6-6.19-11.78a10.41,10.41,0,0,0-.43-2.68c-.46-2.22-.2-5.41-1.6-6.39-1.76-1.24-4.15,2.29-6,2.24-5.57-.16-9.45,3.6-14.22,5.06-3.71,1.13-7.51,0-10.72-1.91-3.44-2.06-6.68-1.85-10.09.09-2.75,1.58-5.46,1.43-8.52.83-4.86-.94-9.87-1.93-14.71,1.09a14.83,14.83,0,0,1-6.11,2.39c-8.11.74-15.16,4.29-22.53,7.38-5.95,2.49-11.13,5.6-14.12,11-3.21,5.8-8.25,9.17-13.65,12.39-2.87,1.71-5.81,3-7.66,6.31-1.12,2-4.29,2.93-6.57,4.31-.78.48-2.25.77-2.34,1.3C842-82.89,836-78.74,833.07-72.78c-3,6.21-6.11,12.38-8.91,18.72-3,6.79-6.32,13.42-15.3,15.36-5,1.08-9.61,4.4-7.92,11,.56,2.17-3.62,2.64-2.2,5.19v-.09c-2.06-.87-3.68.65-5.13,1.46-4.09,2.29-7.92,4.84-12.6,6.11-3.2.87-4.45,4.13-5.42,7.15-1.13,3.54-1,7.71-5.37,9.7-1.15.52-.37,2-.53,3-.6,3.66-1.42,7.16-6.82,9,3.47-3.77,6.06-6.86,4.81-11.21a1.74,1.74,0,0,1,.8-1.49C772.78-.68,773-4.6,774-8.08c1.42-4.93,4.16-8.45,9.67-9.65,5.3-1.14,8.73-5.78,13.68-7.71A2.41,2.41,0,0,0,798.89-28c-.8-6.73,3.53-11,9.16-12.16,9.44-2,12.12-9.14,15.12-16,2.79-6.36,6.42-12.32,9.23-18.51,2.5-5.51,7.68-9.24,9.05-15.25.68-3,4.82-2.38,6.83-4.43,1.28-1.3,4.58-2,2.88-4.08s-3.81-5.73-7.54-3.1c-4.79,3.38-9.61,3.74-14.94,2.3-2.33-.63-4.61.62-6.74,1.5-5.33,2.2-10.76,3.58-16.35,1.91-7-2.07-14.35-1.65-21.48-2.37a25,25,0,0,0-16,4c-3.89,2.49-5.9,7.14-10.74,8.2-9.52,2.09-17.71,7.9-27.29,9.93a50.82,50.82,0,0,1-12.1.75c-5.13-.15-8.09,2.27-8.16,7.22,0,3.16-1.58,4.84-4.31,5.85-4.07,1.51-7.74,3.43-9.77,7.51a3.23,3.23,0,0,1-1.67,1.57c-8.8,2.52-12.08,11.32-19,16-.76.51-1.5,1.52-2.25,1.54-5.06.1-7.92,3.57-11,6.79,2.24-3.66,4.34-7.47,9.61-7.18.58,0,1.52-.16,1.75-.54,3.1-5.34,10.07-7,12.77-12.66.45-1,1.17-2.45,1.89-2.54,7.75-.95,10.06-10,17.6-11.35A4.25,4.25,0,0,0,708.89-68a7.32,7.32,0,0,1,.87-4c.55-1.15,3-2.38,1.69-3.2-1.87-1.19-2.68-3.86-6-3.43-5.71.74-11.52.86-17-1.1a3.71,3.71,0,0,0-4.26,1.06,9.17,9.17,0,0,1-2.36,2.26c-6.3,3-10.7,6.94-12.59,14.24-1.37,5.29-8.66,5.46-12.92,8.54-5.69,4.13-12.36,6.85-16.2,13.47-1.7,2.93-5.77,4.6-8.78,6.82a86.1,86.1,0,0,0-17.64,17.56c-1.4,1.86-3.21,1.77-5,2.1-8.15,1.54-10,4.17-8.26,11.83.28,1.24.44,2.54-.38,3.52-3.72,4.48-5.72,10.09-10.14,14.12-1.89,1.72-3.35,3.81-1.92,6.51.14.26.36.61.29.84-2.06,6.26,1.53,12,1.29,18a15.77,15.77,0,0,1-.7,4c-1.36,4.31-3.09,8.53-4.17,12.89a5.91,5.91,0,0,1-4.43,4.77c-3.93,1.21-7.67,3.22-12,2.5a5.19,5.19,0,0,0-3.14.78c-3.71,2.18-8.78,16.41-6.8,20,1,1.89.19,2.91-.7,4-4.45,5.4-7.28,11.37-7.74,18.27a5.19,5.19,0,0,1-3.48,4.51c-1.14.5-2.6,1-2.66,2.36-.19,4.67-3.54,4.4-6.68,4.23-4.92-.26-9.34.87-12.91,4.41-2.13,2.1-3.68,4.27-3.14,7.69s-1.1,6.91-3,10a5.78,5.78,0,0,0-.55,6c3,6.25,2.78,7.36-2.24,12.26-.64.63-2.09,1.09-2.1,1.63-.15,6.92-6.13,8.11-10.77,10.63-1.57.86-3.5,2.22-2.84,3.82,2.08,5-1.59,5.81-4.93,6.7-3,.81-5.16,2.2-5.8,5.26-.32-3.15,1.67-4.72,4.56-5.63,3.15-1,6.73-1,5.39-6.33-.78-3.09,3.12-4.86,5.76-5.9,4-1.6,7.65-3,7.25-8.18-.1-1.28,1.45-1.4,2.29-2,5.13-3.86,5.72-6.72,2.43-12-1.42-2.25-1.74-4.32,0-6.7a15.86,15.86,0,0,0,3.06-8.59c.38-8.7,6.09-14.23,15.14-14.45,1.25,0,2.5.06,3.74,0,.77,0,2.18-.1,2.23-.32,1-5.45,8.61-6.8,8.59-13.06a16.42,16.42,0,0,1,4.85-12c2.05-2.11,3.67-4.58,2.09-8.19-1.67-3.8,4.29-17.26,7.91-19.56A6.8,6.8,0,0,1,569,63.84c4.32.9,7.75-1.9,11.65-2.7,1.84-.37,2.35-1.89,2.43-3.52.16-3.48,2.38-6.42,2.66-10.14.19-2.46,3.37-6,2-8.7-2.78-5.65-.45-11.64-1.8-17.27a5.73,5.73,0,0,1,2.07-5.8c4.17-3.67,6-8.86,9.54-12.91a4.91,4.91,0,0,0,.89-5.49c-1.83-4.82.94-11,6-11.37,7.56-.5,9.78-6.72,15.37-10.46-3.63-.23-6.28-.31-8.64-1.63-.61-.34-1.7-.68-2.14-.39-5.35,3.51-11.77,3.79-17.51,6.07-2.23.89-4.48,2.08-6.75,1.34-4.1-1.33-7.34.39-10.48,2.54-5.06,3.47-9.77,7.14-12.32,13.06-1.77,4.13-5.49,7.2-9.07,10-5.41,4.16-6.07,10.51-9.08,15.71-3.14,5.43-3.8,13.23-12.05,15.38a9.72,9.72,0,0,0-7.23,7c-1.67,5.18-7.29,7-12.2,8.56-4.54,1.4-9.27,2.82-14.16,1.43a5.73,5.73,0,0,0-3.66.17c-5.27,2.39-10.35,2.24-16.12,2.05a107.74,107.74,0,0,0-18,1.27,10.4,10.4,0,0,1-5.51-.33c-9.65-3.84-18.48-.85-27.08,3.88-1.78,1-1.35,2.65-1.25,4.1.29,4.37.95,8.68,1,13.1,0,2.78.83,5.38,4.82,6,3.47.58,5.49,4.06,8.4,5.93l0-.08c-2.2.42-3.17-1.36-4.57-2.36-1.69-1.2-3.13-2.51-5.47-3-3.37-.65-4-3.72-4.24-6.71-.25-3.47-.26-7-.73-10.4-.56-4.09-.44-7.49,4.63-9,2-.59,2.21-1.7.16-3.08-4.09-2.74-8.86-2.65-13.3-2.23-5.6.54-11.13,2.08-16.81,2.27a3.73,3.73,0,0,0-2.55.92c-3.86,5-8.86,2.93-13.34,2.19-6.36-1.05-10.51,1-12.73,7.06a12.57,12.57,0,0,1-12.68,8.16c-4.24-.36-8.17-.32-9.24,5.2-.41,2.12-2.59,2.85-4.59,3.58-4.8,1.76-10.06,2.91-11.41,9.07-.39,1.74-2.57,2.12-4.27,2.49-9.07,2-9.28,2.08-10.74,11.07-.53,3.26-2.75,5-4.58,7.33-4.17,5.41-9.31,4.37-14.29,5.51-6.61,1.53-8,3.15-8.71,9.39a5.52,5.52,0,0,1-.57,2.13c-3.25,5.57-3.12,6.94,1.3,12.2,5.42,6.45,4.53,11.19-3.2,15.51-1.94,1.09-2.42,2.65-3.15,4.32-2.24,5.14-5.38,6.85-10.83,5.83-1-.18-2.29-.27-2.64.36-2.34,4.27-8.29,5.59-9.34,10.86-.9-3.55-.89-3.53,2.2-5.78a7.36,7.36,0,0,0,2.43-2.17c2.25-4.43,5.2-5.74,10.29-4.37,3.05.82,5.12-2.64,6.21-5.27s2.15-4.35,4.89-5.69c5.36-2.63,6.12-7.17,2.32-11.6a23.23,23.23,0,0,1-4.44-7.33c-1.21-3.38,4-16.5,7.35-18a26.28,26.28,0,0,1,11.24-2.75c2.69,0,5-.24,5.89-3.31.12-.41.48-1,.79-1.09,6-.89,4.84-5.85,5.74-9.47,1.69-6.83,2.41-7.78,9.45-8.87,3.21-.5,5.33-1.46,6.44-4.9,1.34-4.15,5.68-5.26,9.36-6.28,4.08-1.14,6.15-3.35,6.58-7.25-5.1-2.38-10.57-.3-15.81-.37a17.86,17.86,0,0,1-9.6-2.57c-5.89-3.45-13.89-1.43-17.8,4.2a5.15,5.15,0,0,0-.78,2.08c-1.13,7.22-6.05,9.19-13.72,7.68-4.34-.85-9.3-.3-13.94-.92-.6-.08-1.49.28-1.83,0-4.2-3.76-8.58-1.51-12.93-.07-2.42.81-3.89-.94-5.36-2-3-2.13-5.7-2.8-9.48-1.33s-8.07.26-12,0c-5.05-.4-9.81.68-14.68,1.49-3.06.51-3.24,2.82-2.69,4.9,1.17,4.45-1.14,6.53-5,7.85-1.48.51-3,1-2.82,3.06.5,4.87-2.66,4.61-6,4.09l-.05.1c3.12-.57,5.86-1.18,5.26-5.49-.28-2,2.47-2,3.92-2.71,2.87-1.32,4.56-2.82,3.8-6.32-.84-3.84.83-5.52,5.25-6.81A63.84,63.84,0,0,1,244,79.63a10.15,10.15,0,0,0,4.54-1,9.09,9.09,0,0,1,10,1.21c2.69,2,5.31,2.61,8.55.86,2.62-1.42,5.1-.87,8,.12,4.63,1.58,9.56,3.25,14.77,1.66,1.83-.56,3.18,0,4.79.83,3.68,1.79,7.36-.53,7.62-4.6a6.36,6.36,0,0,1,1.11-3.44c5.23-7.42,15.58-10.26,23.09-5.45,4,2.55,8.22,2,12,1.74,7.61-.45,15.13.51,22.68-.06,3.49-.26,6.12-2.63,7.57-5.75,4.13-8.91,8.61-11.17,18.08-9.32,3.37.66,6.3.16,9.88-1.86,4.47-2.53,9.86-4.81,15.49-4.56a8.35,8.35,0,0,0,5-.92c.82-.51,2.55,0,2.32-1.66-.18-1.35-.79-2.7-2.52-2.78a50.89,50.89,0,0,0-6.05-.06c-3.53.25-5.74-1.06-6.12-4.58s-2.36-5-5.76-4.95c-2.57,0-4.56-.48-5.49-3.11-.46-1.3-1.46-1.95-3-2.42a9.18,9.18,0,0,1-7-8.88c-.13-3.31-1-6.51-.72-9.93.23-3.17-3.58-5-6.51-3.32-2.43,1.34-4.49,2.21-7.4.88-1.92-.88-4,1.25-6,2.1-6.55,2.79-9.73,1.89-12.89-4.14A11.65,11.65,0,0,0,342.3.42c-5.45-1.59-5.61-2.78-3.72-7.83a16.46,16.46,0,0,1,5.2-7.17c2.92-2.49,2.48-14.09-.26-16.36-1.07-.89-2.36-.58-3.56-.63-2-.09-4.06-.07-5.44-1.89s-3.19-.6-4.77-.49c-4.54.29-8.21-2.45-9.47-8.2,1.74,1.88,2.94,3.06,4,4.36,1.44,1.8,3.11,2.76,5.62,2.16s5.14-1.28,6.86,1.73c.39.68,2.36.85,3.5.65,4.05-.73,5.45,1.75,6.67,4.68,2.06,5,.26,13.48-3.94,16.79-2.55,2-2.38,5.08-3.87,7.5-.95,1.54,1.24,2.5,2.76,2.82,5.23,1.08,8.51,4.31,10.76,8.78,1.91,3.79,5,3.31,8.37,2,3.52-1.4,6.75-4.27,11-2,.56.31,2-.64,2.92-1.14,2.08-1.12,4.08-2.6,6.43-.74a7.81,7.81,0,0,1,3.31,6.47c.13,4.5-.88,9.4,2.76,13.28,1.26,1.34,2.07,3,4.33,2.75,1.39-.16,2,.92,2.39,1.79,1.27,2.78,3.22,3.72,6.46,3.83a5.76,5.76,0,0,1,5.84,5.67c.16,2.94,1.69,3.84,4.56,3.68,4.13-.23,8.7-1.19,10.53,4a.51.51,0,0,0,.31.3c6.93.86,13.4,4.58,20.63,3.16a33.4,33.4,0,0,1,17.17.6A24.75,24.75,0,0,0,476,50.56c3.34-1.41,6.53-2.22,9.79-.11a3.36,3.36,0,0,0,3.57,0c4.8-2.71,10-2.2,15.11-2.21,6,0,11.43-1.06,14-7.65a12.1,12.1,0,0,1,6.66-6.39c6.66-2.73,9.13-8,11.23-14.16,2.22-6.58,4.68-13.21,11.55-17.32C554.16-.94,556.21-8,560.33-13.37c6.38-8.36,14.23-14.38,25.62-13.56.31,0,.8.26.89.15,4.46-5.22,11.49-1.73,16.57-5.15,3.8-2.55,7.83-2.58,12.49-1.59,3.69.79,7.72-1.79,10.7-4.72,8.35-8.21,15.44-17.84,27-22.44,2.6-1,4.91-2.78,7.45-4,1.94-.93,2.22-2.44,2.24-4.17,0-5.11,3-8.26,7.59-10.12a25.78,25.78,0,0,0,8.24-5.27c1.72-1.62,3.19-2.89,2-5.33s-1.43-5.77-5.43-5.75c-.75,0-1.82,0-2.19-.5-5.27-6.42-14.42-3.52-20.65-7.69-1-.64-2.73-.3-4.11-.23-1.72.09-3.69.78-5-.21-4.78-3.51-10.49-2-15.78-2.68a5.8,5.8,0,0,0-3.63.34,7,7,0,0,1-7.53-.65c-3.23-2.6-6.29-1.7-9.57-.47-4.41,1.65-8.71,4.22-13.23,4.83-6.6.89-11.19,3.51-15.76,8.44-2.29,2.46-5.65,6-10.06,6.53-1,.12-1.19.9-1,1.71.75,3.32.36,6.84,2.88,9.8,2.14,2.51,4.11,5.67.41,8.89l.11,0a6.42,6.42,0,0,0-.54-7.31c-2.32-2.72-3-5.72-3.51-9-.15-1,.28-2.78-1.59-2.73A2.88,2.88,0,0,0,562-84.14c-1.17,4.38-3.54,4-6.94,2.4s-7-2.81-10.19.92c-.87,1-2.37.51-3.58.41s-2.34-.18-3.44.83c-7.59,7-16.25,6-25.06,3.78l-.06.1c5.76.54,11.51,1.06,17.26-.51a3.22,3.22,0,0,1,.93,0c3.58.16,4.86-3,7.14-4.74s5.69,1.47,7.73-2.34a25.46,25.46,0,0,1-10-5.09c-2.69-2.3-5.36-4.63-5.48-8.5-.17-5.88-6.92-7.65-7.78-13.07-7.66,4.44-9.82.81-16.43-7.58-2.53-3.2-4.71-6.11-9-6.82-.75-.13-1.71-.61-2.21-.32-5.09,3-9.52.81-14.13-1-1.49-.57-3.75-.92-5-.21-4.44,2.49-8.36.38-12.46-.32l-.05.1c3.4-1.92,6.5,1.62,10.27,0,3.17-1.4,3.39-2.09,1.12-4.1-3.27-2.87-4.38-6.29-2.68-10.51a4.2,4.2,0,0,0-.83-4.66c-1.21-1.35-.73-3-.81-4.71-.22-4.79.41-10.3-4.35-13.21-3.46-2.12-5.31-6.92-11-5.85a3.45,3.45,0,0,1-3.59-4.92c1.11-2.69,1.3-4.78-1.73-6.89,4.5.45,5.36,2.38,4,5.54-1.69,3.84.15,5.11,3.77,4.93,2.62-.13,5.09-.16,6.1,2.79a3.24,3.24,0,0,0,.38.78c4.84-1.73,4.43,3.07,5.91,4.93,2.66,3.35,1.68,8,2.68,12,1.36,5.35-.26,11,1.58,15.91,1,2.62,4.35,4.16,7.46,5.72,6,3,11.81.39,17.6,1,5.52.54,7.42,4.08,9.11,7.33,1.9,3.64,6,4.79,7.72,8.36.65,1.37,2.43.43,3.7-.41,3.22-2.11,5.59-1.7,6.61,2.2a7,7,0,0,0,3.93,4.76c3.08,1.21,3.16,4.07,3.6,6.11a15.2,15.2,0,0,0,12.57,12.31c3.49.65,7.16.55,10.47,2,.95.42,2,.52,2.22-.7.55-3.19,3.49-3,5.55-4.2,5.84-3.34,12.49-5.62,16.27-11.8,1.24-2,3.2-3.88,5.76-3.38,4.18.83,7.6-.94,11.25-2.42,3.93-1.59,8-2.89,12-4.18,1.32-.42,3.41-1.06,4.06-.47,4.82,4.4,10.9,1.27,16.22,2.42,3.53.76,3.63.51,3.6-3.28,6,1.8,10.44,6.49,18.24,6.29,5.94-.15,13.47,1.19,18.52,4.15,5.22,3.07,13.83,4.14,14.24,12.8a1.75,1.75,0,0,0,1.75,1.77c6.73.44,13.25,3,20.19,1.41a7.82,7.82,0,0,1,5.83,1c6,3.63,12,2.07,18.61.77,8.57-1.67,15-7.7,23.43-9.46,3.63-.75,6.71-4.75,9.87-7.45,2.51-2.14,5.12-3.72,8.48-3.06,3.14.63,5.61-1.85,8.64-1.74A150,150,0,0,1,804.37-104c5.61,1.07,10.84,1.3,16.25-1.43,4.12-2.08,8.59-3.68,13.18-1.07,1.23.7,2.56,0,3.4-.94,3.92-4.16,8.49-3,13.06-2.06,1.77.36,3,3.18,4.79,1.87,2.9-2.11,6.91-2.86,8.8-6.1,5.31-9.08,12.48-15.84,23-18.81a9.58,9.58,0,0,0,4.19-2.9,10.42,10.42,0,0,1,9.25-3.29c4.56.41,9.35.14,12.91-3.89a8.11,8.11,0,0,1,7.31-2.51c4.27.6,8.78-.06,12.84,1.71,1.55.68,2.71-.11,3.91-.83,5.09-3.08,10.11-2.8,14.92.05,4,2.41,7.63,2.83,11.09-1.29,1.6-1.9,3.87-2.17,6.43-1.93,3.5.33,5.6-1.25,7.54-4.71,3.11-5.59,3.44-12.06,7.11-17.34a2.16,2.16,0,0,0,.4-1.28c-.52-7.71,4.81-11.59,10.78-14.7,3.22-1.68,5.87-4,8.88-5.88,1.39-.87,1.27-1.92,1.37-3.12.59-7.23,1.86-9.09,8.9-11.28,4.38-1.36,7.94-3.25,10.44-7.26,1.61-2.57,3.28-5.28,6.07-7a2.66,2.66,0,0,0,1-3.27c-.41-1.5-1.7-1-2.7-1a23.66,23.66,0,0,0-9.72,1.07c-1.48.52-3.09,1.32-4.52,1.16-4.62-.5-7.23,1.94-10.12,5.09-4.72,5.15-12.1,4.83-16.73-.29-1.35-1.5-2.87-2.42-4.83-2.12-6.54,1-13.17-.19-19.7,1.54a49.59,49.59,0,0,1-10.15,1.45c-4.39.23-9.34,1-11.61,6.22-1.1,2.5-4.69,2.49-6.14,4.86l.1,0c-.88-1.34.31-2.11,1.16-2.42,2.88-1.05,4.27-3.27,5.92-5.62,2.3-3.27,6.71-2.62,10-4.15.92-.43,2.19.1,3-.93-2.78-4.1-4.27-4.42-7.8-1.32a4,4,0,0,1-3.29,1.32c-2.64-.31-4.59,1.18-6.16,2.86-2.38,2.54-4.87,4.08-8,3,6.89-1.76,11.94-7.48,19.08-9.88-6.67-.56-7.34-7.5-12.32-9.38-2.91-1.1-5.47-2.77-8.81-1.61-.56.19-1.66.34-1.75.15-2.55-5.24-8.73-1.36-12.19-4.34a2.38,2.38,0,0,0-3.07.28c-2.69,3.15-7.13,4.2-9.18,8.24-3.1,6.11-9.61,8-15.9,5.19-1-.45-1.84-1.19-3-1-5.6,1-9.83-.75-13.64-4.8-2-2.13-5.87-1.19-8.5-.51-4.5,1.16-8.22-.27-12.12-1.43-4.39-1.31-8.64-4.63-13.27,0-.43.43-1.93.27-2.67-.1-4.38-2.17-6,.64-7.72,3.84-3.77,7.06-10.58,11.35-17.74,9.53-7.44-1.9-14.74-4.45-22.45-5.55-1.15-.17-1.4-1-1.78-1.85-3.39-7.11-5.15-8.48-15.36-4.85-1.08.38-2,.8-3,.08-4-2.67-7.47-1.2-11,1.56-5.2,4.06-7.31,4.07-12.57.89a3.09,3.09,0,0,0-3.88.2c-1.2,1-2.46,1.91-3.6,3-1.84,1.68-4.4,3.31-6.31,2.16-4.5-2.72-10.1-2.23-14.41-4.79a13.13,13.13,0,0,0-10.12-1.81c-6,1.32-12.1.7-18.14,1.26-1.48.14-3-.53-4.5-.84l0,.09c8.9-.38,17.81-.23,26.66-1.8a2.65,2.65,0,0,1,1.83.14c4.69,3.85,11.42,2.76,16.37,6.17,2.79,1.91,5.81,1.22,8.37-1.47,3.05-3.2,5.91-5.85,10.28-1.21,2.2,2.33,5.85.09,8.11-1.64,4.37-3.36,8.38-5.66,14-2.68,1.42.76,4.29-1,6.52-1.58,4.87-1.21,8.55.1,10.84,4.54,1.36,2.62,3.58,3.81,6.75,3.84,5.18,0,10.07.93,14.47,4s14.24-.44,18.13-6.06c1-1.39,1.68-3,2.61-4.39,1.62-2.45,3.33-4.64,6.79-2.63a3.48,3.48,0,0,0,3.93-.53,7.72,7.72,0,0,1,8.35-.82c7,3.43,14.41,3.79,22.1,2.91,2.41-.28,4.5,0,5.81,2.5a5.35,5.35,0,0,0,4.53,2.82c5.75-.15,11,2.33,16.71,2.15,2.33-.07,4.79-.65,5.59-2.75,1.89-4.91,6.37-7.19,10-10.41.82-.74,1.71-2,2.69-1.63,4.93,1.85,11-.16,15.26,3.74a1.53,1.53,0,0,0,1.6.44c4.84-1.21,8.36,1.42,12,3.7,1.51.95,3.85,1,3.56,3.93-.14,1.34,1.89,1.84,3.21,2.17,5,1.27,9.32,4.6,14.88,4.05l0-.13c-1.35.71-3.37-.42-4.44,1.6,2.32,1.28,4.68.78,6.83.14,1.89-.56.12-1.16-.29-1.69l0,.11c.14-.06.31-.2.42-.16,7.13,2.19,11.54-1.87,16-6.56,2-2.1,4.89-3.4,7.37-5.06a2.54,2.54,0,0,1-2,2.74c-5,1.72-8.13,5.48-11.55,9.73a38.93,38.93,0,0,0,4.51-.12c4.59-.71,8.41-.28,11.48,3.81,2.34,3.12,9.32,2.75,12.28-.61,3.45-3.9,6.81-7.1,12.53-6.19.81.13,1.77-.56,2.68-.82,2.87-.81,5.78-1.89,8.75-1.42,3.49.56,5.35-.87,6.06-4a8,8,0,0,1,6.17-6.34,20.21,20.21,0,0,0,6.91-3.81l3.34,7.44c-1.35.78-2.64,1.94-4.08,2.25-4.37.93-5.09,4-5.08,7.46,0,2.53-.16,5-2.21,6.78-3.87,3.38-6.52,7.69-9.79,11.52-2.92,3.44-7,4.63-11,5.88-2.09.65-4,1.22-3.67,3.9.85,7.11-4.4,10.25-9.54,13.35-2.4,1.45-5.12,2.28-7.39,4.08-2.61,2.07-3.51,4.39-4.25,7.65-1.37,6.05-3,12.49-6,17.77a16.49,16.49,0,0,0-2.09,12.36,32.13,32.13,0,0,1,1,6.26c-.07,4.31,1.4,7.43,5.22,9.81,3.44,2.15,4.43,5.49,4.05,9.82a35.68,35.68,0,0,1-4.28,14.18c-3.92,7.12-1.8,13,2.11,18.65a72.77,72.77,0,0,0,9.07,10.1c3.25,3.17,4.87,7.27,7.2,11,1.3,2,2.55,3.56,5.5,2.88,2.71-.62,4,.92,5.21,3.29,3.15,6.37,4.77,13.37,8.44,19.53,1.7,2.88,1.86,6.34,1.81,9.73a13.19,13.19,0,0,0,5.48,11.4,19.62,19.62,0,0,1,6.72,7.8c.75,1.77,2.68,2.29,4.44,2.84l0-.08a2.19,2.19,0,0,1-3,0c-2.85-2.91-3.91.42-5.32,1.68-2.35,2.11.32,2.74,1.41,3.55,2.89,2.17,3.6,4.25.41,7-2.3,2-3.66,4-2.66,7.52,1.14,4,0,8.1-3.07,11.53a12.09,12.09,0,0,0-2.15,3.55c-1.43,3.74.34,6.58,3,8.8s4.39-.26,6.4-1.61c3-2,5.79-4.88,10-2.41,1.41.83,3.52.28,4.91-.76a10.77,10.77,0,0,1,6.41-2.39c-1.14-2.78-5.68-3.08-4.21-7Z"/><path class="cls-1" d="M240.43,68.46c-2.3-1-4.36-2.27-7-2.77-3.18-.61-3.31-3.79-3.53-6.61-.11-1.46,1.22-3.94-.1-4.11-2.08-.28-4.66-.94-6.71.69s-4.25,2.24-6.88,1c-3.16-1.46-4.78-3.35-3.78-7C213.8,44.55,215,39.4,219.82,36l-.11,0c-1.69,3.81-5.17,6.72-5.67,11.2-.29,2.6-2.11,5.24.55,7.42s5.24,2.55,8.33.19c2.53-1.93,5.68-.62,8.59-1.09-1.62,9.53-.16,11.9,8.87,14.71Z"/><path class="cls-1" d="M421.73,112.37a12,12,0,0,0,3.44,9.42c4.38,4.63,4,7-1,11.28s-5.83,10.94-1.68,16.39c2.27,3,2.58,4.21,1.87,8.26,0-3.5-1.51-6.2-3.6-8.91-3.67-4.76-2.11-12.32,2.85-16.35,4.63-3.77,4.81-5.77.87-10.1-3.79-4.18-4.39-6.44-2.64-10Z"/><path class="cls-1" d="M477.36,215.63c-2.71,3.91-5.5,7.61-.23,11.72,2,1.54-.51,4.21-1.18,5.88-2.26,5.67.83,10.08,2.58,14.62.81,2.08,2,4.11,2.28,6.49-.85-4.27-3.71-7.56-5.18-11.68-1.65-4.65-1.48-7.94,1.24-11.79.83-1.17.22-2.57-.79-3.71-3.94-4.46-3.52-7.65,1.4-11.5Z"/><path class="cls-1" d="M421.84,112.4c-.26-5.93,5.92-11.6,10.73-9.27,4.42,2.13,6.69-1.13,8.83-3s1.85-5.28.43-8c-.28-.52-.64-1-1-1.5l0,.08c2.81,1.64,4.19,8.2,1.62,9.86-3.05,2-5.56,5.79-10.64,3.27-3.88-1.93-6.28,2.1-8.51,4.72-.85,1-1.07,2.52-1.57,3.8Z"/><path class="cls-1" d="M487,202.39c-.81-3.81-1.6-7.61,2.69-11.07-3.25,3.6-2,7.49-2.8,11Z"/><path class="cls-1" d="M205.24,103.25c-3-1.13-2.08-6.61-6.91-5.69,3.88-1,3.88-1,6.86,5.79Z"/><path class="cls-1" d="M220.22,30.62a7.42,7.42,0,0,0-3.09-5.38c2.08,1.18,5.09,1.86,3,5.35Z"/><path class="cls-1" d="M486.46,203.59c-1.36,2-2.7,4.07-5.1,5.11l.11,0c1.54-1.87,2.74-4.05,5.11-5.12Z"/><path class="cls-1" d="M219.82,36c-1.14-1.34-.72-2.76-.1-4.19l-.1,0c1,1.35.47,2.78.09,4.21Z"/><path class="cls-1" d="M477.72,214.36l1.82-2.82-.1,0c.41,1.56-.4,2.37-1.83,2.83Z"/><path class="cls-1" d="M481.36,208.7a2.54,2.54,0,0,1-1.92,2.8l.1,0,1.93-2.8Z"/><path class="cls-1" d="M477.61,214.33c.66.54.11.9-.25,1.29l.12,0c-.55-.53-.08-.9.25-1.3Z"/><polygon class="cls-1" points="240.38 68.43 240.58 68.46 240.43 68.46 240.38 68.43"/><path class="cls-1" d="M486.91,202.35l-.45,1.24.12,0c-.71-.67-.26-1,.44-1.23Z"/><path class="cls-1" d="M220.11,30.59c.73.72.46,1.08-.49,1.2l.1,0c.17-.4.34-.8.5-1.21Z"/><path class="cls-1" d="M610.88,850.83c3.15-2.33,6.39-3.87,10.27-1.8a2.21,2.21,0,0,0,2.65-.18c1.59-2,3.77-2,5.91-2.73,5.53-1.93,7.87-7.13,10.75-11.81a140.44,140.44,0,0,0,8.24-14.83c.41-.9,2.23-1.13,3-2,1.18-1.27,4.6-1.13,3.61-3.35a6.24,6.24,0,0,0-5.61-3.17c-8.68-.23-17,1.87-25.18,4.34-4.49,1.35-8.53,1.55-12.6-.52l-.06.1c10.54,2,20.1-3.43,30.21-4.55,4.25-.47,8.75-1.38,12.63,1.77,2.59,2.09,6,2.29,9.34,1.66s6.31-.4,9.35,2c2.83,2.23,7,2,10.42-.07,4.3-2.5,8.11-5.69,12.78-7.71,3.5-1.51,6.41-2.68,9,.69.88,1.12,1.27,1.14,2.47.16,4.82-4,10.39-6.76,14.47-11.9,3.43-4.32,9.4-5.27,14.92-6,1.07-.15,2.8,1,3.15-.83.27-1.4-1.25-1.83-2.43-2.26-.35-.13-.57-.56-.86-.85l0,.11c1.44-.11,3,0,3.67,1.29,2.2,4.73,6.43,3.68,10.31,3.22,3-.36,4.93-.22,4.38,3.45a3,3,0,0,0,1.6,3.43c1.7.76,1.87-1.14,2.79-1.75l-.09,0c-.89,4,2.26,6.64,4.09,9.19,2,2.74,4.09,5.12,4.51,8.56.33,2.7,1.39,4.47,4.62,4.48,2.5,0,4.1,1.91,5.88,3.32,2.85,2.28,5.64,4.64,8.56,6.84s5.57,4.28,9.66,2.1c1.07-.57,3.28-.61,4,.08,3.82,3.4,9.8,1.39,13.42,5a2,2,0,0,0,2.16.37c1-.35,2.29-.38,2.24-1.9a2.4,2.4,0,0,0-.12-.44c.41,1.57,1.81.69,2.72,1,7.84,2.51,16.28.64,24.2,2.5,1.6.38,3-.22,4.49-.78,2.58-1,5.08-2,8.15-1.37s4.92-2.18,6.89-4.18c1.48-1.51,2-4,4.53-4.44l1.49,3.31c-1.64-.19-2,1.27-2.78,2.12-3.53,3.7-6.66,8.15-13,6.18a3.32,3.32,0,0,0-2.62.81c-2.84,2.74-6,1.67-9.13,1.22-2-.29-4-1.12-5.95-.81a24.08,24.08,0,0,1-13.21-1.07,7.45,7.45,0,0,0-7.44,1.4c-2.05,1.62-4.62,1.85-5.77-1.37a5.78,5.78,0,0,0-.44-1.13c-5.53.94-9.49-5.08-15.22-2.91-3,1.13-5.39.48-7.79-1.27-3.82-2.78-7.79-5.36-11.2-8.64-1.65-1.58-3.43-3-6-3-3.11-.12-4.79-2-5.23-4.82-1.07-7-6.34-11.22-10.83-16-.72-.76-2.49-1.38-2.42-1.91.85-6-3.72-3.73-6.5-4.09-3.38-.44-6.8-1.68-10.18-.71-5.27,1.52-11.09,2.08-13.62,8.57a7.35,7.35,0,0,1-6,4.56,7,7,0,0,0-4.52,2.31c-3.25,4.13-6.12,5.15-9.38.38a1.84,1.84,0,0,0-2.58-.19c-3,3-7.42,3.09-10.68,5.88-7,6-11.17,6.09-19.31,1.77-4.1-2.18-16.35-.44-19.64,3a6.9,6.9,0,0,0-2.33,4.37c-.16,2.67-1,5.09-3.85,6.41a2.9,2.9,0,0,0-1.44,1.75c-1.36,7-6.37,11.72-11.86,15.23-2.35,1.5-6.47,2.94-10.06,2.26-6.14-1.17-6.11-1.24-7.52,4.71a10.5,10.5,0,0,1-1.2,2.2c-1.42-2.23.93-4.84-.94-6.71Z"/><path class="cls-1" d="M743.36,659.19c3.3,5,6.53,10.16,13.58,10.82.59,0,1.26.69,1.72.53,6.25-2.2,6.54,2.92,8.07,6.25,1.08,2.32,1.73,4.79,3.8,6.58,5.51,4.75,7.38,5.19,13.6,1.09,4.49-3,9.65-3.58,14.41-5.53,1.91-.78,3.35,1.48,5.29.73l1.49,3.31c-11.84-1.34-20.81,4.88-29.72,11.35-3.87,2.81-8.58,3.86-12.91,5.71-2.32,1-4.06,2-3.91,5s-1.81,4.29-4.83,5.21c-7.31,2.22-14.93,3.15-22.11,5.94a20.61,20.61,0,0,1-10.66.81c-5.6-.85-10.5.46-14.65,4.54a38.76,38.76,0,0,1-4.16,3.06c-3.45,2.56-6.35,2.28-8.48-1.42-1.18-2-2.15-2.33-4.17-.43-4.66,4.37-4.82,4.27-8.89-.65-1.61-1.95-3.11-3.06-6.19-2.71a15,15,0,0,1-12.26-4.26c-5.73-5.39-8.75-5.4-15.42-.28-4.2,3.23-8,6.85-13.27,8.67-3.62,1.23-6,.89-8-2C624,719.16,622,717,621,714.3l.17-.21h.27c1.48,2.08,3,4.15,4.44,6.26,1.8,2.64,3.77,3.08,7.06,1.7,4.92-2.06,8.75-5.38,12.83-8.53,7.5-5.82,11.05-5.73,17.92.29,2.35,2.06,4.83,3.84,8.22,3.46,4.09-.46,7.84-.51,10.14,3.59,1.83,3.27,4.09,3.59,6.7.4,2.33-2.85,4.49-3.07,6.28.44,1.62,3.2,3.91,3.42,6.72,1.1,1.2-1,2.62-1.76,3.73-2.83A17.72,17.72,0,0,1,721,715.14c3.26.46,6.61.6,9.73-.6,7.47-2.88,15.34-4.14,23-6.21,2.25-.61,3.42-1.58,3.27-3.67-.26-3.65,2-5.12,5-6.31,3.93-1.56,7.83-3.21,11.67-5,2-.94,3.32-2.23.3-3.64A19.54,19.54,0,0,1,763.22,677c-.54-1.79-1.41-2.71-3.8-3-6.77-.81-13.35-2.4-16.33-9.5-.85-2-2.41-2.43-4.56-1.33-2.32,1.19-4.66,2.72-7.48,1.66Z"/><path class="cls-1" d="M633,748.56c7.34-2.21,15.32-2.54,21.62-7.8,2.24-1.87,4.38-2.34,6.8.28a8.71,8.71,0,0,0,10.14,2.12c.71-.28,1.64-.82,2.17-.6,6.17,2.58,9.68-1.08,12.84-5.43,2.24-3.08,6-4.89,7.47-8.78a4.83,4.83,0,0,1-1.7,4.39,48.76,48.76,0,0,0-7.6,8.2,8.5,8.5,0,0,1-8.78,3.22c-2.1-.47-3.72,0-5.69.43-3.38.7-7.1.16-9.36-2.55s-4.43-2-6.23-.08c-2.95,3.12-6.64,3.93-10.55,4.45-1.52.21-3.17,0-4.3,1.43-2.1,2.65-4.4,2.33-6.79.62Z"/><path class="cls-1" d="M706.23,771.2c.47-1.57,1.42-3.17-.45-4.51-2.64-1.91-1.22-3.87.59-5.21a10.89,10.89,0,0,0,4.5-8.2c.39-3.69,3-6.39,5.43-9a5.78,5.78,0,0,0,1.78-5.87c1.91,2.56,1.28,4-.47,5.74-3.2,3.21-6,6.71-6.24,11.52a6,6,0,0,1-1.62,3.73c-2.69,2.56-6.27,4.6-2,8.62.66.64.39,2.72-1.58,3.14Z"/><path class="cls-1" d="M633,748.46c-1,.28-2.31.27-3,.89-2.54,2.14-4.07,3.29-6.06-.83-1.76-3.64-9.4-2.83-13.22.6-1.92,1.74-3.06,4.91-7.79,3.89a12.14,12.14,0,0,0,6-3.31c6-6.25,10.45-6.19,16.74,0,1.1,1.08,2,.41,2.77-.35,1.4-1.32,2.74-2.61,4.58-.77Z"/><path class="cls-1" d="M549.9,791.06c.94-4.25-1-6.7-4.82-8.46-2.77-1.27-4.58-3.5-3.11-7,.87-2.07-.35-3.65-1.72-4.76-2.13-1.73-2.43-3.63-1.34-6l-.11,0c.47,2.46,1,4.89,3.09,6.61,1,.77,1.84,2,1.29,3.17-2.16,4.72.94,6.83,4.3,8.48,3.87,1.89,4.75,4.31,2.33,7.92Z"/><path class="cls-1" d="M771.51,780.64c3.6-6,0-11-2.06-16.09-1.36-3.28-1-5.59,2.13-7.53l-.12,0c-4.47,5-.62,10,1.39,13.52,2.61,4.53.54,6.92-1.44,10.1Z"/><path class="cls-1" d="M771.41,780.62c1.56,2.66.35,5-1.51,6.89-3.15,3.19-6.57,6.12-9.88,9.16l.08,0c1.71-3.05,3.42-5.93,6.91-7.64s4.16-5,4.51-8.43Z"/><path class="cls-1" d="M590.36,728l2.83-1.17c-2,4-7.81,4.34-9,9.08C583.84,731.5,588.54,730.77,590.36,728Z"/><path class="cls-1" d="M706.09,775.37c4.9.28,9.86-.88,14.72.22l.05-.1c-4.94.56-9.9,1.51-14.73-.22Z"/><path class="cls-1" d="M771.58,757c-.7-1.87,1.13-4.64-2.32-5.63-1.17-.34-.13-2.08.22-3.08-.23,3.05,6.09,4.62,2,8.69Z"/><path class="cls-1" d="M737.38,787a1.93,1.93,0,0,1-3.19-1.18c-.14-3.79-3.42-4.77-5.61-6.74l0,.1c3.22.38,5.46,1.84,6.12,5.11a3.72,3.72,0,0,0,2.68,2.82Z"/><path class="cls-1" d="M550.49,804.6c-6-.7-4.76-4.65-3.82-8.47l-.1-.06c.44,3.27-.12,7,3.89,8.64Z"/><path class="cls-1" d="M722,776.11c2.45.48,4.41,1.92,6.53,3l0-.11c-2.81.24-4.85-1-6.53-3Z"/><path class="cls-1" d="M706.12,771.18c1.28,1.37-1.2,2.82,0,4.19l0-.1c-2.79-1.35-.14-2.71.11-4.06Z"/><path class="cls-1" d="M538.91,764.88c-.2-.93-.39-1.87-.59-2.8,1.4.83,2.08,1.72.48,2.75Z"/><path class="cls-1" d="M546.67,796.13c1-1.72.64-4.27,3.23-5.07l-.09,0c-1.27,1.58-.79,4.18-3.24,5.06Z"/><path class="cls-1" d="M722.05,776c-.69.45-1.18.46-1.19-.51l-.05.09,1.21.52Z"/></svg>